<?xml version="1.0" encoding="UTF-8"?>
<!DOCTYPE svg PUBLIC "-//W3C//DTD SVG 1.1//EN" "http://www.w3.org/Graphics/SVG/1.1/DTD/svg11.dtd">
<svg xmlns="http://www.w3.org/2000/svg" version="1.1" width="500px" height="500px" style="shape-rendering:geometricPrecision; text-rendering:geometricPrecision; image-rendering:optimizeQuality; fill-rule:evenodd; clip-rule:evenodd" xmlns:xlink="http://www.w3.org/1999/xlink">
<g><path style="opacity:0.983" fill="#060606" d="M 499.5,232.5 C 499.5,243.833 499.5,255.167 499.5,266.5C 488.77,365.151 438.77,435.984 349.5,479C 321.902,490.882 293.235,497.715 263.5,499.5C 253.833,499.5 244.167,499.5 234.5,499.5C 148.131,491.576 81.6306,451.243 35,378.5C 13.3183,341.634 1.48494,301.968 -0.5,259.5C -0.5,251.833 -0.5,244.167 -0.5,236.5C 6.78063,146.763 48.7806,78.5965 125.5,32C 177.748,3.01865 233.415,-6.64802 292.5,3C 376.213,20.07 437.38,66.57 476,142.5C 489.094,171.255 496.927,201.255 499.5,232.5 Z"/></g>
<g><path style="opacity:0.004" fill="#fefffe" d="M 474.5,2.5 C 475.833,3.16667 475.833,3.16667 474.5,2.5 Z"/></g>
<g><path style="opacity:1" fill="#919191" d="M 215.5,9.5 C 213.095,10.7682 210.428,11.4349 207.5,11.5C 209.838,9.96046 212.505,9.29379 215.5,9.5 Z"/></g>
<g><path style="opacity:0.004" fill="#fefffe" d="M 441.5,17.5 C 442.833,18.1667 442.833,18.1667 441.5,17.5 Z"/></g>
<g><path style="opacity:0.004" fill="#fefffe" d="M 44.5,20.5 C 45.8333,21.1667 45.8333,21.1667 44.5,20.5 Z"/></g>
<g><path style="opacity:0.004" fill="#fefffe" d="M 390.5,32.5 C 391.833,33.1667 391.833,33.1667 390.5,32.5 Z"/></g>
<g><path style="opacity:0.004" fill="#fefffe" d="M 489.5,55.5 C 490.833,56.1667 490.833,56.1667 489.5,55.5 Z"/></g>
<g><path style="opacity:0.004" fill="#fefffe" d="M 419.5,60.5 C 420.833,61.1667 420.833,61.1667 419.5,60.5 Z"/></g>
<g><path style="opacity:0.004" fill="#fefffe" d="M 41.5,101.5 C 42.8333,102.167 42.8333,102.167 41.5,101.5 Z"/></g>
<g><path style="opacity:0.004" fill="#fefffe" d="M 485.5,155.5 C 486.833,156.167 486.833,156.167 485.5,155.5 Z"/></g>
<g><path style="opacity:1" fill="#eaeaea" d="M 207.5,11.5 C 210.428,11.4349 213.095,10.7682 215.5,9.5C 302.064,0.396407 374.564,27.7297 433,91.5C 488.113,159.056 504.113,235.056 481,319.5C 458.838,388.658 415.005,438.825 349.5,470C 272.338,502.321 197.338,497.988 124.5,457C 39.9966,401.152 1.49657,322.319 9,220.5C 20.9701,138.935 62.4701,77.768 133.5,37C 156.707,24.2278 181.374,15.7278 207.5,11.5 Z"/></g>
<g><path style="opacity:1" fill="#0c0505" d="M 225.5,19.5 C 321.773,14.0513 395.939,51.3847 448,131.5C 481.765,190.288 489.098,252.288 470,317.5C 444.537,393.629 393.704,444.463 317.5,470C 225.205,494.557 145.705,473.057 79,405.5C 26.7138,344.589 8.71379,274.589 25,195.5C 49.8459,106.654 106.679,49.8208 195.5,25C 205.613,23.0132 215.613,21.1799 225.5,19.5 Z"/></g>
<g><path style="opacity:1" fill="#a11a25" d="M 444.5,143.5 C 451.108,154.056 456.108,165.389 459.5,177.5C 454.013,166.424 449.013,155.09 444.5,143.5 Z"/></g>
<g><path style="opacity:1" fill="#a82026" d="M 53.5,144.5 C 53.6567,145.873 53.49,147.207 53,148.5C 49.6305,156.572 45.7972,164.239 41.5,171.5C 44.6974,162.108 48.6974,153.108 53.5,144.5 Z"/></g>
<g><path style="opacity:1" fill="#c82228" d="M 61.5,131.5 C 61.5,133.833 61.5,136.167 61.5,138.5C 60.5,138.5 59.5,138.5 58.5,138.5C 58.6308,141.367 57.2974,143.033 54.5,143.5C 56.332,139.164 58.6654,135.164 61.5,131.5 Z"/></g>
<g><path style="opacity:1" fill="#9a1e25" d="M 67.5,122.5 C 66.2085,126.097 64.2085,129.097 61.5,131.5C 62.7232,127.951 64.7232,124.951 67.5,122.5 Z"/></g>
<g><path style="opacity:1" fill="#ec1b24" d="M 271.5,28.5 C 274.807,29.0508 278.14,29.3841 281.5,29.5C 281.5,30.5 281.5,31.5 281.5,32.5C 288.961,32.304 296.294,32.9707 303.5,34.5C 308.381,36.9008 313.714,38.5674 319.5,39.5C 321.527,39.3379 323.527,39.5045 325.5,40C 330.977,42.3161 336.31,44.8161 341.5,47.5C 341.5,48.5 341.5,49.5 341.5,50.5C 346.194,52.7315 351.194,54.3982 356.5,55.5C 358.968,57.138 360.968,59.3047 362.5,62C 362.355,62.772 362.022,63.4387 361.5,64C 363.345,63.2173 365.345,62.884 367.5,63C 368.308,63.3076 368.975,63.8076 369.5,64.5C 368.359,65.4255 368.359,66.2588 369.5,67C 374.808,68.4787 379.808,70.6454 384.5,73.5C 389.167,77.1667 393.833,80.8333 398.5,84.5C 398.082,87.0896 397.082,89.4229 395.5,91.5C 398.116,93.3636 398.95,95.6969 398,98.5C 399.117,97.0506 399.784,95.3839 400,93.5C 401.074,94.6184 402.24,95.6184 403.5,96.5C 401.995,97.8415 401.328,99.5082 401.5,101.5C 402.552,101.649 403.552,101.483 404.5,101C 405.05,99.1554 406.05,97.6554 407.5,96.5C 411.494,100.16 415.494,103.827 419.5,107.5C 429.78,118.029 438.113,130.029 444.5,143.5C 449.013,155.09 454.013,166.424 459.5,177.5C 459.69,180.855 460.69,183.855 462.5,186.5C 463.768,188.905 464.435,191.572 464.5,194.5C 464.5,196.5 464.5,198.5 464.5,200.5C 463.167,200.5 461.833,200.5 460.5,200.5C 460.5,198.833 460.5,197.167 460.5,195.5C 458.304,195.59 456.137,195.923 454,196.5C 452.289,196.561 450.956,195.894 450,194.5C 451.4,188.314 452.234,181.98 452.5,175.5C 452.167,172.5 451.833,169.5 451.5,166.5C 450.378,165.37 449.044,164.703 447.5,164.5C 446.833,163.5 446.167,162.5 445.5,161.5C 445.586,160.504 445.252,159.671 444.5,159C 440.874,158.722 438.874,156.888 438.5,153.5C 432.486,152.498 426.486,152.498 420.5,153.5C 419.167,154.5 417.833,155.5 416.5,156.5C 411.866,154.26 409.533,155.593 409.5,160.5C 407.799,160.966 406.299,160.966 405,160.5C 404.781,161.938 404.281,163.271 403.5,164.5C 402.914,164.291 402.414,163.957 402,163.5C 401.503,165.81 401.337,168.143 401.5,170.5C 401.5,171.167 401.167,171.5 400.5,171.5C 398.824,172.183 398.157,173.517 398.5,175.5C 393.543,175.51 388.876,174.51 384.5,172.5C 378.428,170.423 373.095,171.59 368.5,176C 366.636,178.688 364.636,181.188 362.5,183.5C 361.833,183.5 361.167,183.5 360.5,183.5C 360.5,181.5 360.5,179.5 360.5,177.5C 357.772,176.795 354.939,176.128 352,175.5C 347.19,179.218 341.69,181.385 335.5,182C 332,183.5 329.5,186 328,189.5C 327.51,188.207 327.343,186.873 327.5,185.5C 328.167,183.833 328.833,182.167 329.5,180.5C 330.357,172.514 327.024,167.514 319.5,165.5C 312.377,157.567 305.21,157.567 298,165.5C 297.019,170.75 297.519,175.75 299.5,180.5C 300.446,183.313 302.446,184.646 305.5,184.5C 305.502,186.831 304.669,188.831 303,190.5C 302.667,190.167 302.333,189.833 302,189.5C 301.506,191.134 301.34,192.801 301.5,194.5C 300.127,194.343 298.793,194.51 297.5,195C 299.715,202.111 301.049,209.277 301.5,216.5C 301.5,217.833 300.833,218.5 299.5,218.5C 298.73,214.294 296.897,210.627 294,207.5C 290.638,208.865 287.805,208.032 285.5,205C 283.527,204.505 281.527,204.338 279.5,204.5C 271.909,203.64 265.242,205.64 259.5,210.5C 257.883,211.038 256.216,211.371 254.5,211.5C 253.833,211.5 253.5,211.167 253.5,210.5C 253.5,208.833 253.5,207.167 253.5,205.5C 248.038,206.864 242.704,208.53 237.5,210.5C 235.883,211.038 234.216,211.371 232.5,211.5C 231.844,212.622 231.511,213.955 231.5,215.5C 231.889,223.396 232.889,231.063 234.5,238.5C 234.5,238.833 234.5,239.167 234.5,239.5C 234.867,250.545 235.534,261.545 236.5,272.5C 235.5,272.5 234.5,272.5 233.5,272.5C 233.663,270.143 233.497,267.81 233,265.5C 232.692,266.308 232.192,266.975 231.5,267.5C 230.094,263.83 230.427,260.33 232.5,257C 232.138,255.775 231.638,254.609 231,253.5C 230.333,252.167 229.667,252.167 229,253.5C 228.766,249.532 227.933,245.698 226.5,242C 226.926,240.016 227.26,238.016 227.5,236C 226.36,231.868 225.36,227.701 224.5,223.5C 222.954,224.684 221.287,225.684 219.5,226.5C 220.908,227.243 222.241,228.077 223.5,229C 222.663,230.011 222.33,231.178 222.5,232.5C 221.5,232.5 220.5,232.5 219.5,232.5C 219.5,231.5 219.5,230.5 219.5,229.5C 217.738,229.357 216.071,229.691 214.5,230.5C 213.378,228.956 213.711,227.623 215.5,226.5C 213.141,225.295 210.974,225.628 209,227.5C 206.876,226.937 204.709,226.604 202.5,226.5C 199.795,226.316 197.462,226.983 195.5,228.5C 192.391,228.655 189.391,229.322 186.5,230.5C 185.754,231.736 185.421,233.07 185.5,234.5C 184.167,234.5 182.833,234.5 181.5,234.5C 182.006,243.109 179.006,244.609 172.5,239C 167.467,238.272 162.467,238.439 157.5,239.5C 156.287,239.747 155.62,240.414 155.5,241.5C 150.623,244.268 145.456,244.935 140,243.5C 136.629,244.929 133.129,246.096 129.5,247C 130.833,247.333 132.167,247.667 133.5,248C 130.522,248.696 127.522,249.196 124.5,249.5C 124.732,245.026 124.066,240.693 122.5,236.5C 121.9,234.532 120.567,233.532 118.5,233.5C 117.5,233.167 116.833,232.5 116.5,231.5C 116.586,230.504 116.252,229.671 115.5,229C 112.106,227.925 108.772,226.758 105.5,225.5C 104.653,224.034 103.32,223.2 101.5,223C 95.1754,222.5 88.8421,222.334 82.5,222.5C 82.5,223.5 82.5,224.5 82.5,225.5C 80.1667,225.5 77.8333,225.5 75.5,225.5C 75.5,226.833 75.5,228.167 75.5,229.5C 74.1667,229.5 72.8333,229.5 71.5,229.5C 71.5923,225.929 69.9257,224.762 66.5,226C 65.9781,226.561 65.6448,227.228 65.5,228C 67.4219,229.419 68.7552,231.253 69.5,233.5C 67.1497,238.295 64.983,243.295 63,248.5C 62.3333,253.5 62.3333,258.5 63,263.5C 63.2784,264.416 63.7784,265.082 64.5,265.5C 63.7499,269.697 65.0833,273.03 68.5,275.5C 64.6608,278.318 63.9941,281.651 66.5,285.5C 69.0443,283.608 69.0443,281.775 66.5,280C 68.1341,279.506 69.8008,279.34 71.5,279.5C 71.33,280.822 71.6634,281.989 72.5,283C 71.552,283.483 70.552,283.649 69.5,283.5C 68.7769,287.268 67.7769,290.935 66.5,294.5C 65.9759,296.306 65.3092,297.972 64.5,299.5C 62.4927,303.501 60.4927,307.501 58.5,311.5C 59.0098,317.138 60.3431,322.471 62.5,327.5C 60.9256,327.063 59.7589,326.063 59,324.5C 57.8076,321.548 56.3076,318.881 54.5,316.5C 51.9505,316.439 50.4505,315.106 50,312.5C 49.6667,309.5 49.3333,306.5 49,303.5C 46.676,306.48 45.176,309.813 44.5,313.5C 43.325,313.281 42.325,313.614 41.5,314.5C 40.6518,316.409 40.3184,318.409 40.5,320.5C 39.355,313.719 37.355,307.052 34.5,300.5C 31.2669,282.791 29.2669,264.958 28.5,247C 29.5422,233.831 30.5422,220.665 31.5,207.5C 31.5,207.167 31.5,206.833 31.5,206.5C 32.1174,206.389 32.6174,206.056 33,205.5C 34.698,199.581 35.8647,193.581 36.5,187.5C 39.5415,182.703 41.2082,177.37 41.5,171.5C 45.7972,164.239 49.6305,156.572 53,148.5C 53.49,147.207 53.6567,145.873 53.5,144.5C 53.5,143.833 53.8333,143.5 54.5,143.5C 57.2974,143.033 58.6308,141.367 58.5,138.5C 59.5,138.5 60.5,138.5 61.5,138.5C 61.5,136.167 61.5,133.833 61.5,131.5C 64.2085,129.097 66.2085,126.097 67.5,122.5C 72.7436,114.255 78.7436,106.588 85.5,99.5C 92.4439,94.2249 98.7772,88.2249 104.5,81.5C 108.727,79.2153 112.393,76.2153 115.5,72.5C 118.642,69.5314 121.975,66.698 125.5,64C 127.628,63.3448 129.628,62.5114 131.5,61.5C 136.945,59.541 142.278,57.3743 147.5,55C 152.956,51.0373 158.956,48.0373 165.5,46C 167.747,44.7225 169.747,43.2225 171.5,41.5C 178.576,41.3248 184.91,39.3248 190.5,35.5C 190.833,35.5 191.167,35.5 191.5,35.5C 198.255,34.8445 204.922,33.6778 211.5,32C 212.942,31.6232 213.942,30.7899 214.5,29.5C 215.5,29.5 216.5,29.5 217.5,29.5C 218.833,29.5 220.167,29.5 221.5,29.5C 238.15,28.6274 254.816,28.2941 271.5,28.5 Z"/></g>
<g><path style="opacity:1" fill="#dc2e33" d="M 445.5,161.5 C 443.254,160.545 440.921,159.878 438.5,159.5C 434.49,155.111 429.49,153.611 423.5,155C 414.124,157.5 406.791,162.667 401.5,170.5C 401.337,168.143 401.503,165.81 402,163.5C 402.414,163.957 402.914,164.291 403.5,164.5C 404.281,163.271 404.781,161.938 405,160.5C 406.299,160.966 407.799,160.966 409.5,160.5C 409.533,155.593 411.866,154.26 416.5,156.5C 417.833,155.5 419.167,154.5 420.5,153.5C 426.486,152.498 432.486,152.498 438.5,153.5C 438.874,156.888 440.874,158.722 444.5,159C 445.252,159.671 445.586,160.504 445.5,161.5 Z"/></g>
<g><path style="opacity:1" fill="#e7241b" d="M 333.5,98.5 C 329.833,98.5 326.167,98.5 322.5,98.5C 322.172,110.012 322.505,121.346 323.5,132.5C 325.833,132.5 328.167,132.5 330.5,132.5C 330.175,124.981 330.508,117.648 331.5,110.5C 333.165,115.162 334.832,119.828 336.5,124.5C 335.542,124.047 334.708,123.381 334,122.5C 333.667,122.833 333.333,123.167 333,123.5C 334.573,132.857 330.907,136.191 322,133.5C 322.579,135.342 323.079,137.342 323.5,139.5C 323.167,140.5 322.833,141.5 322.5,142.5C 320.932,140.456 319.098,140.122 317,141.5C 313.56,140.01 310.06,138.677 306.5,137.5C 306.167,137.167 305.833,136.833 305.5,136.5C 306.5,136.167 307.5,135.833 308.5,135.5C 311.067,136.664 313.734,137.33 316.5,137.5C 316.5,136.5 316.5,135.5 316.5,134.5C 311.742,135.448 307.909,134.115 305,130.5C 304.127,130.735 303.293,131.069 302.5,131.5C 302.744,128.294 302.411,124.961 301.5,121.5C 300.5,121.5 299.5,121.5 298.5,121.5C 298.813,125.042 298.479,128.375 297.5,131.5C 297.5,127.833 297.5,124.167 297.5,120.5C 299.199,120.34 300.866,120.506 302.5,121C 304.879,124.256 306.879,127.756 308.5,131.5C 311.167,132.833 313.833,132.833 316.5,131.5C 314.292,127.583 311.959,123.75 309.5,120C 315.908,116.677 318.075,111.511 316,104.5C 314.114,101.758 311.614,100.091 308.5,99.5C 302.69,98.5104 296.69,98.1771 290.5,98.5C 296.559,97.306 302.559,96.306 308.5,95.5C 311.255,97.2112 313.589,99.3779 315.5,102C 316.833,102.333 318.167,102.667 319.5,103C 318.205,106.786 318.205,110.62 319.5,114.5C 319.325,111.282 319.991,108.116 321.5,105C 321.325,103.342 320.658,102.009 319.5,101C 320.126,100.25 320.626,99.4162 321,98.5C 325.267,97.178 329.434,97.178 333.5,98.5 Z"/></g>
<g><path style="opacity:1" fill="#fd8e23" d="M 367.5,122.5 C 367.167,125.167 366.833,127.833 366.5,130.5C 368.947,130.385 370.947,129.385 372.5,127.5C 371.962,129.117 371.629,130.784 371.5,132.5C 368.753,132.813 366.086,132.48 363.5,131.5C 364.609,128.292 365.942,125.292 367.5,122.5 Z"/></g>
<g><path style="opacity:1" fill="#f6751b" d="M 290.5,98.5 C 296.69,98.1771 302.69,98.5104 308.5,99.5C 302.5,99.5 296.5,99.5 290.5,99.5C 290.5,110.167 290.5,120.833 290.5,131.5C 292.5,131.5 294.5,131.5 296.5,131.5C 296.185,127.629 296.518,123.962 297.5,120.5C 297.5,124.167 297.5,127.833 297.5,131.5C 297.5,131.833 297.5,132.167 297.5,132.5C 294.833,132.5 292.167,132.5 289.5,132.5C 289.5,121.5 289.5,110.5 289.5,99.5C 289.5,98.8333 289.833,98.5 290.5,98.5 Z"/></g>
<g><path style="opacity:1" fill="#eb5115" d="M 333.5,98.5 C 336.272,104.381 339.272,110.048 342.5,115.5C 342.631,116.376 342.298,117.043 341.5,117.5C 340.141,116.376 339.141,115.042 338.5,113.5C 336.687,109.268 335.02,104.935 333.5,100.5C 330.242,99.5827 326.909,99.2493 323.5,99.5C 323.5,110.167 323.5,120.833 323.5,131.5C 323.5,131.833 323.5,132.167 323.5,132.5C 322.505,121.346 322.172,110.012 322.5,98.5C 326.167,98.5 329.833,98.5 333.5,98.5 Z"/></g>
<g><path style="opacity:1" fill="#f59b0f" d="M 203.5,131.5 C 200.939,132.767 198.272,132.767 195.5,131.5C 195.714,129.856 195.38,128.356 194.5,127C 189.5,126.333 184.5,126.333 179.5,127C 177.845,128.444 177.178,130.278 177.5,132.5C 174.833,132.5 172.167,132.5 169.5,132.5C 173.215,121.402 177.215,110.402 181.5,99.5C 184.728,98.5863 188.061,98.2529 191.5,98.5C 195.496,109.488 199.496,120.488 203.5,131.5 Z"/></g>
<g><path style="opacity:1" fill="#f59b0f" d="M 385.5,98.5 C 390.101,109.636 394.101,120.969 397.5,132.5C 392.631,133.447 389.631,131.613 388.5,127C 383.083,126.219 377.75,126.385 372.5,127.5C 370.947,129.385 368.947,130.385 366.5,130.5C 366.833,127.833 367.167,125.167 367.5,122.5C 370.031,114.742 372.864,107.075 376,99.5C 379.057,98.5495 382.223,98.2161 385.5,98.5 Z"/></g>
<g><path style="opacity:1" fill="#f89418" d="M 273.5,98.5 C 276.059,106.461 279.059,114.128 282.5,121.5C 283.359,125.274 284.359,128.941 285.5,132.5C 280.631,133.447 277.631,131.613 276.5,127C 271.5,126.333 266.5,126.333 261.5,127C 260.139,128.584 259.472,130.418 259.5,132.5C 256.753,132.813 254.086,132.48 251.5,131.5C 254.135,123.906 257.135,116.572 260.5,109.5C 260.996,105.684 262.329,102.184 264.5,99C 267.482,98.502 270.482,98.3354 273.5,98.5 Z"/></g>
<g><path style="opacity:1" fill="#f79715" d="M 353.5,132.5 C 352.671,125.011 352.171,117.344 352,109.5C 348.567,117.016 345.734,124.682 343.5,132.5C 342.167,132.5 340.833,132.5 339.5,132.5C 339.5,131.5 339.5,130.5 339.5,129.5C 340.5,129.5 341.5,129.5 342.5,129.5C 342.955,127.633 343.622,125.8 344.5,124C 344.065,120.937 343.232,120.77 342,123.5C 338.903,122.711 338.736,121.544 341.5,120C 339.081,118.491 338.081,116.325 338.5,113.5C 339.141,115.042 340.141,116.376 341.5,117.5C 342.298,117.043 342.631,116.376 342.5,115.5C 344.82,110.321 347.153,104.988 349.5,99.5C 352.768,98.513 356.102,98.1796 359.5,98.5C 359.5,109.833 359.5,121.167 359.5,132.5C 357.5,132.5 355.5,132.5 353.5,132.5 Z"/></g>
<g><path style="opacity:1" fill="#e42a17" d="M 220.5,113.5 C 220.216,116.254 219.549,118.92 218.5,121.5C 216.346,114.24 214.513,106.907 213,99.5C 210.619,98.565 208.119,98.2317 205.5,98.5C 208.007,109.528 210.674,120.528 213.5,131.5C 210.916,130.952 209.916,129.285 210.5,126.5C 206.114,125.574 203.78,127.241 203.5,131.5C 199.496,120.488 195.496,109.488 191.5,98.5C 188.061,98.2529 184.728,98.5863 181.5,99.5C 184.608,97.829 188.108,96.829 192,96.5C 191.791,100.459 193.625,102.126 197.5,101.5C 196.948,107.775 197.948,113.775 200.5,119.5C 201.325,120.386 202.325,120.719 203.5,120.5C 203.337,125.578 204.504,126.245 207,122.5C 207.333,123.167 207.667,123.833 208,124.5C 208.263,119.43 207.763,114.43 206.5,109.5C 205.5,109.5 204.5,109.5 203.5,109.5C 203.762,110.978 203.429,112.311 202.5,113.5C 202.167,112.5 201.833,111.5 201.5,110.5C 202.255,107.579 203.255,104.746 204.5,102C 203.847,99.7141 203.847,97.5474 204.5,95.5C 207.812,96.6182 211.145,96.6182 214.5,95.5C 215.412,102.526 216.579,109.526 218,116.5C 218.852,115.429 219.685,114.429 220.5,113.5 Z"/></g>
<g><path style="opacity:1" fill="#f29f09" d="M 338.5,113.5 C 338.081,116.325 339.081,118.491 341.5,120C 338.736,121.544 338.903,122.711 342,123.5C 343.232,120.77 344.065,120.937 344.5,124C 343.622,125.8 342.955,127.633 342.5,129.5C 341.5,129.5 340.5,129.5 339.5,129.5C 338.313,127.928 337.313,126.261 336.5,124.5C 334.832,119.828 333.165,115.162 331.5,110.5C 331.44,109.957 331.107,109.624 330.5,109.5C 329.503,116.803 329.169,124.137 329.5,131.5C 327.5,131.5 325.5,131.5 323.5,131.5C 323.5,120.833 323.5,110.167 323.5,99.5C 326.909,99.2493 330.242,99.5827 333.5,100.5C 335.02,104.935 336.687,109.268 338.5,113.5 Z"/></g>
<g><path style="opacity:1" fill="#e62a1a" d="M 119.5,98.5 C 113.474,97.6757 108.307,99.3424 104,103.5C 102.506,108.526 103.673,112.692 107.5,116C 112.278,117.361 116.944,119.028 121.5,121C 122.517,122.049 122.684,123.216 122,124.5C 116.51,127.232 111.177,126.899 106,123.5C 103.862,124.43 102.695,126.097 102.5,128.5C 101.876,128.083 101.543,127.416 101.5,126.5C 101.939,124.896 102.606,123.396 103.5,122C 103.05,120.715 102.383,119.548 101.5,118.5C 102.415,117.672 103.081,116.672 103.5,115.5C 100.726,112.018 100.393,108.518 102.5,105C 101.904,102.345 102.737,99.8446 105,97.5C 109.919,97.5528 114.752,97.8861 119.5,98.5 Z"/></g>
<g><path style="opacity:1" fill="#e42917" d="M 380.5,105.5 C 382.278,108.652 383.778,111.985 385,115.5C 385.494,117.134 385.66,118.801 385.5,120.5C 382.102,120.82 378.768,120.487 375.5,119.5C 377.172,114.816 378.839,110.149 380.5,105.5 Z"/></g>
<g><path style="opacity:1" fill="#fd7c25" d="M 331.5,110.5 C 330.508,117.648 330.175,124.981 330.5,132.5C 328.167,132.5 325.833,132.5 323.5,132.5C 323.5,132.167 323.5,131.833 323.5,131.5C 325.5,131.5 327.5,131.5 329.5,131.5C 329.169,124.137 329.503,116.803 330.5,109.5C 331.107,109.624 331.44,109.957 331.5,110.5 Z"/></g>
<g><path style="opacity:1" fill="#e42b18" d="M 159.5,98.5 C 161.607,97.5318 163.941,97.1984 166.5,97.5C 166.333,108.172 166.5,118.839 167,129.5C 167.333,129.833 167.667,130.167 168,130.5C 168.392,127.812 168.892,125.145 169.5,122.5C 168.076,119.56 168.91,118.894 172,120.5C 172.215,117.144 172.215,113.811 172,110.5C 173.356,109.62 174.856,109.286 176.5,109.5C 177.546,105.916 178.379,102.25 179,98.5C 179.671,99.2524 180.504,99.5858 181.5,99.5C 177.215,110.402 173.215,121.402 169.5,132.5C 172.167,132.5 174.833,132.5 177.5,132.5C 177.178,130.278 177.845,128.444 179.5,127C 184.5,126.333 189.5,126.333 194.5,127C 195.38,128.356 195.714,129.856 195.5,131.5C 193.952,131.179 193.285,130.179 193.5,128.5C 188.833,128.5 184.167,128.5 179.5,128.5C 179.071,132.024 177.571,135.024 175,137.5C 174.092,135.561 172.592,134.561 170.5,134.5C 170.007,136.806 169.674,139.139 169.5,141.5C 168.167,141.5 166.833,141.5 165.5,141.5C 165.442,135.744 163.109,134.41 158.5,137.5C 156.548,135.663 155.548,133.329 155.5,130.5C 156.21,127.201 156.543,123.867 156.5,120.5C 152.5,120.5 148.5,120.5 144.5,120.5C 144.797,124.767 144.464,128.934 143.5,133C 140.009,135.101 136.676,134.934 133.5,132.5C 132.929,128.139 132.596,123.806 132.5,119.5C 132.179,125.226 129.512,129.226 124.5,131.5C 125.793,129.704 127.293,128.037 129,126.5C 130.922,120.617 129.089,116.451 123.5,114C 119.877,112.844 116.211,111.844 112.5,111C 109.25,106.822 110.25,104.655 115.5,104.5C 118.996,105.106 122.33,105.94 125.5,107C 126.804,106.196 127.471,105.029 127.5,103.5C 126.066,101.058 124.066,99.3916 121.5,98.5C 124.785,99.4025 128.119,100.402 131.5,101.5C 132.849,101.154 134.183,100.821 135.5,100.5C 135.5,111.167 135.5,121.833 135.5,132.5C 137.833,132.5 140.167,132.5 142.5,132.5C 142.5,127.833 142.5,123.167 142.5,118.5C 147.833,118.5 153.167,118.5 158.5,118.5C 158.5,123.167 158.5,127.833 158.5,132.5C 160.833,132.5 163.167,132.5 165.5,132.5C 165.5,121.167 165.5,109.833 165.5,98.5C 163.5,98.5 161.5,98.5 159.5,98.5 Z"/></g>
<g><path style="opacity:1" fill="#fe8c1d" d="M 142.5,111.5 C 140.586,108.316 139.92,104.649 140.5,100.5C 139.167,100.5 137.833,100.5 136.5,100.5C 136.5,110.833 136.5,121.167 136.5,131.5C 138.167,131.5 139.833,131.5 141.5,131.5C 141.182,126.968 141.515,122.634 142.5,118.5C 142.5,123.167 142.5,127.833 142.5,132.5C 140.167,132.5 137.833,132.5 135.5,132.5C 135.5,121.833 135.5,111.167 135.5,100.5C 137.279,98.6565 139.612,97.9898 142.5,98.5C 142.5,102.833 142.5,107.167 142.5,111.5 Z"/></g>
<g><path style="opacity:1" fill="#e22e15" d="M 185.5,105.5 C 188.812,109.817 190.812,114.817 191.5,120.5C 188.167,120.5 184.833,120.5 181.5,120.5C 182.833,115.5 184.167,110.5 185.5,105.5 Z"/></g>
<g><path style="opacity:1" fill="#f39f09" d="M 142.5,111.5 C 147.833,112.833 153.167,112.833 158.5,111.5C 159.482,108.038 159.815,104.371 159.5,100.5C 161.167,100.5 162.833,100.5 164.5,100.5C 164.5,110.833 164.5,121.167 164.5,131.5C 163.167,131.5 161.833,131.5 160.5,131.5C 160.5,126.833 160.5,122.167 160.5,117.5C 154.31,117.177 148.31,117.51 142.5,118.5C 141.515,122.634 141.182,126.968 141.5,131.5C 139.833,131.5 138.167,131.5 136.5,131.5C 136.5,121.167 136.5,110.833 136.5,100.5C 137.833,100.5 139.167,100.5 140.5,100.5C 139.92,104.649 140.586,108.316 142.5,111.5 Z"/></g>
<g><path style="opacity:1" fill="#e52719" d="M 385.5,98.5 C 382.223,98.2161 379.057,98.5495 376,99.5C 372.864,107.075 370.031,114.742 367.5,122.5C 365.942,125.292 364.609,128.292 363.5,131.5C 366.086,132.48 368.753,132.813 371.5,132.5C 371.629,130.784 371.962,129.117 372.5,127.5C 377.75,126.385 383.083,126.219 388.5,127C 389.631,131.613 392.631,133.447 397.5,132.5C 393.372,134.3 390.039,133.3 387.5,129.5C 382.88,128.507 378.214,128.173 373.5,128.5C 373.528,130.582 372.861,132.416 371.5,134C 366.614,133.945 361.781,134.111 357,134.5C 355.319,134.392 354.152,133.725 353.5,132.5C 355.5,132.5 357.5,132.5 359.5,132.5C 359.5,121.167 359.5,109.833 359.5,98.5C 356.102,98.1796 352.768,98.513 349.5,99.5C 347.153,104.988 344.82,110.321 342.5,115.5C 342.885,111.675 343.885,108.009 345.5,104.5C 345.201,102.185 344.368,102.185 343,104.5C 342.833,104.167 342.667,103.833 342.5,103.5C 343.985,100.431 345.985,97.764 348.5,95.5C 352.5,96.1667 356.5,96.8333 360.5,97.5C 361.167,99.5 361.833,101.5 362.5,103.5C 363.167,100.833 363.833,98.1667 364.5,95.5C 365.66,99.4589 365.827,103.459 365,107.5C 362.961,108.978 362.128,110.978 362.5,113.5C 363.5,113.5 364.5,113.5 365.5,113.5C 365.5,112.167 365.5,110.833 365.5,109.5C 367.467,109.739 369.301,109.406 371,108.5C 371.728,104.643 373.228,101.143 375.5,98C 379.027,97.1925 382.36,97.3592 385.5,98.5 Z"/></g>
<g><path style="opacity:1" fill="#f49a0e" d="M 220.5,113.5 C 222.783,108.862 224.116,103.862 224.5,98.5C 226.792,98.2436 228.959,98.5769 231,99.5C 232.686,106.909 234.686,114.242 237,121.5C 238.614,116.071 240.114,110.737 241.5,105.5C 242.479,104.235 243.479,102.901 244.5,101.5C 245.689,100.571 247.022,100.238 248.5,100.5C 248.037,103.482 247.704,106.482 247.5,109.5C 246.85,111.435 246.517,113.435 246.5,115.5C 244.259,120.9 242.592,126.567 241.5,132.5C 238.833,132.5 236.167,132.5 233.5,132.5C 231.97,125.08 230.137,117.746 228,110.5C 225.547,117.304 223.547,124.304 222,131.5C 219.281,132.444 216.448,132.777 213.5,132.5C 213.5,132.167 213.5,131.833 213.5,131.5C 210.674,120.528 208.007,109.528 205.5,98.5C 208.119,98.2317 210.619,98.565 213,99.5C 214.513,106.907 216.346,114.24 218.5,121.5C 219.549,118.92 220.216,116.254 220.5,113.5 Z"/></g>
<g><path style="opacity:1" fill="#e9600a" d="M 158.5,99.5 C 158.5,103.5 158.5,107.5 158.5,111.5C 153.167,112.833 147.833,112.833 142.5,111.5C 147.5,111.5 152.5,111.5 157.5,111.5C 157.183,107.298 157.517,103.298 158.5,99.5 Z"/></g>
<g><path style="opacity:1" fill="#f59b0f" d="M 119.5,98.5 C 120.167,98.5 120.833,98.5 121.5,98.5C 124.066,99.3916 126.066,101.058 127.5,103.5C 127.471,105.029 126.804,106.196 125.5,107C 122.33,105.94 118.996,105.106 115.5,104.5C 110.25,104.655 109.25,106.822 112.5,111C 116.211,111.844 119.877,112.844 123.5,114C 129.089,116.451 130.922,120.617 129,126.5C 127.293,128.037 125.793,129.704 124.5,131.5C 116.612,133.644 109.279,132.644 102.5,128.5C 102.695,126.097 103.862,124.43 106,123.5C 111.177,126.899 116.51,127.232 122,124.5C 122.684,123.216 122.517,122.049 121.5,121C 116.944,119.028 112.278,117.361 107.5,116C 103.673,112.692 102.506,108.526 104,103.5C 108.307,99.3424 113.474,97.6757 119.5,98.5 Z"/></g>
<g><path style="opacity:1" fill="#fd901e" d="M 159.5,98.5 C 161.5,98.5 163.5,98.5 165.5,98.5C 165.5,109.833 165.5,121.167 165.5,132.5C 163.167,132.5 160.833,132.5 158.5,132.5C 158.5,127.833 158.5,123.167 158.5,118.5C 153.167,118.5 147.833,118.5 142.5,118.5C 148.31,117.51 154.31,117.177 160.5,117.5C 160.5,122.167 160.5,126.833 160.5,131.5C 161.833,131.5 163.167,131.5 164.5,131.5C 164.5,121.167 164.5,110.833 164.5,100.5C 162.833,100.5 161.167,100.5 159.5,100.5C 159.815,104.371 159.482,108.038 158.5,111.5C 158.5,107.5 158.5,103.5 158.5,99.5C 158.5,98.8333 158.833,98.5 159.5,98.5 Z"/></g>
<g><path style="opacity:1" fill="#e42819" d="M 273.5,98.5 C 270.482,98.3354 267.482,98.502 264.5,99C 262.329,102.184 260.996,105.684 260.5,109.5C 257.135,116.572 254.135,123.906 251.5,131.5C 254.086,132.48 256.753,132.813 259.5,132.5C 259.472,130.418 260.139,128.584 261.5,127C 266.5,126.333 271.5,126.333 276.5,127C 277.631,131.613 280.631,133.447 285.5,132.5C 284.359,128.941 283.359,125.274 282.5,121.5C 284.067,122.681 284.901,124.347 285,126.5C 285.893,125.289 286.726,125.289 287.5,126.5C 286.41,127.609 286.41,128.609 287.5,129.5C 288.167,119.341 288.833,109.341 289.5,99.5C 289.5,110.5 289.5,121.5 289.5,132.5C 292.167,132.5 294.833,132.5 297.5,132.5C 295.7,134.05 293.533,135.05 291,135.5C 290,134.5 289,133.5 288,132.5C 284.545,133.791 281.045,133.791 277.5,132.5C 276.833,131.5 276.167,130.5 275.5,129.5C 270.88,128.507 266.214,128.173 261.5,128.5C 261.709,130.714 260.876,132.381 259,133.5C 254.437,135.468 250.77,134.468 248,130.5C 246.887,131.76 246.72,132.927 247.5,134C 245.246,135.15 242.913,135.484 240.5,135C 240.833,134.667 241.167,134.333 241.5,134C 238.5,133.667 235.5,133.333 232.5,133C 231.751,131.266 231.251,129.433 231,127.5C 228.894,129.291 226.394,129.958 223.5,129.5C 223.67,130.822 223.337,131.989 222.5,133C 219.304,133.805 216.304,133.638 213.5,132.5C 216.448,132.777 219.281,132.444 222,131.5C 223.547,124.304 225.547,117.304 228,110.5C 230.137,117.746 231.97,125.08 233.5,132.5C 236.167,132.5 238.833,132.5 241.5,132.5C 242.592,126.567 244.259,120.9 246.5,115.5C 245.982,120.212 245.482,124.879 245,129.5C 249.167,128.218 252.167,125.551 254,121.5C 254.882,117.973 254.382,117.307 252.5,119.5C 251.534,117.604 251.201,115.604 251.5,113.5C 252.552,113.649 253.552,113.483 254.5,113C 252.498,108.081 253.498,106.914 257.5,109.5C 258.528,107.56 258.528,105.56 257.5,103.5C 257.776,101.67 258.443,100.003 259.5,98.5C 264.083,97.4497 268.75,97.4497 273.5,98.5 Z"/></g>
<g><path style="opacity:1" fill="#f19f06" d="M 273.5,116.5 C 271.857,112.97 270.357,109.304 269,105.5C 266.609,110.284 264.776,115.284 263.5,120.5C 267.298,121.483 271.298,121.817 275.5,121.5C 275.5,122.5 275.5,123.5 275.5,124.5C 270.456,124.173 265.456,124.506 260.5,125.5C 259.248,127.001 258.248,128.668 257.5,130.5C 256.311,131.429 254.978,131.762 253.5,131.5C 255.117,125.604 257.283,119.937 260,114.5C 260.494,112.866 260.66,111.199 260.5,109.5C 262.097,108.263 263.263,106.596 264,104.5C 264.49,103.207 264.657,101.873 264.5,100.5C 267.448,100.223 270.281,100.556 273,101.5C 274.176,106.48 276.009,111.147 278.5,115.5C 277.564,119.128 275.898,119.461 273.5,116.5 Z"/></g>
<g><path style="opacity:1" fill="#e42917" d="M 273.5,116.5 C 273.5,117.833 273.5,119.167 273.5,120.5C 270.167,120.5 266.833,120.5 263.5,120.5C 264.776,115.284 266.609,110.284 269,105.5C 270.357,109.304 271.857,112.97 273.5,116.5 Z"/></g>
<g><path style="opacity:1" fill="#f1a104" d="M 353.5,99.5 C 355.167,99.5 356.833,99.5 358.5,99.5C 358.808,109.553 358.475,119.553 357.5,129.5C 356.672,130.415 355.672,131.081 354.5,131.5C 353.502,123.528 353.169,115.528 353.5,107.5C 351.857,107.48 350.524,108.147 349.5,109.5C 347.581,104.782 348.914,101.448 353.5,99.5 Z"/></g>
<g><path style="opacity:1" fill="#f39d0b" d="M 308.5,99.5 C 311.614,100.091 314.114,101.758 316,104.5C 318.075,111.511 315.908,116.677 309.5,120C 311.959,123.75 314.292,127.583 316.5,131.5C 313.833,132.833 311.167,132.833 308.5,131.5C 306.879,127.756 304.879,124.256 302.5,121C 300.866,120.506 299.199,120.34 297.5,120.5C 296.518,123.962 296.185,127.629 296.5,131.5C 294.5,131.5 292.5,131.5 290.5,131.5C 290.5,120.833 290.5,110.167 290.5,99.5C 296.5,99.5 302.5,99.5 308.5,99.5 Z"/></g>
<g><path style="opacity:1" fill="#f57b17" d="M 305.5,105.5 C 302.833,105.5 300.167,105.5 297.5,105.5C 297.5,108.167 297.5,110.833 297.5,113.5C 301.813,114.01 305.813,113.343 309.5,111.5C 309.489,113.017 308.823,114.184 307.5,115C 304.167,115.667 300.833,115.667 297.5,115C 296.544,111.606 296.211,108.106 296.5,104.5C 299.713,104.19 302.713,104.523 305.5,105.5 Z"/></g>
<g><path style="opacity:1" fill="#e42518" d="M 305.5,105.5 C 309.068,105.759 310.401,107.759 309.5,111.5C 305.813,113.343 301.813,114.01 297.5,113.5C 297.5,110.833 297.5,108.167 297.5,105.5C 300.167,105.5 302.833,105.5 305.5,105.5 Z"/></g>
<g><path style="opacity:1" fill="#fa8c1a" d="M 247.5,109.5 C 247.704,106.482 248.037,103.482 248.5,100.5C 247.022,100.238 245.689,100.571 244.5,101.5C 243.479,102.901 242.479,104.235 241.5,105.5C 241.674,103.139 242.007,100.806 242.5,98.5C 245.167,98.5 247.833,98.5 250.5,98.5C 249.945,102.397 248.945,106.063 247.5,109.5 Z"/></g>
<g><path style="opacity:1" fill="#a11d25" d="M 104.5,81.5 C 98.7772,88.2249 92.4439,94.2249 85.5,99.5C 91.2228,92.7751 97.5561,86.7751 104.5,81.5 Z"/></g>
<g><path style="opacity:1" fill="#d91f27" d="M 398.5,84.5 C 406.601,91.2625 413.601,98.9291 419.5,107.5C 415.494,103.827 411.494,100.16 407.5,96.5C 406.05,97.6554 405.05,99.1554 404.5,101C 403.552,101.483 402.552,101.649 401.5,101.5C 401.328,99.5082 401.995,97.8415 403.5,96.5C 402.24,95.6184 401.074,94.6184 400,93.5C 399.784,95.3839 399.117,97.0506 398,98.5C 398.95,95.6969 398.116,93.3636 395.5,91.5C 397.082,89.4229 398.082,87.0896 398.5,84.5 Z"/></g>
<g><path style="opacity:1" fill="#a62026" d="M 115.5,72.5 C 112.393,76.2153 108.727,79.2153 104.5,81.5C 107.607,77.7847 111.273,74.7847 115.5,72.5 Z"/></g>
<g><path style="opacity:1" fill="#d1202a" d="M 356.5,55.5 C 366.816,59.9901 376.149,65.9901 384.5,73.5C 379.808,70.6454 374.808,68.4787 369.5,67C 368.359,66.2588 368.359,65.4255 369.5,64.5C 368.975,63.8076 368.308,63.3076 367.5,63C 365.345,62.884 363.345,63.2173 361.5,64C 362.022,63.4387 362.355,62.772 362.5,62C 360.968,59.3047 358.968,57.138 356.5,55.5 Z"/></g>
<g><path style="opacity:1" fill="#c6212a" d="M 341.5,47.5 C 346.984,49.4068 351.984,52.0734 356.5,55.5C 351.194,54.3982 346.194,52.7315 341.5,50.5C 341.5,49.5 341.5,48.5 341.5,47.5 Z"/></g>
<g><path style="opacity:1" fill="#be2229" d="M 171.5,41.5 C 169.747,43.2225 167.747,44.7225 165.5,46C 158.956,48.0373 152.956,51.0373 147.5,55C 142.278,57.3743 136.945,59.541 131.5,61.5C 143.647,52.7596 156.981,46.0929 171.5,41.5 Z"/></g>
<g><path style="opacity:1" fill="#b52227" d="M 190.5,35.5 C 184.91,39.3248 178.576,41.3248 171.5,41.5C 177.4,38.436 183.733,36.436 190.5,35.5 Z"/></g>
<g><path style="opacity:1" fill="#b9232a" d="M 303.5,34.5 C 308.208,35.2419 312.875,36.2419 317.5,37.5C 318.713,37.7472 319.38,38.4138 319.5,39.5C 313.714,38.5674 308.381,36.9008 303.5,34.5 Z"/></g>
<g><path style="opacity:1" fill="#b8212a" d="M 214.5,29.5 C 213.942,30.7899 212.942,31.6232 211.5,32C 204.922,33.6778 198.255,34.8445 191.5,35.5C 198.778,32.4292 206.445,30.4292 214.5,29.5 Z"/></g>
<g><path style="opacity:1" fill="#c22329" d="M 281.5,29.5 C 288.601,30.3592 295.601,31.6925 302.5,33.5C 303.167,33.5 303.5,33.8333 303.5,34.5C 296.294,32.9707 288.961,32.304 281.5,32.5C 281.5,31.5 281.5,30.5 281.5,29.5 Z"/></g>
<g><path style="opacity:1" fill="#230200" d="M 302.5,33.5 C 295.601,31.6925 288.601,30.3592 281.5,29.5C 278.14,29.3841 274.807,29.0508 271.5,28.5C 255.672,27.3386 239.672,27.1719 223.5,28C 222.584,28.2784 221.918,28.7784 221.5,29.5C 220.167,29.5 218.833,29.5 217.5,29.5C 218.808,28.7677 220.142,27.9344 221.5,27C 244.899,25.8986 268.232,26.5652 291.5,29C 295.262,30.4166 298.928,31.9166 302.5,33.5 Z"/></g>
<g><path style="opacity:1" fill="#ad2126" d="M 271.5,28.5 C 254.816,28.2941 238.15,28.6274 221.5,29.5C 221.918,28.7784 222.584,28.2784 223.5,28C 239.672,27.1719 255.672,27.3386 271.5,28.5 Z"/></g>
<g><path style="opacity:1" fill="#0d0303" d="M 438.5,159.5 C 440.921,159.878 443.254,160.545 445.5,161.5C 446.167,162.5 446.833,163.5 447.5,164.5C 452.89,177.412 450.89,189.079 441.5,199.5C 439.167,201.167 437.167,203.167 435.5,205.5C 432.764,206.95 429.931,208.284 427,209.5C 426.877,213.679 427.71,217.679 429.5,221.5C 427.064,221.683 424.897,221.016 423,219.5C 419.836,215.205 418.67,210.538 419.5,205.5C 421.534,204.441 423.534,203.441 425.5,202.5C 430.104,200.895 433.438,197.895 435.5,193.5C 441.457,185.453 443.624,176.453 442,166.5C 441.347,163.861 440.18,161.527 438.5,159.5 Z"/></g>
<g><path style="opacity:0.004" fill="#fefffe" d="M 494.5,167.5 C 495.833,168.167 495.833,168.167 494.5,167.5 Z"/></g>
<g><path style="opacity:1" fill="#eeecec" d="M 438.5,159.5 C 440.18,161.527 441.347,163.861 442,166.5C 443.624,176.453 441.457,185.453 435.5,193.5C 432.141,196.529 428.808,199.529 425.5,202.5C 423.534,203.441 421.534,204.441 419.5,205.5C 418.67,210.538 419.836,215.205 423,219.5C 424.897,221.016 427.064,221.683 429.5,221.5C 430.167,221.5 430.833,221.5 431.5,221.5C 435.987,221.784 439.654,220.284 442.5,217C 449.399,215.673 450.566,217.173 446,221.5C 445.517,222.448 445.351,223.448 445.5,224.5C 437.72,233.718 427.72,238.052 415.5,237.5C 409.525,236.514 404.858,233.514 401.5,228.5C 396.675,218.04 394.675,207.04 395.5,195.5C 395.437,190.797 395.771,186.13 396.5,181.5C 398.346,178.46 399.679,175.127 400.5,171.5C 401.167,171.5 401.5,171.167 401.5,170.5C 406.791,162.667 414.124,157.5 423.5,155C 429.49,153.611 434.49,155.111 438.5,159.5 Z"/></g>
<g><path style="opacity:1" fill="#0c0707" d="M 429.5,167.5 C 425.416,175.252 423.749,183.586 424.5,192.5C 422.709,195.321 420.209,197.321 417,198.5C 416.333,190.833 416.333,183.167 417,175.5C 417.814,171.705 419.314,168.205 421.5,165C 425.344,162.457 428.01,163.29 429.5,167.5 Z"/></g>
<g><path style="opacity:1" fill="#110404" d="M 319.5,165.5 C 327.024,167.514 330.357,172.514 329.5,180.5C 327.359,183.472 324.692,185.972 321.5,188C 318.854,188.497 316.187,188.664 313.5,188.5C 311.833,187.167 310.167,185.833 308.5,184.5C 319.173,182.148 322.84,175.815 319.5,165.5 Z"/></g>
<g><path style="opacity:1" fill="#efebeb" d="M 319.5,165.5 C 322.84,175.815 319.173,182.148 308.5,184.5C 305.152,183.915 302.152,182.582 299.5,180.5C 297.519,175.75 297.019,170.75 298,165.5C 305.21,157.567 312.377,157.567 319.5,165.5 Z"/></g>
<g><path style="opacity:1" fill="#ce2931" d="M 400.5,171.5 C 399.679,175.127 398.346,178.46 396.5,181.5C 394.37,178.263 391.37,176.263 387.5,175.5C 386.167,174.833 385.167,173.833 384.5,172.5C 388.876,174.51 393.543,175.51 398.5,175.5C 398.157,173.517 398.824,172.183 400.5,171.5 Z"/></g>
<g><path style="opacity:1" fill="#de262b" d="M 429.5,181.5 C 429.768,183.099 429.434,184.432 428.5,185.5C 425.885,181.951 426.052,178.285 429,174.5C 429.497,176.81 429.663,179.143 429.5,181.5 Z"/></g>
<g><path style="opacity:1" fill="#130c0d" d="M 387.5,175.5 C 391.37,176.263 394.37,178.263 396.5,181.5C 395.771,186.13 395.437,190.797 395.5,195.5C 392.355,197.191 389.021,197.691 385.5,197C 384.695,195.887 384.028,194.721 383.5,193.5C 389.817,188.753 391.15,182.753 387.5,175.5 Z"/></g>
<g><path style="opacity:1" fill="#851b22" d="M 459.5,177.5 C 461.472,180.084 462.472,183.084 462.5,186.5C 460.69,183.855 459.69,180.855 459.5,177.5 Z"/></g>
<g><path style="opacity:1" fill="#b32328" d="M 41.5,171.5 C 41.2082,177.37 39.5415,182.703 36.5,187.5C 38.1687,182.105 39.8353,176.771 41.5,171.5 Z"/></g>
<g><path style="opacity:1" fill="#b82f31" d="M 429.5,167.5 C 430.833,172.167 430.833,176.833 429.5,181.5C 429.663,179.143 429.497,176.81 429,174.5C 426.052,178.285 425.885,181.951 428.5,185.5C 427.921,188.331 426.588,190.664 424.5,192.5C 423.749,183.586 425.416,175.252 429.5,167.5 Z"/></g>
<g><path style="opacity:1" fill="#ba393d" d="M 329.5,180.5 C 328.833,182.167 328.167,183.833 327.5,185.5C 323.485,186.478 322.152,188.812 323.5,192.5C 326.027,193.214 328.527,193.88 331,194.5C 331.498,197.482 331.665,200.482 331.5,203.5C 330.525,200.689 329.858,197.689 329.5,194.5C 327.139,194.674 324.806,195.007 322.5,195.5C 321.539,193.735 321.205,191.735 321.5,189.5C 320.041,189.433 318.708,189.766 317.5,190.5C 315.565,191.15 313.565,191.483 311.5,191.5C 312.263,190.732 313.263,190.232 314.5,190C 313.944,189.617 313.611,189.117 313.5,188.5C 316.187,188.664 318.854,188.497 321.5,188C 324.692,185.972 327.359,183.472 329.5,180.5 Z"/></g>
<g><path style="opacity:1" fill="#0b0304" d="M 369.5,187.5 C 369.369,188.376 369.702,189.043 370.5,189.5C 371.182,188.757 371.849,188.091 372.5,187.5C 373.974,188.436 374.974,189.77 375.5,191.5C 374.4,192.605 373.733,193.938 373.5,195.5C 371.613,196.768 370.613,198.601 370.5,201C 372.922,220.567 374.589,240.067 375.5,259.5C 371.714,259.32 368.381,260.32 365.5,262.5C 362.123,262.959 358.789,263.626 355.5,264.5C 355.5,262.5 355.5,260.5 355.5,258.5C 359.697,256.768 364.031,255.435 368.5,254.5C 366.6,235.666 364.6,216.833 362.5,198C 362.736,193.01 365.069,189.51 369.5,187.5 Z"/></g>
<g><path style="opacity:1" fill="#e0262d" d="M 299.5,180.5 C 302.152,182.582 305.152,183.915 308.5,184.5C 310.167,185.833 311.833,187.167 313.5,188.5C 313.611,189.117 313.944,189.617 314.5,190C 313.263,190.232 312.263,190.732 311.5,191.5C 308.52,193.051 305.353,194.384 302,195.5C 301.501,199.486 301.334,203.486 301.5,207.5C 301.5,210.5 301.5,213.5 301.5,216.5C 301.049,209.277 299.715,202.111 297.5,195C 298.793,194.51 300.127,194.343 301.5,194.5C 301.34,192.801 301.506,191.134 302,189.5C 302.333,189.833 302.667,190.167 303,190.5C 304.669,188.831 305.502,186.831 305.5,184.5C 302.446,184.646 300.446,183.313 299.5,180.5 Z"/></g>
<g><path style="opacity:1" fill="#e42229" d="M 360.5,177.5 C 354.522,178.408 348.856,180.074 343.5,182.5C 340.641,182.801 339.307,184.467 339.5,187.5C 340.681,195.462 341.348,203.462 341.5,211.5C 339.403,203.078 337.737,194.411 336.5,185.5C 335.833,186.833 335.167,188.167 334.5,189.5C 333.833,188.5 333.167,187.5 332.5,186.5C 331.92,188.637 330.92,190.47 329.5,192C 330.416,192.374 331.25,192.874 332,193.5C 332.508,200.88 333.342,208.214 334.5,215.5C 333.833,215.5 333.167,215.5 332.5,215.5C 331.517,211.702 331.183,207.702 331.5,203.5C 331.665,200.482 331.498,197.482 331,194.5C 328.527,193.88 326.027,193.214 323.5,192.5C 322.152,188.812 323.485,186.478 327.5,185.5C 327.343,186.873 327.51,188.207 328,189.5C 329.5,186 332,183.5 335.5,182C 341.69,181.385 347.19,179.218 352,175.5C 354.939,176.128 357.772,176.795 360.5,177.5 Z"/></g>
<g><path style="opacity:1" fill="#cd2a2e" d="M 447.5,164.5 C 449.044,164.703 450.378,165.37 451.5,166.5C 451.833,169.5 452.167,172.5 452.5,175.5C 452.234,181.98 451.4,188.314 450,194.5C 450.956,195.894 452.289,196.561 454,196.5C 456.137,195.923 458.304,195.59 460.5,195.5C 460.5,197.167 460.5,198.833 460.5,200.5C 461.833,200.5 463.167,200.5 464.5,200.5C 464.5,198.5 464.5,196.5 464.5,194.5C 465.797,196.693 465.797,199.027 464.5,201.5C 461.09,206.364 457.923,211.364 455,216.5C 453.621,218.715 451.787,220.381 449.5,221.5C 453.217,213.892 456.55,206.059 459.5,198C 458.423,196.457 457.089,196.457 455.5,198C 454.267,199.667 452.933,201.167 451.5,202.5C 450.866,195.892 448.533,194.726 444.5,199C 443.552,199.483 442.552,199.649 441.5,199.5C 450.89,189.079 452.89,177.412 447.5,164.5 Z"/></g>
<g><path style="opacity:1" fill="#b92128" d="M 36.5,187.5 C 35.8647,193.581 34.698,199.581 33,205.5C 32.6174,206.056 32.1174,206.389 31.5,206.5C 32.0987,199.766 33.7654,193.432 36.5,187.5 Z"/></g>
<g><path style="opacity:1" fill="#8b3b45" d="M 435.5,193.5 C 433.438,197.895 430.104,200.895 425.5,202.5C 428.808,199.529 432.141,196.529 435.5,193.5 Z"/></g>
<g><path style="opacity:1" fill="#fdd2d1" d="M 317.5,190.5 C 317.38,191.586 316.713,192.253 315.5,192.5C 311.226,194.143 306.893,195.477 302.5,196.5C 302.5,200.167 302.5,203.833 302.5,207.5C 302.167,207.5 301.833,207.5 301.5,207.5C 301.334,203.486 301.501,199.486 302,195.5C 305.353,194.384 308.52,193.051 311.5,191.5C 313.565,191.483 315.565,191.15 317.5,190.5 Z"/></g>
<g><path style="opacity:1" fill="#b72328" d="M 373.5,195.5 C 372.931,198.449 372.598,201.449 372.5,204.5C 373.909,221.512 375.575,238.512 377.5,255.5C 377.415,257.333 376.748,258.666 375.5,259.5C 374.589,240.067 372.922,220.567 370.5,201C 370.613,198.601 371.613,196.768 373.5,195.5 Z"/></g>
<g><path style="opacity:1" fill="#eeeded" d="M 384.5,172.5 C 385.167,173.833 386.167,174.833 387.5,175.5C 391.15,182.753 389.817,188.753 383.5,193.5C 380.467,193.868 377.8,193.202 375.5,191.5C 374.974,189.77 373.974,188.436 372.5,187.5C 371.5,186.167 370.5,186.167 369.5,187.5C 365.069,189.51 362.736,193.01 362.5,198C 364.6,216.833 366.6,235.666 368.5,254.5C 364.031,255.435 359.697,256.768 355.5,258.5C 354.041,258.433 352.708,258.766 351.5,259.5C 350.292,260.234 348.959,260.567 347.5,260.5C 347.477,258.073 346.977,255.74 346,253.5C 340.8,262.681 332.966,267.681 322.5,268.5C 320.833,268.5 319.167,268.5 317.5,268.5C 315.192,266.529 312.858,264.529 310.5,262.5C 308.829,258.851 307.496,255.184 306.5,251.5C 305.859,243.45 304.859,235.45 303.5,227.5C 303.388,220.82 303.054,214.153 302.5,207.5C 302.5,203.833 302.5,200.167 302.5,196.5C 306.893,195.477 311.226,194.143 315.5,192.5C 316.713,192.253 317.38,191.586 317.5,190.5C 318.708,189.766 320.041,189.433 321.5,189.5C 321.205,191.735 321.539,193.735 322.5,195.5C 324.167,212.17 326,228.837 328,245.5C 328.946,250.159 331.446,251.493 335.5,249.5C 338.669,248.998 341.002,247.331 342.5,244.5C 343.943,243.665 344.943,242.332 345.5,240.5C 345.833,238.333 346.167,236.167 346.5,234C 343.465,218.913 342.465,203.746 343.5,188.5C 342.675,187.614 341.675,187.281 340.5,187.5C 340.721,185.336 341.721,183.67 343.5,182.5C 348.856,180.074 354.522,178.408 360.5,177.5C 360.5,179.5 360.5,181.5 360.5,183.5C 360.737,187.289 361.404,187.289 362.5,183.5C 364.636,181.188 366.636,178.688 368.5,176C 373.095,171.59 378.428,170.423 384.5,172.5 Z"/></g>
<g><path style="opacity:1" fill="#0c0202" d="M 331.5,203.5 C 331.183,207.702 331.517,211.702 332.5,215.5C 332.966,221.491 333.299,227.491 333.5,233.5C 333.156,238.122 333.823,242.455 335.5,246.5C 335.5,247.5 335.5,248.5 335.5,249.5C 331.446,251.493 328.946,250.159 328,245.5C 326,228.837 324.167,212.17 322.5,195.5C 324.806,195.007 327.139,194.674 329.5,194.5C 329.858,197.689 330.525,200.689 331.5,203.5 Z"/></g>
<g><path style="opacity:1" fill="#963b4e" d="M 372.5,187.5 C 371.849,188.091 371.182,188.757 370.5,189.5C 369.702,189.043 369.369,188.376 369.5,187.5C 370.5,186.167 371.5,186.167 372.5,187.5 Z"/></g>
<g><path style="opacity:1" fill="#646462" d="M 360.5,183.5 C 361.167,183.5 361.833,183.5 362.5,183.5C 361.404,187.289 360.737,187.289 360.5,183.5 Z"/></g>
<g><path style="opacity:1" fill="#fccbc7" d="M 253.5,210.5 C 252.596,209.791 252.263,208.791 252.5,207.5C 247.672,209.29 242.672,210.29 237.5,210.5C 242.704,208.53 248.038,206.864 253.5,205.5C 253.5,207.167 253.5,208.833 253.5,210.5 Z"/></g>
<g><path style="opacity:1" fill="#ec1b24" d="M 341.5,211.5 C 342.259,221.16 342.426,230.826 342,240.5C 341,244.5 340,244.5 339,240.5C 338.667,240.833 338.333,241.167 338,241.5C 337.501,236.845 337.334,232.179 337.5,227.5C 336.5,227.5 335.5,227.5 334.5,227.5C 334.5,223.5 334.5,219.5 334.5,215.5C 333.342,208.214 332.508,200.88 332,193.5C 331.25,192.874 330.416,192.374 329.5,192C 330.92,190.47 331.92,188.637 332.5,186.5C 333.167,187.5 333.833,188.5 334.5,189.5C 335.167,188.167 335.833,186.833 336.5,185.5C 337.737,194.411 339.403,203.078 341.5,211.5 Z"/></g>
<g><path style="opacity:1" fill="#e71f25" d="M 451.5,202.5 C 449.653,209.181 445.653,214.181 439.5,217.5C 436.336,217.558 433.336,218.224 430.5,219.5C 429.491,216.473 429.491,213.473 430.5,210.5C 432.134,210.968 433.3,211.968 434,213.5C 434.711,211.633 434.211,210.133 432.5,209C 433.448,208.517 434.448,208.351 435.5,208.5C 435.5,207.5 435.5,206.5 435.5,205.5C 437.167,203.167 439.167,201.167 441.5,199.5C 442.552,199.649 443.552,199.483 444.5,199C 448.533,194.726 450.866,195.892 451.5,202.5 Z"/></g>
<g><path style="opacity:1" fill="#d0232c" d="M 279.5,204.5 C 281.527,204.338 283.527,204.505 285.5,205C 287.805,208.032 290.638,208.865 294,207.5C 296.897,210.627 298.73,214.294 299.5,218.5C 296.661,214 292.661,211 287.5,209.5C 285.1,207.306 282.434,205.639 279.5,204.5 Z"/></g>
<g><path style="opacity:1" fill="#ec1b24" d="M 373.5,195.5 C 376.518,195.335 379.518,195.502 382.5,196C 383.476,198.142 385.143,199.308 387.5,199.5C 389.453,198.844 391.453,198.511 393.5,198.5C 393.631,208.551 395.464,218.218 399,227.5C 399.671,228.252 400.504,228.586 401.5,228.5C 404.858,233.514 409.525,236.514 415.5,237.5C 415.5,238.167 415.5,238.833 415.5,239.5C 416.347,240.966 417.68,241.8 419.5,242C 425.167,242.667 430.833,242.667 436.5,242C 437.571,241.148 438.571,240.315 439.5,239.5C 442.766,239.371 445.766,238.371 448.5,236.5C 452.977,232.369 456.644,227.703 459.5,222.5C 460.458,222.047 461.292,221.381 462,220.5C 463.231,217.039 464.731,213.706 466.5,210.5C 467.132,213.102 468.132,215.436 469.5,217.5C 469.5,218.5 469.5,219.5 469.5,220.5C 471.217,241.572 470.717,262.572 468,283.5C 465.04,295.529 462.207,307.529 459.5,319.5C 459.5,320.5 459.5,321.5 459.5,322.5C 455.032,327.654 452.365,333.654 451.5,340.5C 451.5,340.833 451.5,341.167 451.5,341.5C 449.742,343.141 448.242,345.141 447,347.5C 446.51,348.793 446.343,350.127 446.5,351.5C 443.772,354.081 441.438,357.081 439.5,360.5C 438.604,364.347 436.937,367.68 434.5,370.5C 433.5,370.5 432.5,370.5 431.5,370.5C 431.5,372.167 431.5,373.833 431.5,375.5C 427.486,376.543 425.82,379.209 426.5,383.5C 424.073,383.523 421.74,384.023 419.5,385C 420.308,385.308 420.975,385.808 421.5,386.5C 417.786,387.314 416.119,389.981 416.5,394.5C 414.833,394.5 413.167,394.5 411.5,394.5C 411.5,396.167 411.5,397.833 411.5,399.5C 409.833,399.5 408.167,399.5 406.5,399.5C 406.662,401.527 406.495,403.527 406,405.5C 404.519,406.471 403.685,407.804 403.5,409.5C 399.128,413.874 394.461,417.874 389.5,421.5C 385.759,420.599 383.759,421.932 383.5,425.5C 379.772,425.156 376.105,424.49 372.5,423.5C 371.703,426.41 372.703,428.743 375.5,430.5C 375,430.833 374.5,431.167 374,431.5C 369.345,427.34 368.178,428.006 370.5,433.5C 366.628,437.182 362.128,439.849 357,441.5C 355.056,440.561 353.389,439.227 352,437.5C 351.102,439.626 349.935,441.626 348.5,443.5C 348.833,444.167 349.167,444.833 349.5,445.5C 346.262,446.962 342.929,448.129 339.5,449C 339.833,449.333 340.167,449.667 340.5,450C 338.654,451.03 336.987,452.196 335.5,453.5C 331.111,454.403 327.111,456.069 323.5,458.5C 314.593,462.29 305.26,464.956 295.5,466.5C 279.597,468.855 263.597,470.188 247.5,470.5C 234.206,469.401 220.873,468.401 207.5,467.5C 197.068,466.06 187.068,463.394 177.5,459.5C 172.312,456.925 166.978,454.425 161.5,452C 160.207,451.51 158.873,451.343 157.5,451.5C 154.088,450.958 151.088,449.625 148.5,447.5C 148.489,445.983 147.823,444.816 146.5,444C 142.6,442.435 138.934,440.435 135.5,438C 134.207,437.51 132.873,437.343 131.5,437.5C 124.881,433.851 118.548,429.685 112.5,425C 108.969,421.967 105.635,418.8 102.5,415.5C 100.1,412.097 97.1002,409.43 93.5,407.5C 80.9639,395.634 70.2973,382.301 61.5,367.5C 60.9148,363.605 59.5814,359.938 57.5,356.5C 58.0402,355.252 58.7069,354.085 59.5,353C 57.6362,351.594 55.8029,351.094 54,351.5C 51.0932,344.452 47.5932,337.786 43.5,331.5C 43.3225,327.498 42.3225,323.831 40.5,320.5C 40.3184,318.409 40.6518,316.409 41.5,314.5C 42.325,313.614 43.325,313.281 44.5,313.5C 45.176,309.813 46.676,306.48 49,303.5C 49.3333,306.5 49.6667,309.5 50,312.5C 50.4505,315.106 51.9505,316.439 54.5,316.5C 56.3076,318.881 57.8076,321.548 59,324.5C 59.7589,326.063 60.9256,327.063 62.5,327.5C 63.1667,327.5 63.8333,327.5 64.5,327.5C 65.6532,330.47 67.3199,333.137 69.5,335.5C 72.7689,340.766 77.4356,344.099 83.5,345.5C 83.5,346.5 83.5,347.5 83.5,348.5C 93.6067,351.42 103.607,351.087 113.5,347.5C 113.863,346.817 114.196,346.15 114.5,345.5C 115.514,344.326 116.847,343.66 118.5,343.5C 122.363,342.306 125.363,339.973 127.5,336.5C 127.5,336.167 127.5,335.833 127.5,335.5C 130.234,333.45 133.234,331.784 136.5,330.5C 139.085,331.073 140.085,332.739 139.5,335.5C 141.698,335.88 143.365,335.213 144.5,333.5C 150.136,332.172 155.802,330.838 161.5,329.5C 163.021,324.256 162.687,319.256 160.5,314.5C 160.626,305.491 160.959,296.491 161.5,287.5C 162.5,287.5 163.5,287.5 164.5,287.5C 164.5,288.167 164.5,288.833 164.5,289.5C 164.334,295.176 164.501,300.843 165,306.5C 165.108,310.465 165.941,314.132 167.5,317.5C 167.735,318.097 168.235,318.43 169,318.5C 171.047,317.391 173.213,316.724 175.5,316.5C 175.5,318.167 175.5,319.833 175.5,321.5C 176.334,322.748 177.667,323.415 179.5,323.5C 182.006,323.779 184.006,322.946 185.5,321C 188.601,321.042 190.934,319.875 192.5,317.5C 192.833,317.5 193.167,317.5 193.5,317.5C 195.099,317.768 196.432,317.434 197.5,316.5C 198.602,307.516 198.602,298.516 197.5,289.5C 198.519,290.687 199.686,291.687 201,292.5C 201.535,297.371 201.201,301.371 200,304.5C 202.381,305.435 204.881,305.768 207.5,305.5C 207.5,304.167 207.5,302.833 207.5,301.5C 210.843,302.619 214.177,303.952 217.5,305.5C 218.711,306.274 218.711,307.107 217.5,308C 222.02,308.814 226.354,308.647 230.5,307.5C 233.844,306.492 237.177,305.492 240.5,304.5C 241.871,313.438 242.705,322.438 243,331.5C 243.278,332.416 243.778,333.082 244.5,333.5C 245.167,333.5 245.833,333.5 246.5,333.5C 248.117,332.962 249.784,332.629 251.5,332.5C 251.5,334.167 251.5,335.833 251.5,337.5C 253.099,337.768 254.432,337.434 255.5,336.5C 259.754,334.534 263.754,332.2 267.5,329.5C 269.262,329.643 270.929,329.309 272.5,328.5C 272.833,325.667 273.167,322.833 273.5,320C 273.714,315.867 273.048,312.034 271.5,308.5C 271.5,306.167 271.5,303.833 271.5,301.5C 271.5,298.167 271.5,294.833 271.5,291.5C 274.385,291.806 277.052,291.473 279.5,290.5C 284.696,290.683 289.029,289.017 292.5,285.5C 295.436,283.745 298.269,281.745 301,279.5C 301.49,278.207 301.657,276.873 301.5,275.5C 304.893,272.013 306.559,267.68 306.5,262.5C 307.833,262.5 309.167,262.5 310.5,262.5C 312.858,264.529 315.192,266.529 317.5,268.5C 323.44,273.861 330.44,275.695 338.5,274C 340.692,272.933 342.358,271.433 343.5,269.5C 343.973,268.094 344.973,267.427 346.5,267.5C 349.407,266.266 351.741,264.266 353.5,261.5C 354.429,262.689 354.762,264.022 354.5,265.5C 358.534,265.483 362.201,264.483 365.5,262.5C 368.381,260.32 371.714,259.32 375.5,259.5C 376.748,258.666 377.415,257.333 377.5,255.5C 375.575,238.512 373.909,221.512 372.5,204.5C 372.598,201.449 372.931,198.449 373.5,195.5 Z"/></g>
<g><path style="opacity:1" fill="#a52128" d="M 468.5,210.5 C 468.993,212.806 469.326,215.139 469.5,217.5C 468.132,215.436 467.132,213.102 466.5,210.5C 464.731,213.706 463.231,217.039 462,220.5C 461.292,221.381 460.458,222.047 459.5,222.5C 461.826,217.179 464.159,211.846 466.5,206.5C 468.111,207.32 468.778,208.654 468.5,210.5 Z"/></g>
<g><path style="opacity:1" fill="#f7e1e3" d="M 449.5,221.5 C 448.167,222.5 446.833,223.5 445.5,224.5C 445.351,223.448 445.517,222.448 446,221.5C 450.566,217.173 449.399,215.673 442.5,217C 439.654,220.284 435.987,221.784 431.5,221.5C 434.254,220.359 436.921,219.025 439.5,217.5C 445.653,214.181 449.653,209.181 451.5,202.5C 452.933,201.167 454.267,199.667 455.5,198C 457.089,196.457 458.423,196.457 459.5,198C 456.55,206.059 453.217,213.892 449.5,221.5 Z"/></g>
<g><path style="opacity:1" fill="#d23c3e" d="M 375.5,191.5 C 377.8,193.202 380.467,193.868 383.5,193.5C 384.028,194.721 384.695,195.887 385.5,197C 389.021,197.691 392.355,197.191 395.5,195.5C 394.675,207.04 396.675,218.04 401.5,228.5C 400.504,228.586 399.671,228.252 399,227.5C 395.464,218.218 393.631,208.551 393.5,198.5C 391.453,198.511 389.453,198.844 387.5,199.5C 385.143,199.308 383.476,198.142 382.5,196C 379.518,195.502 376.518,195.335 373.5,195.5C 373.733,193.938 374.4,192.605 375.5,191.5 Z"/></g>
<g><path style="opacity:1" fill="#fddadb" d="M 343.5,182.5 C 341.721,183.67 340.721,185.336 340.5,187.5C 341.675,187.281 342.675,187.614 343.5,188.5C 342.465,203.746 343.465,218.913 346.5,234C 346.167,236.167 345.833,238.333 345.5,240.5C 344.943,242.332 343.943,243.665 342.5,244.5C 343.783,241.31 344.45,237.976 344.5,234.5C 344.099,226.609 343.099,218.942 341.5,211.5C 341.348,203.462 340.681,195.462 339.5,187.5C 339.307,184.467 340.641,182.801 343.5,182.5 Z"/></g>
<g><path style="opacity:1" fill="#cd252c" d="M 435.5,205.5 C 435.5,206.5 435.5,207.5 435.5,208.5C 434.448,208.351 433.448,208.517 432.5,209C 434.211,210.133 434.711,211.633 434,213.5C 433.3,211.968 432.134,210.968 430.5,210.5C 429.491,213.473 429.491,216.473 430.5,219.5C 433.336,218.224 436.336,217.558 439.5,217.5C 436.921,219.025 434.254,220.359 431.5,221.5C 430.833,221.5 430.167,221.5 429.5,221.5C 427.71,217.679 426.877,213.679 427,209.5C 429.931,208.284 432.764,206.95 435.5,205.5 Z"/></g>
<g><path style="opacity:1" fill="#fed8d9" d="M 237.5,210.5 C 236.653,211.966 235.32,212.8 233.5,213C 235.811,229.496 237.478,245.996 238.5,262.5C 238.333,267.5 238.167,272.5 238,277.5C 237.502,279.544 236.335,280.878 234.5,281.5C 235.73,279.703 236.396,277.703 236.5,275.5C 237.962,263.404 237.295,251.404 234.5,239.5C 234.5,239.167 234.5,238.833 234.5,238.5C 233.954,229.49 233.287,220.49 232.5,211.5C 234.216,211.371 235.883,211.038 237.5,210.5 Z"/></g>
<g><path style="opacity:1" fill="#eeeded" d="M 279.5,204.5 C 282.434,205.639 285.1,207.306 287.5,209.5C 295.185,220.901 298.852,233.568 298.5,247.5C 299.542,266.591 291.209,279.425 273.5,286C 269.428,286.956 265.595,286.456 262,284.5C 262.439,294.829 263.272,305.162 264.5,315.5C 264.167,317.833 263.833,320.167 263.5,322.5C 260.1,324.856 256.767,327.189 253.5,329.5C 250.669,330.079 248.336,331.412 246.5,333.5C 245.833,333.5 245.167,333.5 244.5,333.5C 243.973,323.445 242.973,313.445 241.5,303.5C 240.911,298.519 240.411,293.519 240,288.5C 235.296,297.605 227.796,302.271 217.5,302.5C 215.302,302.88 213.635,302.213 212.5,300.5C 209.798,297.482 207.298,294.149 205,290.5C 203.392,281.122 201.892,271.789 200.5,262.5C 200.672,261.508 200.338,260.842 199.5,260.5C 199.841,256.84 199.175,253.507 197.5,250.5C 196.57,246.907 194.237,245.241 190.5,245.5C 187.833,246.167 186.167,247.833 185.5,250.5C 184.369,253.361 183.702,256.361 183.5,259.5C 185.63,277.129 187.296,294.796 188.5,312.5C 184.031,313.435 179.697,314.768 175.5,316.5C 173.338,315.583 171.005,315.583 168.5,316.5C 167.695,304.863 166.862,293.197 166,281.5C 165.617,280.944 165.117,280.611 164.5,280.5C 163.912,277.39 163.245,274.39 162.5,271.5C 162.81,268.287 162.477,265.287 161.5,262.5C 159.679,255.835 156.179,254.835 151,259.5C 149.725,261.717 148.725,264.051 148,266.5C 149.699,285.465 151.033,304.465 152,323.5C 148.272,325.131 144.439,326.465 140.5,327.5C 137.63,328.634 134.63,329.3 131.5,329.5C 131.81,326.287 131.477,323.287 130.5,320.5C 130.784,318.585 130.451,316.919 129.5,315.5C 127.926,315.937 126.759,316.937 126,318.5C 125.833,317.833 125.667,317.167 125.5,316.5C 127.522,313.476 128.522,310.143 128.5,306.5C 128.5,306.167 128.5,305.833 128.5,305.5C 129.794,303.952 130.461,301.952 130.5,299.5C 127.963,284.252 126.797,268.919 127,253.5C 129.63,253.141 131.797,252.141 133.5,250.5C 138.118,249.924 142.285,250.924 146,253.5C 149.5,250 153,246.5 156.5,243C 161.003,241.22 165.67,240.387 170.5,240.5C 173.022,241.011 175.355,242.011 177.5,243.5C 178.754,247.31 179.754,247.31 180.5,243.5C 183.859,236.808 188.859,231.808 195.5,228.5C 202.801,227.186 209.134,228.853 214.5,233.5C 216.479,237.6 217.979,241.934 219,246.5C 220.109,255.796 220.776,265.13 221,274.5C 221.536,278.19 223.036,281.356 225.5,284C 227.387,284.78 229.054,284.613 230.5,283.5C 232.062,283.267 233.395,282.6 234.5,281.5C 236.335,280.878 237.502,279.544 238,277.5C 238.167,272.5 238.333,267.5 238.5,262.5C 237.478,245.996 235.811,229.496 233.5,213C 235.32,212.8 236.653,211.966 237.5,210.5C 242.672,210.29 247.672,209.29 252.5,207.5C 252.263,208.791 252.596,209.791 253.5,210.5C 253.5,211.167 253.833,211.5 254.5,211.5C 254.343,212.873 254.51,214.207 255,215.5C 256.707,213.963 258.207,212.296 259.5,210.5C 265.242,205.64 271.909,203.64 279.5,204.5 Z"/></g>
<g><path style="opacity:1" fill="#0c0506" d="M 271.5,223.5 C 270.508,223.328 269.842,223.662 269.5,224.5C 268.504,224.414 267.671,224.748 267,225.5C 265.266,228.298 264.099,231.298 263.5,234.5C 264.18,241.689 265.18,248.689 266.5,255.5C 266.211,261.591 266.545,267.591 267.5,273.5C 264.694,275.17 262.194,274.837 260,272.5C 259.027,258.106 257.527,243.773 255.5,229.5C 256.35,222.138 260.35,218.638 267.5,219C 269.751,219.748 271.084,221.248 271.5,223.5 Z"/></g>
<g><path style="opacity:1" fill="#2b1816" d="M 259.5,210.5 C 258.207,212.296 256.707,213.963 255,215.5C 254.51,214.207 254.343,212.873 254.5,211.5C 256.216,211.371 257.883,211.038 259.5,210.5 Z"/></g>
<g><path style="opacity:1" fill="#c23a40" d="M 301.5,207.5 C 301.833,207.5 302.167,207.5 302.5,207.5C 303.054,214.153 303.388,220.82 303.5,227.5C 302.02,224.612 300.687,221.612 299.5,218.5C 300.833,218.5 301.5,217.833 301.5,216.5C 301.5,213.5 301.5,210.5 301.5,207.5 Z"/></g>
<g><path style="opacity:1" fill="#de2d33" d="M 105.5,225.5 C 81.1064,221.033 67.1064,231.199 63.5,256C 63.7441,259.186 64.0774,262.353 64.5,265.5C 63.7784,265.082 63.2784,264.416 63,263.5C 62.3333,258.5 62.3333,253.5 63,248.5C 64.983,243.295 67.1497,238.295 69.5,233.5C 68.7552,231.253 67.4219,229.419 65.5,228C 65.6448,227.228 65.9781,226.561 66.5,226C 69.9257,224.762 71.5923,225.929 71.5,229.5C 72.8333,229.5 74.1667,229.5 75.5,229.5C 75.5,228.167 75.5,226.833 75.5,225.5C 77.8333,225.5 80.1667,225.5 82.5,225.5C 82.5,224.5 82.5,223.5 82.5,222.5C 88.8421,222.334 95.1754,222.5 101.5,223C 103.32,223.2 104.653,224.034 105.5,225.5 Z"/></g>
<g><path style="opacity:1" fill="#bf2d32" d="M 105.5,225.5 C 108.772,226.758 112.106,227.925 115.5,229C 116.252,229.671 116.586,230.504 116.5,231.5C 114.02,230.758 111.687,229.758 109.5,228.5C 107.77,227.974 106.436,226.974 105.5,225.5 Z"/></g>
<g><path style="opacity:1" fill="#e0262a" d="M 236.5,272.5 C 236.5,273.5 236.5,274.5 236.5,275.5C 236.396,277.703 235.73,279.703 234.5,281.5C 233.395,282.6 232.062,283.267 230.5,283.5C 229.627,279.232 229.294,274.898 229.5,270.5C 229.904,265.217 229.238,260.217 227.5,255.5C 227.483,247.573 224.817,240.74 219.5,235C 217.975,233.991 216.308,233.491 214.5,233.5C 209.134,228.853 202.801,227.186 195.5,228.5C 197.462,226.983 199.795,226.316 202.5,226.5C 204.709,226.604 206.876,226.937 209,227.5C 210.974,225.628 213.141,225.295 215.5,226.5C 213.711,227.623 213.378,228.956 214.5,230.5C 216.071,229.691 217.738,229.357 219.5,229.5C 219.5,230.5 219.5,231.5 219.5,232.5C 220.5,232.5 221.5,232.5 222.5,232.5C 222.33,231.178 222.663,230.011 223.5,229C 222.241,228.077 220.908,227.243 219.5,226.5C 221.287,225.684 222.954,224.684 224.5,223.5C 225.36,227.701 226.36,231.868 227.5,236C 227.26,238.016 226.926,240.016 226.5,242C 227.933,245.698 228.766,249.532 229,253.5C 229.667,252.167 230.333,252.167 231,253.5C 231.638,254.609 232.138,255.775 232.5,257C 230.427,260.33 230.094,263.83 231.5,267.5C 232.192,266.975 232.692,266.308 233,265.5C 233.497,267.81 233.663,270.143 233.5,272.5C 234.5,272.5 235.5,272.5 236.5,272.5 Z"/></g>
<g><path style="opacity:1" fill="#ce393d" d="M 232.5,211.5 C 233.287,220.49 233.954,229.49 234.5,238.5C 232.889,231.063 231.889,223.396 231.5,215.5C 231.511,213.955 231.844,212.622 232.5,211.5 Z"/></g>
<g><path style="opacity:1" fill="#0f0707" d="M 100.5,237.5 C 97.6874,237.025 95.6874,238.025 94.5,240.5C 92.187,242.209 90.687,244.543 90,247.5C 88.6483,255.747 90.4816,263.08 95.5,269.5C 95.5,270.167 95.5,270.833 95.5,271.5C 88.3519,268.51 83.8519,263.177 82,255.5C 79.5419,245.86 82.3752,238.36 90.5,233C 95.3075,231.574 98.6408,233.074 100.5,237.5 Z"/></g>
<g><path style="opacity:1" fill="#0f0404" d="M 109.5,228.5 C 111.687,229.758 114.02,230.758 116.5,231.5C 116.833,232.5 117.5,233.167 118.5,233.5C 119.11,234.391 119.443,235.391 119.5,236.5C 120.811,241.061 121.478,245.728 121.5,250.5C 121.5,251.167 121.5,251.833 121.5,252.5C 118.979,258.857 114.813,260.524 109,257.5C 108.53,256.423 108.697,255.423 109.5,254.5C 116.022,245.933 116.022,237.266 109.5,228.5 Z"/></g>
<g><path style="opacity:1" fill="#100606" d="M 214.5,233.5 C 216.308,233.491 217.975,233.991 219.5,235C 224.817,240.74 227.483,247.573 227.5,255.5C 227.302,260.75 227.969,265.75 229.5,270.5C 229.294,274.898 229.627,279.232 230.5,283.5C 229.054,284.613 227.387,284.78 225.5,284C 223.036,281.356 221.536,278.19 221,274.5C 220.776,265.13 220.109,255.796 219,246.5C 217.979,241.934 216.479,237.6 214.5,233.5 Z"/></g>
<g><path style="opacity:1" fill="#d82d32" d="M 341.5,211.5 C 343.099,218.942 344.099,226.609 344.5,234.5C 344.45,237.976 343.783,241.31 342.5,244.5C 341.002,247.331 338.669,248.998 335.5,249.5C 335.5,248.5 335.5,247.5 335.5,246.5C 335.562,241.924 334.895,237.591 333.5,233.5C 333.299,227.491 332.966,221.491 332.5,215.5C 333.167,215.5 333.833,215.5 334.5,215.5C 334.5,219.5 334.5,223.5 334.5,227.5C 335.5,227.5 336.5,227.5 337.5,227.5C 337.334,232.179 337.501,236.845 338,241.5C 338.333,241.167 338.667,240.833 339,240.5C 340,244.5 341,244.5 342,240.5C 342.426,230.826 342.259,221.16 341.5,211.5 Z"/></g>
<g><path style="opacity:1" fill="#ec1b24" d="M 269.5,224.5 C 271.959,226.052 273.459,228.385 274,231.5C 274.26,238.173 275.093,244.673 276.5,251C 276.243,254.848 275.909,258.682 275.5,262.5C 274.494,265.816 272.494,268.483 269.5,270.5C 268.543,258.453 267.21,246.453 265.5,234.5C 266.439,230.933 267.772,227.6 269.5,224.5 Z"/></g>
<g><path style="opacity:1" fill="#b22029" d="M 459.5,222.5 C 456.644,227.703 452.977,232.369 448.5,236.5C 445.766,238.371 442.766,239.371 439.5,239.5C 447.366,235.305 454.033,229.638 459.5,222.5 Z"/></g>
<g><path style="opacity:1" fill="#d9353b" d="M 195.5,228.5 C 188.859,231.808 183.859,236.808 180.5,243.5C 179.5,243.5 178.5,243.5 177.5,243.5C 175.355,242.011 173.022,241.011 170.5,240.5C 169.207,239.842 167.707,239.508 166,239.5C 162.459,240.025 158.959,240.692 155.5,241.5C 155.62,240.414 156.287,239.747 157.5,239.5C 162.467,238.439 167.467,238.272 172.5,239C 179.006,244.609 182.006,243.109 181.5,234.5C 182.833,234.5 184.167,234.5 185.5,234.5C 185.421,233.07 185.754,231.736 186.5,230.5C 189.391,229.322 192.391,228.655 195.5,228.5 Z"/></g>
<g><path style="opacity:1" fill="#210000" d="M 468.5,210.5 C 470.077,214.242 471.244,218.242 472,222.5C 472.667,239.833 472.667,257.167 472,274.5C 471.617,275.056 471.117,275.389 470.5,275.5C 471.104,267.025 471.438,258.525 471.5,250C 471.711,239.95 471.045,230.116 469.5,220.5C 469.5,219.5 469.5,218.5 469.5,217.5C 469.326,215.139 468.993,212.806 468.5,210.5 Z"/></g>
<g><path style="opacity:1" fill="#d33637" d="M 269.5,224.5 C 269.842,223.662 270.508,223.328 271.5,223.5C 272.117,223.611 272.617,223.944 273,224.5C 277.826,237.056 278.659,249.722 275.5,262.5C 275.909,258.682 276.243,254.848 276.5,251C 275.093,244.673 274.26,238.173 274,231.5C 273.459,228.385 271.959,226.052 269.5,224.5 Z"/></g>
<g><path style="opacity:1" fill="#4b070d" d="M 333.5,233.5 C 334.895,237.591 335.562,241.924 335.5,246.5C 333.823,242.455 333.156,238.122 333.5,233.5 Z"/></g>
<g><path style="opacity:1" fill="#b9232b" d="M 415.5,239.5 C 419.077,240.579 422.744,241.246 426.5,241.5C 430.867,240.991 435.201,240.324 439.5,239.5C 438.571,240.315 437.571,241.148 436.5,242C 430.833,242.667 425.167,242.667 419.5,242C 417.68,241.8 416.347,240.966 415.5,239.5 Z"/></g>
<g><path style="opacity:1" fill="#411a19" d="M 177.5,243.5 C 178.5,243.5 179.5,243.5 180.5,243.5C 179.754,247.31 178.754,247.31 177.5,243.5 Z"/></g>
<g><path style="opacity:1" fill="#df252a" d="M 118.5,233.5 C 120.567,233.532 121.9,234.532 122.5,236.5C 124.066,240.693 124.732,245.026 124.5,249.5C 127.522,249.196 130.522,248.696 133.5,248C 132.167,247.667 130.833,247.333 129.5,247C 133.129,246.096 136.629,244.929 140,243.5C 145.456,244.935 150.623,244.268 155.5,241.5C 152.522,244.813 149.522,248.147 146.5,251.5C 145.548,249.955 145.215,248.288 145.5,246.5C 141.085,246.861 137.085,248.194 133.5,250.5C 130.833,250.833 128.167,251.167 125.5,251.5C 123.902,249.143 122.902,246.477 122.5,243.5C 122.241,240.728 121.241,238.395 119.5,236.5C 119.443,235.391 119.11,234.391 118.5,233.5 Z"/></g>
<g><path style="opacity:1" fill="#98343f" d="M 190.5,245.5 C 190.108,247.179 189.608,248.846 189,250.5C 187.855,251.684 186.688,251.684 185.5,250.5C 186.167,247.833 187.833,246.167 190.5,245.5 Z"/></g>
<g><path style="opacity:1" fill="#b12028" d="M 469.5,220.5 C 471.045,230.116 471.711,239.95 471.5,250C 471.438,258.525 471.104,267.025 470.5,275.5C 468.671,290.818 465.004,305.484 459.5,319.5C 462.207,307.529 465.04,295.529 468,283.5C 470.717,262.572 471.217,241.572 469.5,220.5 Z"/></g>
<g><path style="opacity:1" fill="#360401" d="M 119.5,236.5 C 121.241,238.395 122.241,240.728 122.5,243.5C 122.802,246.059 122.468,248.393 121.5,250.5C 121.478,245.728 120.811,241.061 119.5,236.5 Z"/></g>
<g><path style="opacity:1" fill="#fbdadc" d="M 170.5,240.5 C 165.67,240.387 161.003,241.22 156.5,243C 153,246.5 149.5,250 146,253.5C 142.285,250.924 138.118,249.924 133.5,250.5C 137.085,248.194 141.085,246.861 145.5,246.5C 145.215,248.288 145.548,249.955 146.5,251.5C 149.522,248.147 152.522,244.813 155.5,241.5C 158.959,240.692 162.459,240.025 166,239.5C 167.707,239.508 169.207,239.842 170.5,240.5 Z"/></g>
<g><path style="opacity:1" fill="#c4252c" d="M 269.5,224.5 C 267.772,227.6 266.439,230.933 265.5,234.5C 267.21,246.453 268.543,258.453 269.5,270.5C 272.494,268.483 274.494,265.816 275.5,262.5C 275.645,266.547 273.978,269.547 270.5,271.5C 269.5,271.5 268.5,271.5 267.5,271.5C 267.821,265.974 267.488,260.64 266.5,255.5C 265.18,248.689 264.18,241.689 263.5,234.5C 264.099,231.298 265.266,228.298 267,225.5C 267.671,224.748 268.504,224.414 269.5,224.5 Z"/></g>
<g><path style="opacity:1" fill="#0e0404" d="M 190.5,245.5 C 194.237,245.241 196.57,246.907 197.5,250.5C 195.469,251.539 194.136,253.205 193.5,255.5C 190.906,262.159 190.906,268.826 193.5,275.5C 193.5,277.833 193.5,280.167 193.5,282.5C 193.608,287.71 194.275,292.71 195.5,297.5C 195.5,299.5 195.5,301.5 195.5,303.5C 196.08,307.81 196.414,312.143 196.5,316.5C 195.209,316.263 194.209,316.596 193.5,317.5C 193.167,317.5 192.833,317.5 192.5,317.5C 186.92,319.312 181.253,320.645 175.5,321.5C 175.5,319.833 175.5,318.167 175.5,316.5C 179.697,314.768 184.031,313.435 188.5,312.5C 187.296,294.796 185.63,277.129 183.5,259.5C 183.702,256.361 184.369,253.361 185.5,250.5C 186.688,251.684 187.855,251.684 189,250.5C 189.608,248.846 190.108,247.179 190.5,245.5 Z"/></g>
<g><path style="opacity:1" fill="#fed5d5" d="M 133.5,250.5 C 131.797,252.141 129.63,253.141 127,253.5C 126.797,268.919 127.963,284.252 130.5,299.5C 130.461,301.952 129.794,303.952 128.5,305.5C 128.272,292.765 127.272,280.099 125.5,267.5C 124.81,262.085 124.81,256.751 125.5,251.5C 128.167,251.167 130.833,250.833 133.5,250.5 Z"/></g>
<g><path style="opacity:1" fill="#0d0505" d="M 161.5,262.5 C 159.003,263.129 157.67,264.796 157.5,267.5C 155.952,271.034 155.286,274.867 155.5,279C 155.667,281.833 155.833,284.667 156,287.5C 156.278,288.416 156.778,289.082 157.5,289.5C 158.202,298.008 159.202,306.341 160.5,314.5C 160.666,318.846 160.499,323.179 160,327.5C 154.652,329.284 149.485,331.284 144.5,333.5C 143.167,333.5 141.833,333.5 140.5,333.5C 140.5,331.5 140.5,329.5 140.5,327.5C 144.439,326.465 148.272,325.131 152,323.5C 151.033,304.465 149.699,285.465 148,266.5C 148.725,264.051 149.725,261.717 151,259.5C 156.179,254.835 159.679,255.835 161.5,262.5 Z"/></g>
<g><path style="opacity:1" fill="#c53e40" d="M 122.5,243.5 C 122.902,246.477 123.902,249.143 125.5,251.5C 124.81,256.751 124.81,262.085 125.5,267.5C 124.602,262.26 123.269,257.26 121.5,252.5C 121.5,251.833 121.5,251.167 121.5,250.5C 122.468,248.393 122.802,246.059 122.5,243.5 Z"/></g>
<g><path style="opacity:1" fill="#a91e27" d="M 94.5,240.5 C 90.2937,250.264 90.6271,259.931 95.5,269.5C 90.4816,263.08 88.6483,255.747 90,247.5C 90.687,244.543 92.187,242.209 94.5,240.5 Z"/></g>
<g><path style="opacity:1" fill="#240300" d="M 27.5,230.5 C 26.6436,252.34 27.9769,274.007 31.5,295.5C 30.8423,294.602 30.1757,293.602 29.5,292.5C 26.4393,271.774 25.7726,251.107 27.5,230.5 Z"/></g>
<g><path style="opacity:1" fill="#b62d31" d="M 306.5,251.5 C 307.496,255.184 308.829,258.851 310.5,262.5C 309.167,262.5 307.833,262.5 306.5,262.5C 306.559,267.68 304.893,272.013 301.5,275.5C 305.013,267.928 306.68,259.928 306.5,251.5 Z"/></g>
<g><path style="opacity:1" fill="#120b0b" d="M 351.5,259.5 C 351.649,260.552 351.483,261.552 351,262.5C 349.293,264.037 347.793,265.704 346.5,267.5C 344.973,267.427 343.973,268.094 343.5,269.5C 337.769,272.107 331.769,272.941 325.5,272C 324.29,270.961 323.29,269.794 322.5,268.5C 332.966,267.681 340.8,262.681 346,253.5C 346.977,255.74 347.477,258.073 347.5,260.5C 348.959,260.567 350.292,260.234 351.5,259.5 Z"/></g>
<g><path style="opacity:1" fill="#a21f24" d="M 193.5,255.5 C 193.5,262.167 193.5,268.833 193.5,275.5C 190.906,268.826 190.906,262.159 193.5,255.5 Z"/></g>
<g><path style="opacity:1" fill="#ab282f" d="M 355.5,258.5 C 355.5,260.5 355.5,262.5 355.5,264.5C 358.789,263.626 362.123,262.959 365.5,262.5C 362.201,264.483 358.534,265.483 354.5,265.5C 354.762,264.022 354.429,262.689 353.5,261.5C 351.741,264.266 349.407,266.266 346.5,267.5C 347.793,265.704 349.293,264.037 351,262.5C 351.483,261.552 351.649,260.552 351.5,259.5C 352.708,258.766 354.041,258.433 355.5,258.5 Z"/></g>
<g><path style="opacity:1" fill="#80191c" d="M 227.5,255.5 C 229.238,260.217 229.904,265.217 229.5,270.5C 227.969,265.75 227.302,260.75 227.5,255.5 Z"/></g>
<g><path style="opacity:1" fill="#df262c" d="M 100.5,249.5 C 100.5,249.833 100.5,250.167 100.5,250.5C 99.119,252.274 99.4523,253.774 101.5,255C 104.221,255.602 106.887,255.435 109.5,254.5C 108.697,255.423 108.53,256.423 109,257.5C 114.813,260.524 118.979,258.857 121.5,252.5C 123.269,257.26 124.602,262.26 125.5,267.5C 127.272,280.099 128.272,292.765 128.5,305.5C 128.5,305.833 128.5,306.167 128.5,306.5C 127.833,307.5 127.167,308.5 126.5,309.5C 126.718,296.061 126.052,282.728 124.5,269.5C 121.737,269.796 119.237,270.796 117,272.5C 116.333,271.167 116.333,269.833 117,268.5C 118.892,267.383 119.725,265.716 119.5,263.5C 123.456,262.947 123.456,262.114 119.5,261C 115.5,260.667 111.5,260.333 107.5,260C 106.663,258.989 106.33,257.822 106.5,256.5C 105.5,256.5 104.5,256.5 103.5,256.5C 103.509,258.308 103.009,259.975 102,261.5C 101.099,258.929 99.7658,256.596 98,254.5C 97.8301,252.155 98.1635,249.821 99,247.5C 99.2784,248.416 99.7784,249.082 100.5,249.5 Z"/></g>
<g><path style="opacity:1" fill="#eb1c24" d="M 100.5,249.5 C 99.7784,249.082 99.2784,248.416 99,247.5C 98.1635,249.821 97.8301,252.155 98,254.5C 99.7658,256.596 101.099,258.929 102,261.5C 103.009,259.975 103.509,258.308 103.5,256.5C 104.5,256.5 105.5,256.5 106.5,256.5C 106.33,257.822 106.663,258.989 107.5,260C 111.5,260.333 115.5,260.667 119.5,261C 123.456,262.114 123.456,262.947 119.5,263.5C 119.725,265.716 118.892,267.383 117,268.5C 116.333,269.833 116.333,271.167 117,272.5C 119.237,270.796 121.737,269.796 124.5,269.5C 126.052,282.728 126.718,296.061 126.5,309.5C 120.992,320.01 112.325,325.677 100.5,326.5C 99.7659,325.292 99.4326,323.959 99.5,322.5C 98.2185,312.186 98.2185,301.853 99.5,291.5C 100.5,291.5 101.5,291.5 102.5,291.5C 102.34,289.801 102.506,288.134 103,286.5C 106.551,283.806 109.051,280.472 110.5,276.5C 106.794,276.501 104.461,274.835 103.5,271.5C 100.833,271.5 98.1667,271.5 95.5,271.5C 95.5,270.833 95.5,270.167 95.5,269.5C 90.6271,259.931 90.2937,250.264 94.5,240.5C 96.3146,239.37 98.3146,238.704 100.5,238.5C 100.5,242.167 100.5,245.833 100.5,249.5 Z"/></g>
<g><path style="opacity:1" fill="#fedddc" d="M 200.5,262.5 C 201.892,271.789 203.392,281.122 205,290.5C 207.298,294.149 209.798,297.482 212.5,300.5C 208.515,298.679 205.681,295.679 204,291.5C 202.525,286.937 201.692,282.27 201.5,277.5C 201.387,272.482 201.053,267.482 200.5,262.5 Z"/></g>
<g><path style="opacity:1" fill="#d44142" d="M 234.5,239.5 C 237.295,251.404 237.962,263.404 236.5,275.5C 236.5,274.5 236.5,273.5 236.5,272.5C 235.534,261.545 234.867,250.545 234.5,239.5 Z"/></g>
<g><path style="opacity:1" fill="#efeded" d="M 105.5,225.5 C 106.436,226.974 107.77,227.974 109.5,228.5C 116.022,237.266 116.022,245.933 109.5,254.5C 106.887,255.435 104.221,255.602 101.5,255C 99.4523,253.774 99.119,252.274 100.5,250.5C 101.997,248.71 102.664,246.544 102.5,244C 102.664,241.456 101.997,239.29 100.5,237.5C 98.6408,233.074 95.3075,231.574 90.5,233C 82.3752,238.36 79.5419,245.86 82,255.5C 83.8519,263.177 88.3519,268.51 95.5,271.5C 97.631,272.314 99.9644,272.814 102.5,273C 101.944,273.383 101.611,273.883 101.5,274.5C 88.1209,286.527 84.2875,301.194 90,318.5C 92.1314,322.47 95.298,325.137 99.5,326.5C 107.496,328.039 114.663,326.039 121,320.5C 122.352,322.594 122.852,324.927 122.5,327.5C 112.952,339.939 100.285,345.939 84.5,345.5C 84.1667,345.5 83.8333,345.5 83.5,345.5C 77.4356,344.099 72.7689,340.766 69.5,335.5C 68.0446,331.233 66.5446,326.9 65,322.5C 63.2743,311.561 64.7743,301.227 69.5,291.5C 71.2017,286.959 74.2017,283.459 78.5,281C 71.8344,277.508 67.1678,272.341 64.5,265.5C 64.0774,262.353 63.7441,259.186 63.5,256C 67.1064,231.199 81.1064,221.033 105.5,225.5 Z"/></g>
<g><path style="opacity:1" fill="#cc3c42" d="M 100.5,237.5 C 101.997,239.29 102.664,241.456 102.5,244C 102.664,246.544 101.997,248.71 100.5,250.5C 100.5,250.167 100.5,249.833 100.5,249.5C 100.5,245.833 100.5,242.167 100.5,238.5C 98.3146,238.704 96.3146,239.37 94.5,240.5C 95.6874,238.025 97.6874,237.025 100.5,237.5 Z"/></g>
<g><path style="opacity:1" fill="#4f1418" d="M 266.5,255.5 C 267.488,260.64 267.821,265.974 267.5,271.5C 268.5,271.5 269.5,271.5 270.5,271.5C 269.71,272.401 268.71,273.068 267.5,273.5C 266.545,267.591 266.211,261.591 266.5,255.5 Z"/></g>
<g><path style="opacity:1" fill="#b02028" d="M 317.5,268.5 C 319.167,268.5 320.833,268.5 322.5,268.5C 323.29,269.794 324.29,270.961 325.5,272C 331.769,272.941 337.769,272.107 343.5,269.5C 342.358,271.433 340.692,272.933 338.5,274C 330.44,275.695 323.44,273.861 317.5,268.5 Z"/></g>
<g><path style="opacity:1" fill="#e26e6f" d="M 199.5,260.5 C 200.338,260.842 200.672,261.508 200.5,262.5C 201.053,267.482 201.387,272.482 201.5,277.5C 200.116,272.056 199.45,266.389 199.5,260.5 Z"/></g>
<g><path style="opacity:1" fill="#0e0606" d="M 101.5,274.5 C 103.858,276.129 106.524,277.295 109.5,278C 104.767,281.552 101.434,286.052 99.5,291.5C 95.2588,300.382 94.4255,309.715 97,319.5C 97.3768,320.942 98.2101,321.942 99.5,322.5C 99.4326,323.959 99.7659,325.292 100.5,326.5C 100.167,326.5 99.8333,326.5 99.5,326.5C 95.298,325.137 92.1314,322.47 90,318.5C 84.2875,301.194 88.1209,286.527 101.5,274.5 Z"/></g>
<g><path style="opacity:1" fill="#e02a2f" d="M 64.5,265.5 C 67.1678,272.341 71.8344,277.508 78.5,281C 74.2017,283.459 71.2017,286.959 69.5,291.5C 68.2719,292.306 67.2719,293.306 66.5,294.5C 67.7769,290.935 68.7769,287.268 69.5,283.5C 70.552,283.649 71.552,283.483 72.5,283C 71.6634,281.989 71.33,280.822 71.5,279.5C 69.8008,279.34 68.1341,279.506 66.5,280C 69.0443,281.775 69.0443,283.608 66.5,285.5C 63.9941,281.651 64.6608,278.318 68.5,275.5C 65.0833,273.03 63.7499,269.697 64.5,265.5 Z"/></g>
<g><path style="opacity:1" fill="#a92529" d="M 95.5,271.5 C 98.1667,271.5 100.833,271.5 103.5,271.5C 104.461,274.835 106.794,276.501 110.5,276.5C 109.051,280.472 106.551,283.806 103,286.5C 102.506,288.134 102.34,289.801 102.5,291.5C 101.5,291.5 100.5,291.5 99.5,291.5C 101.434,286.052 104.767,281.552 109.5,278C 106.524,277.295 103.858,276.129 101.5,274.5C 101.611,273.883 101.944,273.383 102.5,273C 99.9644,272.814 97.631,272.314 95.5,271.5 Z"/></g>
<g><path style="opacity:1" fill="#d72b2d" d="M 161.5,262.5 C 162.477,265.287 162.81,268.287 162.5,271.5C 163.245,274.39 163.912,277.39 164.5,280.5C 164.5,282.833 164.5,285.167 164.5,287.5C 163.5,287.5 162.5,287.5 161.5,287.5C 160.959,296.491 160.626,305.491 160.5,314.5C 159.202,306.341 158.202,298.008 157.5,289.5C 156.43,282.15 156.43,274.817 157.5,267.5C 157.67,264.796 159.003,263.129 161.5,262.5 Z"/></g>
<g><path style="opacity:1" fill="#ec1b24" d="M 162.5,271.5 C 163.11,277.529 162.11,283.195 159.5,288.5C 158.336,281.524 158.169,274.524 159,267.5C 159.333,267.167 159.667,266.833 160,266.5C 160.05,268.744 160.883,270.411 162.5,271.5 Z"/></g>
<g><path style="opacity:1" fill="#9d1b20" d="M 301.5,275.5 C 301.657,276.873 301.49,278.207 301,279.5C 298.269,281.745 295.436,283.745 292.5,285.5C 295.529,282.141 298.529,278.808 301.5,275.5 Z"/></g>
<g><path style="opacity:1" fill="#3a0906" d="M 157.5,267.5 C 156.43,274.817 156.43,282.15 157.5,289.5C 156.778,289.082 156.278,288.416 156,287.5C 155.833,284.667 155.667,281.833 155.5,279C 155.286,274.867 155.952,271.034 157.5,267.5 Z"/></g>
<g><path style="opacity:1" fill="#0d0404" d="M 287.5,209.5 C 292.661,211 296.661,214 299.5,218.5C 300.687,221.612 302.02,224.612 303.5,227.5C 304.859,235.45 305.859,243.45 306.5,251.5C 306.68,259.928 305.013,267.928 301.5,275.5C 298.529,278.808 295.529,282.141 292.5,285.5C 288.013,286.992 283.68,288.658 279.5,290.5C 276.276,290.797 273.276,290.13 270.5,288.5C 269.438,293.027 269.771,297.36 271.5,301.5C 271.5,303.833 271.5,306.167 271.5,308.5C 272.409,314.478 272.575,320.478 272,326.5C 270.348,327.399 268.848,328.399 267.5,329.5C 263.754,332.2 259.754,334.534 255.5,336.5C 253.656,334.721 252.99,332.388 253.5,329.5C 256.767,327.189 260.1,324.856 263.5,322.5C 263.833,320.167 264.167,317.833 264.5,315.5C 263.272,305.162 262.439,294.829 262,284.5C 265.595,286.456 269.428,286.956 273.5,286C 291.209,279.425 299.542,266.591 298.5,247.5C 298.852,233.568 295.185,220.901 287.5,209.5 Z"/></g>
<g><path style="opacity:1" fill="#98171e" d="M 292.5,285.5 C 289.029,289.017 284.696,290.683 279.5,290.5C 283.68,288.658 288.013,286.992 292.5,285.5 Z"/></g>
<g><path style="opacity:1" fill="#941f22" d="M 193.5,282.5 C 195.145,287.234 195.811,292.234 195.5,297.5C 194.275,292.71 193.608,287.71 193.5,282.5 Z"/></g>
<g><path style="opacity:1" fill="#160b09" d="M 241.5,303.5 C 235.329,305.413 228.996,306.413 222.5,306.5C 220.833,305.167 219.167,303.833 217.5,302.5C 227.796,302.271 235.296,297.605 240,288.5C 240.411,293.519 240.911,298.519 241.5,303.5 Z"/></g>
<g><path style="opacity:1" fill="#ab252b" d="M 279.5,290.5 C 277.052,291.473 274.385,291.806 271.5,291.5C 271.5,294.833 271.5,298.167 271.5,301.5C 269.771,297.36 269.438,293.027 270.5,288.5C 273.276,290.13 276.276,290.797 279.5,290.5 Z"/></g>
<g><path style="opacity:1" fill="#e32228" d="M 197.5,250.5 C 199.175,253.507 199.841,256.84 199.5,260.5C 199.45,266.389 200.116,272.056 201.5,277.5C 201.692,282.27 202.525,286.937 204,291.5C 205.681,295.679 208.515,298.679 212.5,300.5C 213.635,302.213 215.302,302.88 217.5,302.5C 219.167,303.833 220.833,305.167 222.5,306.5C 224.948,307.473 227.615,307.806 230.5,307.5C 226.354,308.647 222.02,308.814 217.5,308C 218.711,307.107 218.711,306.274 217.5,305.5C 214.177,303.952 210.843,302.619 207.5,301.5C 207.5,302.833 207.5,304.167 207.5,305.5C 204.881,305.768 202.381,305.435 200,304.5C 201.201,301.371 201.535,297.371 201,292.5C 199.686,291.687 198.519,290.687 197.5,289.5C 198.602,298.516 198.602,307.516 197.5,316.5C 197.844,311.878 197.177,307.545 195.5,303.5C 195.5,301.5 195.5,299.5 195.5,297.5C 195.811,292.234 195.145,287.234 193.5,282.5C 193.5,280.167 193.5,277.833 193.5,275.5C 193.5,268.833 193.5,262.167 193.5,255.5C 194.136,253.205 195.469,251.539 197.5,250.5 Z"/></g>
<g><path style="opacity:1" fill="#d43f40" d="M 164.5,289.5 C 165.495,298.697 166.495,308.03 167.5,317.5C 165.941,314.132 165.108,310.465 165,306.5C 164.501,300.843 164.334,295.176 164.5,289.5 Z"/></g>
<g><path style="opacity:1" fill="#dc292f" d="M 64.5,299.5 C 61.8336,308.835 61.8336,318.168 64.5,327.5C 63.8333,327.5 63.1667,327.5 62.5,327.5C 60.3431,322.471 59.0098,317.138 58.5,311.5C 60.4927,307.501 62.4927,303.501 64.5,299.5 Z"/></g>
<g><path style="opacity:1" fill="#fed3d3" d="M 69.5,291.5 C 64.7743,301.227 63.2743,311.561 65,322.5C 66.5446,326.9 68.0446,331.233 69.5,335.5C 67.3199,333.137 65.6532,330.47 64.5,327.5C 61.8336,318.168 61.8336,308.835 64.5,299.5C 65.3092,297.972 65.9759,296.306 66.5,294.5C 67.2719,293.306 68.2719,292.306 69.5,291.5 Z"/></g>
<g><path style="opacity:1" fill="#ba1e27" d="M 99.5,291.5 C 98.2185,301.853 98.2185,312.186 99.5,322.5C 98.2101,321.942 97.3768,320.942 97,319.5C 94.4255,309.715 95.2588,300.382 99.5,291.5 Z"/></g>
<g><path style="opacity:1" fill="#c8373a" d="M 241.5,303.5 C 242.973,313.445 243.973,323.445 244.5,333.5C 243.778,333.082 243.278,332.416 243,331.5C 242.705,322.438 241.871,313.438 240.5,304.5C 237.177,305.492 233.844,306.492 230.5,307.5C 227.615,307.806 224.948,307.473 222.5,306.5C 228.996,306.413 235.329,305.413 241.5,303.5 Z"/></g>
<g><path style="opacity:1" fill="#be2229" d="M 31.5,207.5 C 30.5422,220.665 29.5422,233.831 28.5,247C 29.2669,264.958 31.2669,282.791 34.5,300.5C 37.355,307.052 39.355,313.719 40.5,320.5C 42.3225,323.831 43.3225,327.498 43.5,331.5C 41.3161,327.995 39.6494,324.161 38.5,320C 35.9106,311.794 33.5773,303.628 31.5,295.5C 27.9769,274.007 26.6436,252.34 27.5,230.5C 28.7153,222.687 30.0486,215.021 31.5,207.5 Z"/></g>
<g><path style="opacity:1" fill="#fedfe2" d="M 164.5,280.5 C 165.117,280.611 165.617,280.944 166,281.5C 166.862,293.197 167.695,304.863 168.5,316.5C 171.005,315.583 173.338,315.583 175.5,316.5C 173.213,316.724 171.047,317.391 169,318.5C 168.235,318.43 167.735,318.097 167.5,317.5C 166.495,308.03 165.495,298.697 164.5,289.5C 164.5,288.833 164.5,288.167 164.5,287.5C 164.5,285.167 164.5,282.833 164.5,280.5 Z"/></g>
<g><path style="opacity:1" fill="#921f21" d="M 195.5,303.5 C 197.177,307.545 197.844,311.878 197.5,316.5C 196.432,317.434 195.099,317.768 193.5,317.5C 194.209,316.596 195.209,316.263 196.5,316.5C 196.414,312.143 196.08,307.81 195.5,303.5 Z"/></g>
<g><path style="opacity:1" fill="#a11e24" d="M 271.5,308.5 C 273.048,312.034 273.714,315.867 273.5,320C 273.167,322.833 272.833,325.667 272.5,328.5C 270.929,329.309 269.262,329.643 267.5,329.5C 268.848,328.399 270.348,327.399 272,326.5C 272.575,320.478 272.409,314.478 271.5,308.5 Z"/></g>
<g><path style="opacity:1" fill="#98363c" d="M 129.5,315.5 C 130.451,316.919 130.784,318.585 130.5,320.5C 129.415,322.587 127.749,323.92 125.5,324.5C 127.105,321.622 128.439,318.622 129.5,315.5 Z"/></g>
<g><path style="opacity:1" fill="#f8dedd" d="M 128.5,306.5 C 128.522,310.143 127.522,313.476 125.5,316.5C 125.667,317.167 125.833,317.833 126,318.5C 126.759,316.937 127.926,315.937 129.5,315.5C 128.439,318.622 127.105,321.622 125.5,324.5C 124.833,325.833 123.833,326.833 122.5,327.5C 122.852,324.927 122.352,322.594 121,320.5C 114.663,326.039 107.496,328.039 99.5,326.5C 99.8333,326.5 100.167,326.5 100.5,326.5C 112.325,325.677 120.992,320.01 126.5,309.5C 127.167,308.5 127.833,307.5 128.5,306.5 Z"/></g>
<g><path style="opacity:0.004" fill="#fefffe" d="M 2.5,321.5 C 3.83333,322.167 3.83333,322.167 2.5,321.5 Z"/></g>
<g><path style="opacity:1" fill="#b52129" d="M 160.5,314.5 C 162.687,319.256 163.021,324.256 161.5,329.5C 155.802,330.838 150.136,332.172 144.5,333.5C 149.485,331.284 154.652,329.284 160,327.5C 160.499,323.179 160.666,318.846 160.5,314.5 Z"/></g>
<g><path style="opacity:1" fill="#c02029" d="M 192.5,317.5 C 190.934,319.875 188.601,321.042 185.5,321C 184.006,322.946 182.006,323.779 179.5,323.5C 177.667,323.415 176.334,322.748 175.5,321.5C 181.253,320.645 186.92,319.312 192.5,317.5 Z"/></g>
<g><path style="opacity:1" fill="#b62d30" d="M 140.5,327.5 C 140.5,329.5 140.5,331.5 140.5,333.5C 141.833,333.5 143.167,333.5 144.5,333.5C 143.365,335.213 141.698,335.88 139.5,335.5C 140.085,332.739 139.085,331.073 136.5,330.5C 133.234,331.784 130.234,333.45 127.5,335.5C 129.252,333.754 130.585,331.754 131.5,329.5C 134.63,329.3 137.63,328.634 140.5,327.5 Z"/></g>
<g><path style="opacity:1" fill="#c32429" d="M 459.5,322.5 C 457.361,328.774 454.695,334.774 451.5,340.5C 452.365,333.654 455.032,327.654 459.5,322.5 Z"/></g>
<g><path style="opacity:1" fill="#a8292e" d="M 253.5,329.5 C 252.99,332.388 253.656,334.721 255.5,336.5C 254.432,337.434 253.099,337.768 251.5,337.5C 251.5,335.833 251.5,334.167 251.5,332.5C 249.784,332.629 248.117,332.962 246.5,333.5C 248.336,331.412 250.669,330.079 253.5,329.5 Z"/></g>
<g><path style="opacity:1" fill="#0f0606" d="M 130.5,320.5 C 131.477,323.287 131.81,326.287 131.5,329.5C 130.585,331.754 129.252,333.754 127.5,335.5C 127.5,335.833 127.5,336.167 127.5,336.5C 124.208,338.458 121.208,340.791 118.5,343.5C 116.847,343.66 115.514,344.326 114.5,345.5C 106.828,348.89 98.828,350.057 90.5,349C 88.3819,347.918 86.3819,346.751 84.5,345.5C 100.285,345.939 112.952,339.939 122.5,327.5C 123.833,326.833 124.833,325.833 125.5,324.5C 127.749,323.92 129.415,322.587 130.5,320.5 Z"/></g>
<g><path style="opacity:1" fill="#941d22" d="M 127.5,336.5 C 125.363,339.973 122.363,342.306 118.5,343.5C 121.208,340.791 124.208,338.458 127.5,336.5 Z"/></g>
<g><path style="opacity:1" fill="#b12329" d="M 451.5,341.5 C 450.341,345.151 448.674,348.485 446.5,351.5C 446.343,350.127 446.51,348.793 447,347.5C 448.242,345.141 449.742,343.141 451.5,341.5 Z"/></g>
<g><path style="opacity:1" fill="#b32126" d="M 83.5,345.5 C 83.8333,345.5 84.1667,345.5 84.5,345.5C 86.3819,346.751 88.3819,347.918 90.5,349C 98.828,350.057 106.828,348.89 114.5,345.5C 114.196,346.15 113.863,346.817 113.5,347.5C 103.607,351.087 93.6067,351.42 83.5,348.5C 83.5,347.5 83.5,346.5 83.5,345.5 Z"/></g>
<g><path style="opacity:1" fill="#ce2028" d="M 43.5,331.5 C 47.5932,337.786 51.0932,344.452 54,351.5C 55.8029,351.094 57.6362,351.594 59.5,353C 58.7069,354.085 58.0402,355.252 57.5,356.5C 59.5814,359.938 60.9148,363.605 61.5,367.5C 53.9479,356.396 47.9479,344.396 43.5,331.5 Z"/></g>
<g><path style="opacity:1" fill="#c3222a" d="M 446.5,351.5 C 441.337,363.17 434.671,373.836 426.5,383.5C 425.82,379.209 427.486,376.543 431.5,375.5C 431.5,373.833 431.5,372.167 431.5,370.5C 432.5,370.5 433.5,370.5 434.5,370.5C 436.937,367.68 438.604,364.347 439.5,360.5C 441.438,357.081 443.772,354.081 446.5,351.5 Z"/></g>
<g><path style="opacity:1" fill="#f7e5e6" d="M 255.5,373.5 C 250.895,376.18 250.561,379.514 254.5,383.5C 254.595,385.786 255.262,387.786 256.5,389.5C 257.763,394.126 258.929,398.792 260,403.5C 260.417,404.756 261.25,405.423 262.5,405.5C 261.614,406.776 260.614,406.776 259.5,405.5C 257.746,398.759 255.246,392.426 252,386.5C 250.582,389.001 249.582,388.668 249,385.5C 248.418,388.668 247.418,389.001 246,386.5C 245.105,388.804 244.271,391.138 243.5,393.5C 242.817,393.863 242.15,394.196 241.5,394.5C 243.196,388.578 245.196,382.745 247.5,377C 243.788,374.434 242.622,370.934 244,366.5C 247.308,364.007 250.808,363.841 254.5,366C 255.435,368.381 255.768,370.881 255.5,373.5 Z"/></g>
<g><path style="opacity:1" fill="#d93e41" d="M 211.5,385.5 C 210.624,385.631 209.957,385.298 209.5,384.5C 211.672,379.922 210.338,377.256 205.5,376.5C 200.383,377.301 198.383,380.301 199.5,385.5C 198.188,384.855 197.188,383.855 196.5,382.5C 197.946,380.382 198.613,378.049 198.5,375.5C 208.344,372.376 212.678,375.709 211.5,385.5 Z"/></g>
<g><path style="opacity:1" fill="#d43d3f" d="M 255.5,373.5 C 254.854,375.156 254.187,376.823 253.5,378.5C 254.046,380.135 254.38,381.801 254.5,383.5C 250.561,379.514 250.895,376.18 255.5,373.5 Z"/></g>
<g><path style="opacity:0.004" fill="#fefffe" d="M 484.5,379.5 C 485.833,380.167 485.833,380.167 484.5,379.5 Z"/></g>
<g><path style="opacity:1" fill="#dc2e33" d="M 289.5,377.5 C 288.178,379.802 288.178,382.135 289.5,384.5C 284.744,388.602 279.744,392.269 274.5,395.5C 275.201,393.092 276.201,390.758 277.5,388.5C 279.003,387.948 280.669,387.948 282.5,388.5C 282.45,386.41 283.45,385.077 285.5,384.5C 286.474,382.257 286.808,379.924 286.5,377.5C 287.5,377.5 288.5,377.5 289.5,377.5 Z"/></g>
<g><path style="opacity:1" fill="#cf2127" d="M 426.5,383.5 C 422.832,388.007 419.332,392.673 416,397.5C 411.61,401.295 407.443,405.295 403.5,409.5C 403.685,407.804 404.519,406.471 406,405.5C 406.495,403.527 406.662,401.527 406.5,399.5C 408.167,399.5 409.833,399.5 411.5,399.5C 411.5,397.833 411.5,396.167 411.5,394.5C 413.167,394.5 414.833,394.5 416.5,394.5C 416.119,389.981 417.786,387.314 421.5,386.5C 420.975,385.808 420.308,385.308 419.5,385C 421.74,384.023 424.073,383.523 426.5,383.5 Z"/></g>
<g><path style="opacity:1" fill="#f1eeee" d="M 211.5,385.5 C 213.949,388.556 216.949,390.889 220.5,392.5C 222.949,395.556 225.949,397.889 229.5,399.5C 231.677,402.754 234.677,404.754 238.5,405.5C 239.036,401.686 240.036,398.019 241.5,394.5C 242.15,394.196 242.817,393.863 243.5,393.5C 244.271,391.138 245.105,388.804 246,386.5C 247.418,389.001 248.418,388.668 249,385.5C 249.582,388.668 250.582,389.001 252,386.5C 255.246,392.426 257.746,398.759 259.5,405.5C 260.614,406.776 261.614,406.776 262.5,405.5C 263.922,404.075 265.589,403.075 267.5,402.5C 269.117,403.589 269.95,405.256 270,407.5C 271.147,406.542 272.147,406.875 273,408.5C 273.219,407.062 273.719,405.729 274.5,404.5C 275.192,405.025 275.692,405.692 276,406.5C 276.333,406.167 276.667,405.833 277,405.5C 277.847,409.318 279.014,412.984 280.5,416.5C 278.647,417.76 276.814,417.76 275,416.5C 273.957,418.701 273.123,421.034 272.5,423.5C 258.879,422.352 245.212,422.185 231.5,423C 228.447,424.581 227.78,426.914 229.5,430C 227.866,430.494 226.199,430.66 224.5,430.5C 222.053,426.72 220.053,422.72 218.5,418.5C 217.833,417.5 217.167,416.5 216.5,415.5C 214.74,407.562 212.407,399.895 209.5,392.5C 209.845,387.842 208.012,386.175 204,387.5C 202.301,387.613 201.134,386.947 200.5,385.5C 200.167,385.5 199.833,385.5 199.5,385.5C 198.383,380.301 200.383,377.301 205.5,376.5C 210.338,377.256 211.672,379.922 209.5,384.5C 209.957,385.298 210.624,385.631 211.5,385.5 Z"/></g>
<g><path style="opacity:1" fill="#d3454b" d="M 220.5,392.5 C 224.051,394.111 227.051,396.444 229.5,399.5C 225.949,397.889 222.949,395.556 220.5,392.5 Z"/></g>
<g><path style="opacity:1" fill="#f1f0ef" d="M 200.5,385.5 C 199.958,381.254 201.791,378.921 206,378.5C 207.662,378.388 208.829,379.054 209.5,380.5C 208.691,382.071 208.357,383.738 208.5,385.5C 205.803,386.63 203.137,386.63 200.5,385.5 Z"/></g>
<g><path style="opacity:1" fill="#f8e6e7" d="M 289.5,392.5 C 286.124,401.63 283.124,410.963 280.5,420.5C 279.564,424.309 278.23,427.975 276.5,431.5C 258.497,431.667 240.497,431.5 222.5,431C 221.956,430.283 221.289,429.783 220.5,429.5C 219.992,425.803 219.326,422.136 218.5,418.5C 220.053,422.72 222.053,426.72 224.5,430.5C 226.199,430.66 227.866,430.494 229.5,430C 227.78,426.914 228.447,424.581 231.5,423C 245.212,422.185 258.879,422.352 272.5,423.5C 273.123,421.034 273.957,418.701 275,416.5C 276.814,417.76 278.647,417.76 280.5,416.5C 279.014,412.984 277.847,409.318 277,405.5C 276.667,405.833 276.333,406.167 276,406.5C 275.692,405.692 275.192,405.025 274.5,404.5C 273.719,405.729 273.219,407.062 273,408.5C 272.147,406.875 271.147,406.542 270,407.5C 269.95,405.256 269.117,403.589 267.5,402.5C 270.027,400.395 272.36,398.061 274.5,395.5C 279.744,392.269 284.744,388.602 289.5,384.5C 288.178,382.135 288.178,379.802 289.5,377.5C 297.243,375.411 300.243,378.244 298.5,386C 296.246,387.651 293.912,387.818 291.5,386.5C 289.914,388.173 289.247,390.173 289.5,392.5 Z"/></g>
<g><path style="opacity:1" fill="#df2e34" d="M 256.5,389.5 C 258.61,392.517 260.277,395.851 261.5,399.5C 262.328,400.415 263.328,401.081 264.5,401.5C 265.298,399.922 265.798,398.256 266,396.5C 266.934,399.965 268.434,400.298 270.5,397.5C 270.291,396.914 269.957,396.414 269.5,396C 271.134,395.506 272.801,395.34 274.5,395.5C 272.36,398.061 270.027,400.395 267.5,402.5C 265.589,403.075 263.922,404.075 262.5,405.5C 261.25,405.423 260.417,404.756 260,403.5C 258.929,398.792 257.763,394.126 256.5,389.5 Z"/></g>
<g><path style="opacity:1" fill="#d24545" d="M 209.5,392.5 C 212.407,399.895 214.74,407.562 216.5,415.5C 213.225,408.327 210.892,400.66 209.5,392.5 Z"/></g>
<g><path style="opacity:1" fill="#df3134" d="M 289.5,392.5 C 288.942,399.528 288.109,406.528 287,413.5C 286.107,412.289 285.274,412.289 284.5,413.5C 283.9,416.349 282.567,418.682 280.5,420.5C 283.124,410.963 286.124,401.63 289.5,392.5 Z"/></g>
<g><path style="opacity:1" fill="#911a20" d="M 93.5,407.5 C 97.1002,409.43 100.1,412.097 102.5,415.5C 98.8998,413.57 95.8998,410.903 93.5,407.5 Z"/></g>
<g><path style="opacity:1" fill="#d71e26" d="M 389.5,421.5 C 373.713,435.733 355.713,446.4 335.5,453.5C 336.987,452.196 338.654,451.03 340.5,450C 340.167,449.667 339.833,449.333 339.5,449C 342.929,448.129 346.262,446.962 349.5,445.5C 349.167,444.833 348.833,444.167 348.5,443.5C 349.935,441.626 351.102,439.626 352,437.5C 353.389,439.227 355.056,440.561 357,441.5C 362.128,439.849 366.628,437.182 370.5,433.5C 368.178,428.006 369.345,427.34 374,431.5C 374.5,431.167 375,430.833 375.5,430.5C 372.703,428.743 371.703,426.41 372.5,423.5C 376.105,424.49 379.772,425.156 383.5,425.5C 383.759,421.932 385.759,420.599 389.5,421.5 Z"/></g>
<g><path style="opacity:1" fill="#c13437" d="M 230.5,424.5 C 243.171,424.333 255.838,424.5 268.5,425C 269.337,426.011 269.67,427.178 269.5,428.5C 256.167,428.5 242.833,428.5 229.5,428.5C 229.433,427.041 229.766,425.708 230.5,424.5 Z"/></g>
<g><path style="opacity:1" fill="#dc2229" d="M 231.5,425.5 C 243.518,425.168 255.518,425.501 267.5,426.5C 261.5,426.833 255.5,427.167 249.5,427.5C 243.128,427.496 237.128,426.829 231.5,425.5 Z"/></g>
<g><path style="opacity:1" fill="#d04846" d="M 216.5,415.5 C 217.167,416.5 217.833,417.5 218.5,418.5C 219.326,422.136 219.992,425.803 220.5,429.5C 218.549,425.126 217.216,420.46 216.5,415.5 Z"/></g>
<g><path style="opacity:1" fill="#df575b" d="M 220.5,429.5 C 221.289,429.783 221.956,430.283 222.5,431C 240.497,431.5 258.497,431.667 276.5,431.5C 258.338,432.662 240.005,432.829 221.5,432C 220.748,431.329 220.414,430.496 220.5,429.5 Z"/></g>
<g><path style="opacity:0.004" fill="#fefffe" d="M 415.5,438.5 C 416.833,439.167 416.833,439.167 415.5,438.5 Z"/></g>
<g><path style="opacity:1" fill="#ba2029" d="M 131.5,437.5 C 132.873,437.343 134.207,437.51 135.5,438C 138.934,440.435 142.6,442.435 146.5,444C 147.823,444.816 148.489,445.983 148.5,447.5C 142.332,444.92 136.665,441.586 131.5,437.5 Z"/></g>
<g><path style="opacity:1" fill="#991924" d="M 157.5,451.5 C 158.873,451.343 160.207,451.51 161.5,452C 166.978,454.425 172.312,456.925 177.5,459.5C 170.341,457.915 163.674,455.249 157.5,451.5 Z"/></g>
<g><path style="opacity:1" fill="#b8272d" d="M 335.5,453.5 C 331.924,455.922 327.924,457.589 323.5,458.5C 327.111,456.069 331.111,454.403 335.5,453.5 Z"/></g>
<g><path style="opacity:0.004" fill="#fefffe" d="M 106.5,457.5 C 107.833,458.167 107.833,458.167 106.5,457.5 Z"/></g>
<g><path style="opacity:1" fill="#b72228" d="M 295.5,466.5 C 287.741,468.587 279.741,470.087 271.5,471C 256.5,471.667 241.5,471.667 226.5,471C 220.003,470.042 213.67,468.875 207.5,467.5C 220.873,468.401 234.206,469.401 247.5,470.5C 263.597,470.188 279.597,468.855 295.5,466.5 Z"/></g>
<g><path style="opacity:0.004" fill="#fefffe" d="M 64.5,473.5 C 65.8333,474.167 65.8333,474.167 64.5,473.5 Z"/></g>
<g><path style="opacity:0.004" fill="#fefffe" d="M 138.5,479.5 C 139.833,480.167 139.833,480.167 138.5,479.5 Z"/></g>
<g><path style="opacity:0.004" fill="#fefffe" d="M 195.5,496.5 C 196.833,497.167 196.833,497.167 195.5,496.5 Z"/></g>
</svg>
