<?xml version="1.0" encoding="UTF-8"?>
<!DOCTYPE svg PUBLIC "-//W3C//DTD SVG 1.1//EN" "http://www.w3.org/Graphics/SVG/1.1/DTD/svg11.dtd">
<svg xmlns="http://www.w3.org/2000/svg" version="1.1" width="500px" height="500px" style="shape-rendering:geometricPrecision; text-rendering:geometricPrecision; image-rendering:optimizeQuality; fill-rule:evenodd; clip-rule:evenodd" xmlns:xlink="http://www.w3.org/1999/xlink">
<g><path style="opacity:0.984" fill="#060606" d="M 499.5,232.5 C 499.5,244.167 499.5,255.833 499.5,267.5C 488.474,365.743 438.474,436.243 349.5,479C 321.902,490.882 293.235,497.715 263.5,499.5C 253.833,499.5 244.167,499.5 234.5,499.5C 148.131,491.576 81.6306,451.243 35,378.5C 12.6866,340.743 0.853288,300.076 -0.5,256.5C -0.5,249.833 -0.5,243.167 -0.5,236.5C 6.78063,146.763 48.7806,78.5965 125.5,32C 177.751,3.01799 233.417,-6.64867 292.5,3C 385.611,22.4522 449.777,76.2856 485,164.5C 492.609,186.719 497.442,209.386 499.5,232.5 Z"/></g>
<g><path style="opacity:1" fill="#919191" d="M 215.5,9.5 C 213.095,10.7682 210.428,11.4349 207.5,11.5C 209.838,9.96046 212.505,9.29379 215.5,9.5 Z"/></g>
<g><path style="opacity:0.004" fill="#fefffe" d="M 150.5,13.5 C 151.833,14.1667 151.833,14.1667 150.5,13.5 Z"/></g>
<g><path style="opacity:0.004" fill="#fefffe" d="M 463.5,13.5 C 464.833,14.1667 464.833,14.1667 463.5,13.5 Z"/></g>
<g><path style="opacity:0.004" fill="#fefffe" d="M 433.5,15.5 C 434.833,16.1667 434.833,16.1667 433.5,15.5 Z"/></g>
<g><path style="opacity:0.004" fill="#fefffe" d="M 489.5,15.5 C 490.833,16.1667 490.833,16.1667 489.5,15.5 Z"/></g>
<g><path style="opacity:0.004" fill="#fefffe" d="M 82.5,18.5 C 83.8333,19.1667 83.8333,19.1667 82.5,18.5 Z"/></g>
<g><path style="opacity:0.004" fill="#fefffe" d="M 120.5,23.5 C 121.833,24.1667 121.833,24.1667 120.5,23.5 Z"/></g>
<g><path style="opacity:0.004" fill="#fefffe" d="M 454.5,28.5 C 455.833,29.1667 455.833,29.1667 454.5,28.5 Z"/></g>
<g><path style="opacity:0.004" fill="#fefffe" d="M 48.5,41.5 C 49.8333,42.1667 49.8333,42.1667 48.5,41.5 Z"/></g>
<g><path style="opacity:0.004" fill="#fefffe" d="M 456.5,80.5 C 457.833,81.1667 457.833,81.1667 456.5,80.5 Z"/></g>
<g><path style="opacity:0.004" fill="#fefffe" d="M 469.5,96.5 C 470.833,97.1667 470.833,97.1667 469.5,96.5 Z"/></g>
<g><path style="opacity:1" fill="#eaeaea" d="M 207.5,11.5 C 210.428,11.4349 213.095,10.7682 215.5,9.5C 302.064,0.396407 374.564,27.7297 433,91.5C 488.113,159.056 504.113,235.056 481,319.5C 458.838,388.658 415.005,438.825 349.5,470C 272.338,502.321 197.338,497.988 124.5,457C 39.9966,401.152 1.49657,322.319 9,220.5C 20.9701,138.935 62.4701,77.768 133.5,37C 156.707,24.2278 181.374,15.7278 207.5,11.5 Z"/></g>
<g><path style="opacity:1" fill="#0c0505" d="M 225.5,19.5 C 321.773,14.0513 395.939,51.3847 448,131.5C 481.107,190.359 488.44,252.359 470,317.5C 444.537,393.629 393.704,444.463 317.5,470C 225.205,494.557 145.705,473.057 79,405.5C 26.7138,344.589 8.71379,274.589 25,195.5C 49.8459,106.654 106.679,49.8208 195.5,25C 205.613,23.0132 215.613,21.1799 225.5,19.5 Z"/></g>
<g><path style="opacity:1" fill="#b82028" d="M 437.5,131.5 C 441.586,136.665 444.92,142.332 447.5,148.5C 445.983,148.489 444.816,147.823 444,146.5C 442.435,142.6 440.435,138.934 438,135.5C 437.51,134.207 437.343,132.873 437.5,131.5 Z"/></g>
<g><path style="opacity:1" fill="#c82228" d="M 61.5,131.5 C 61.5,133.833 61.5,136.167 61.5,138.5C 60.5,138.5 59.5,138.5 58.5,138.5C 58.6308,141.367 57.2974,143.033 54.5,143.5C 56.332,139.164 58.6654,135.164 61.5,131.5 Z"/></g>
<g><path style="opacity:1" fill="#9c2028" d="M 433.5,125.5 C 435.326,127.147 436.66,129.147 437.5,131.5C 435.178,130.198 433.845,128.198 433.5,125.5 Z"/></g>
<g><path style="opacity:1" fill="#9a1e25" d="M 67.5,122.5 C 66.2085,126.097 64.2085,129.097 61.5,131.5C 62.7232,127.951 64.7232,124.951 67.5,122.5 Z"/></g>
<g><path style="opacity:1" fill="#ec1b24" d="M 271.5,28.5 C 274.403,30.1038 277.737,31.1038 281.5,31.5C 288.91,32.2979 296.243,33.2979 303.5,34.5C 308.381,36.9008 313.714,38.5674 319.5,39.5C 321.527,39.3379 323.527,39.5045 325.5,40C 330.977,42.3161 336.31,44.8161 341.5,47.5C 341.5,48.5 341.5,49.5 341.5,50.5C 346.194,52.7315 351.194,54.3982 356.5,55.5C 358.968,57.138 360.968,59.3047 362.5,62C 362.355,62.772 362.022,63.4387 361.5,64C 363.345,63.2173 365.345,62.884 367.5,63C 368.308,63.3076 368.975,63.8076 369.5,64.5C 368.359,65.4255 368.359,66.2588 369.5,67C 374.808,68.4787 379.808,70.6454 384.5,73.5C 389.167,77.1667 393.833,80.8333 398.5,84.5C 398.082,87.0896 397.082,89.4229 395.5,91.5C 398.116,93.3636 398.95,95.6969 398,98.5C 399.117,97.0506 399.784,95.3839 400,93.5C 401.074,94.6184 402.24,95.6184 403.5,96.5C 401.995,97.8415 401.328,99.5082 401.5,101.5C 402.552,101.649 403.552,101.483 404.5,101C 405.05,99.1554 406.05,97.6554 407.5,96.5C 411.494,100.16 415.494,103.827 419.5,107.5C 425.251,112.593 429.918,118.593 433.5,125.5C 433.845,128.198 435.178,130.198 437.5,131.5C 437.343,132.873 437.51,134.207 438,135.5C 440.435,138.934 442.435,142.6 444,146.5C 444.816,147.823 445.983,148.489 447.5,148.5C 449.625,151.088 450.958,154.088 451.5,157.5C 451.92,161.007 452.92,164.341 454.5,167.5C 454.5,168.833 454.5,170.167 454.5,171.5C 453.448,171.351 452.448,171.517 451.5,172C 453.226,174.198 455.226,176.032 457.5,177.5C 455.041,179.927 454.041,182.927 454.5,186.5C 453.5,186.5 452.5,186.5 451.5,186.5C 451.628,184.345 451.128,182.345 450,180.5C 449.271,184.377 449.438,188.211 450.5,192C 449.465,193.274 448.298,194.44 447,195.5C 446.838,188.376 446.005,181.376 444.5,174.5C 443.5,174.5 442.5,174.5 441.5,174.5C 440.833,173.5 440.167,172.5 439.5,171.5C 439.586,170.504 439.252,169.671 438.5,169C 435.588,168.725 432.921,167.891 430.5,166.5C 425.028,163.967 419.695,163.967 414.5,166.5C 405.757,169.244 399.09,174.577 394.5,182.5C 392.993,184.289 391.66,186.289 390.5,188.5C 389.583,187.873 388.583,187.539 387.5,187.5C 385.685,186.37 383.685,185.704 381.5,185.5C 380.078,184.075 378.411,183.075 376.5,182.5C 374.034,181.366 371.367,181.199 368.5,182C 363.992,185.342 359.992,189.175 356.5,193.5C 355.702,191.922 355.202,190.256 355,188.5C 354.275,187.941 353.442,187.608 352.5,187.5C 346.418,189.039 340.418,190.873 334.5,193C 333.363,196.784 333.363,200.618 334.5,204.5C 333.877,211.255 334.544,217.588 336.5,223.5C 336.5,232.5 336.5,241.5 336.5,250.5C 334.799,250.034 333.299,250.034 332,250.5C 331.761,252.761 331.594,254.761 331.5,256.5C 330.833,251.015 330.167,245.681 329.5,240.5C 328.575,234.726 327.575,229.059 326.5,223.5C 326.83,216.8 326.497,210.134 325.5,203.5C 323.253,202.626 320.92,202.292 318.5,202.5C 319.784,198.599 321.617,194.932 324,191.5C 324.667,187.167 324.667,182.833 324,178.5C 321.92,176.877 319.754,175.377 317.5,174C 318.167,173.667 318.833,173.333 319.5,173C 316.12,172.661 312.787,172.161 309.5,171.5C 302.805,169.119 297.138,170.453 292.5,175.5C 291.883,175.611 291.383,175.944 291,176.5C 290.333,180.833 290.333,185.167 291,189.5C 291.833,191 293,192.167 294.5,193C 292.765,193.651 291.098,193.485 289.5,192.5C 288.5,193 287.5,193.5 286.5,194C 290.108,194.877 293.441,196.377 296.5,198.5C 296.08,200.326 296.08,202.326 296.5,204.5C 294.194,204.007 291.861,203.674 289.5,203.5C 289.119,205.942 289.786,206.609 291.5,205.5C 292.187,207.274 293.02,208.941 294,210.5C 295.103,216.671 294.937,219.671 293.5,219.5C 289.127,219.018 284.794,218.352 280.5,217.5C 277.982,216.736 275.649,215.736 273.5,214.5C 266.993,212.591 260.993,213.758 255.5,218C 253.527,218.495 251.527,218.662 249.5,218.5C 249.715,216.821 249.048,215.821 247.5,215.5C 244.032,216.101 240.699,217.101 237.5,218.5C 234.888,219.371 232.221,220.037 229.5,220.5C 227.833,220.5 226.167,220.5 224.5,220.5C 227.421,242.727 229.421,264.394 230.5,285.5C 230.796,290.024 228.796,292.69 224.5,293.5C 224.5,292.833 224.5,292.167 224.5,291.5C 224.219,280.13 223.386,268.796 222,257.5C 221.722,256.584 221.222,255.918 220.5,255.5C 220.106,247.614 216.106,243.114 208.5,242C 207.122,240.287 205.455,238.953 203.5,238C 199.311,237.188 195.311,237.355 191.5,238.5C 183.259,241.074 177.592,246.407 174.5,254.5C 173.833,254.5 173.167,254.5 172.5,254.5C 170.809,253.136 169.142,251.803 167.5,250.5C 165.429,249.191 162.929,248.525 160,248.5C 155.488,248.767 150.988,249.101 146.5,249.5C 146.5,251.167 146.5,252.833 146.5,254.5C 144.493,256.839 142.493,259.172 140.5,261.5C 139.548,259.955 139.215,258.288 139.5,256.5C 136.123,256.959 132.789,257.626 129.5,258.5C 127.801,258.66 126.134,258.494 124.5,258C 125.76,256.186 125.76,254.353 124.5,252.5C 122.934,255.396 121.101,258.063 119,260.5C 119.018,254.067 117.518,248.067 114.5,242.5C 112.807,240.973 110.973,239.64 109,238.5C 108.667,237.167 108.333,235.833 108,234.5C 107.261,235.574 106.261,236.241 105,236.5C 103.24,235.37 101.407,234.37 99.5,233.5C 100.742,230.07 99.4089,228.737 95.5,229.5C 95.5,230.5 95.5,231.5 95.5,232.5C 90.4889,232.334 85.4889,232.501 80.5,233C 79.944,233.383 79.6107,233.883 79.5,234.5C 71.8967,237.77 66.2301,243.103 62.5,250.5C 56.3024,259.992 55.9691,269.659 61.5,279.5C 61.6596,281.153 62.3263,282.486 63.5,283.5C 64.5,284.833 65.5,286.167 66.5,287.5C 66.1712,289.991 65.1712,292.157 63.5,294C 64.3366,295.011 64.67,296.178 64.5,297.5C 63.1779,297.67 62.0113,297.337 61,296.5C 59.0858,297.676 59.2524,298.676 61.5,299.5C 60.4875,302.203 58.9875,304.536 57,306.5C 55.779,305.728 54.779,304.728 54,303.5C 53.3058,307.002 53.8058,310.336 55.5,313.5C 54.9537,315.135 54.6204,316.801 54.5,318.5C 54.1629,324.348 52.6629,330.015 50,335.5C 49.6667,332.167 49.3333,328.833 49,325.5C 48.1191,328.014 46.6191,330.014 44.5,331.5C 44.1667,331.5 43.8333,331.5 43.5,331.5C 40.8268,321.248 37.8268,310.915 34.5,300.5C 31.2669,282.791 29.2669,264.958 28.5,247C 29.5422,233.831 30.5422,220.665 31.5,207.5C 31.5,207.167 31.5,206.833 31.5,206.5C 32.1174,206.389 32.6174,206.056 33,205.5C 34.698,199.581 35.8647,193.581 36.5,187.5C 40.0045,180.987 42.3378,173.987 43.5,166.5C 43.5,166.167 43.5,165.833 43.5,165.5C 44.3764,165.631 45.0431,165.298 45.5,164.5C 48.7409,158.025 51.4076,151.358 53.5,144.5C 53.5,143.833 53.8333,143.5 54.5,143.5C 57.2974,143.033 58.6308,141.367 58.5,138.5C 59.5,138.5 60.5,138.5 61.5,138.5C 61.5,136.167 61.5,133.833 61.5,131.5C 64.2085,129.097 66.2085,126.097 67.5,122.5C 72.7436,114.255 78.7436,106.588 85.5,99.5C 92.4439,94.2249 98.7772,88.2249 104.5,81.5C 108.727,79.2153 112.393,76.2153 115.5,72.5C 118.642,69.5314 121.975,66.698 125.5,64C 127.628,63.3448 129.628,62.5114 131.5,61.5C 136.945,59.541 142.278,57.3743 147.5,55C 152.956,51.0373 158.956,48.0373 165.5,46C 167.747,44.7225 169.747,43.2225 171.5,41.5C 178.576,41.3248 184.91,39.3248 190.5,35.5C 190.833,35.5 191.167,35.5 191.5,35.5C 198.255,34.8445 204.922,33.6778 211.5,32C 212.942,31.6232 213.942,30.7899 214.5,29.5C 215.5,29.5 216.5,29.5 217.5,29.5C 218.833,29.5 220.167,29.5 221.5,29.5C 238.15,28.6274 254.816,28.2941 271.5,28.5 Z"/></g>
<g><path style="opacity:1" fill="#e7241b" d="M 333.5,98.5 C 329.833,98.5 326.167,98.5 322.5,98.5C 322.172,110.012 322.505,121.346 323.5,132.5C 325.833,132.5 328.167,132.5 330.5,132.5C 330.175,124.981 330.508,117.648 331.5,110.5C 333.165,115.162 334.832,119.828 336.5,124.5C 335.542,124.047 334.708,123.381 334,122.5C 333.667,122.833 333.333,123.167 333,123.5C 334.573,132.857 330.907,136.191 322,133.5C 322.579,135.342 323.079,137.342 323.5,139.5C 323.167,140.5 322.833,141.5 322.5,142.5C 320.932,140.456 319.098,140.122 317,141.5C 313.978,140.118 310.811,139.118 307.5,138.5C 304.724,136.721 305.057,135.721 308.5,135.5C 311.067,136.664 313.734,137.33 316.5,137.5C 316.5,136.5 316.5,135.5 316.5,134.5C 311.742,135.448 307.909,134.115 305,130.5C 304.127,130.735 303.293,131.069 302.5,131.5C 302.744,128.294 302.411,124.961 301.5,121.5C 300.5,121.5 299.5,121.5 298.5,121.5C 298.813,125.042 298.479,128.375 297.5,131.5C 297.5,127.833 297.5,124.167 297.5,120.5C 299.199,120.34 300.866,120.506 302.5,121C 304.879,124.256 306.879,127.756 308.5,131.5C 311.167,132.833 313.833,132.833 316.5,131.5C 314.292,127.583 311.959,123.75 309.5,120C 315.908,116.677 318.075,111.511 316,104.5C 314.114,101.758 311.614,100.091 308.5,99.5C 302.69,98.5104 296.69,98.1771 290.5,98.5C 296.559,97.306 302.559,96.306 308.5,95.5C 311.255,97.2112 313.589,99.3779 315.5,102C 316.833,102.333 318.167,102.667 319.5,103C 318.205,106.786 318.205,110.62 319.5,114.5C 319.325,111.282 319.991,108.116 321.5,105C 321.325,103.342 320.658,102.009 319.5,101C 320.126,100.25 320.626,99.4162 321,98.5C 325.267,97.178 329.434,97.178 333.5,98.5 Z"/></g>
<g><path style="opacity:1" fill="#e32a17" d="M 273.5,98.5 C 270.482,98.3354 267.482,98.502 264.5,99C 262.329,102.184 260.996,105.684 260.5,109.5C 257.135,116.572 254.135,123.906 251.5,131.5C 254.086,132.48 256.753,132.813 259.5,132.5C 259.472,130.418 260.139,128.584 261.5,127C 266.5,126.333 271.5,126.333 276.5,127C 277.631,131.613 280.631,133.447 285.5,132.5C 284.359,128.941 283.359,125.274 282.5,121.5C 284.067,122.681 284.901,124.347 285,126.5C 285.893,125.289 286.726,125.289 287.5,126.5C 286.41,127.609 286.41,128.609 287.5,129.5C 288.167,119.341 288.833,109.341 289.5,99.5C 289.5,110.5 289.5,121.5 289.5,132.5C 292.167,132.5 294.833,132.5 297.5,132.5C 295.7,134.05 293.533,135.05 291,135.5C 290,134.5 289,133.5 288,132.5C 284.545,133.791 281.045,133.791 277.5,132.5C 276.833,131.5 276.167,130.5 275.5,129.5C 270.88,128.507 266.214,128.173 261.5,128.5C 261.207,132.707 258.874,134.707 254.5,134.5C 251.465,134.566 249.298,133.233 248,130.5C 246.887,131.76 246.72,132.927 247.5,134C 245.246,135.15 242.913,135.484 240.5,135C 240.833,134.667 241.167,134.333 241.5,134C 238.5,133.667 235.5,133.333 232.5,133C 230.78,127.515 229.28,122.015 228,116.5C 227.292,117.381 226.458,118.047 225.5,118.5C 225.435,115.529 226.269,112.862 228,110.5C 230.137,117.746 231.97,125.08 233.5,132.5C 236.167,132.5 238.833,132.5 241.5,132.5C 242.592,126.567 244.259,120.9 246.5,115.5C 245.982,120.212 245.482,124.879 245,129.5C 249.167,128.218 252.167,125.551 254,121.5C 254.882,117.973 254.382,117.307 252.5,119.5C 251.534,117.604 251.201,115.604 251.5,113.5C 252.552,113.649 253.552,113.483 254.5,113C 252.498,108.081 253.498,106.914 257.5,109.5C 258.528,107.56 258.528,105.56 257.5,103.5C 257.776,101.67 258.443,100.003 259.5,98.5C 264.083,97.4497 268.75,97.4497 273.5,98.5 Z"/></g>
<g><path style="opacity:1" fill="#eb5115" d="M 333.5,98.5 C 336.272,104.381 339.272,110.048 342.5,115.5C 342.631,116.376 342.298,117.043 341.5,117.5C 340.141,116.376 339.141,115.042 338.5,113.5C 336.687,109.268 335.02,104.935 333.5,100.5C 330.242,99.5827 326.909,99.2493 323.5,99.5C 323.5,110.167 323.5,120.833 323.5,131.5C 323.5,131.833 323.5,132.167 323.5,132.5C 322.505,121.346 322.172,110.012 322.5,98.5C 326.167,98.5 329.833,98.5 333.5,98.5 Z"/></g>
<g><path style="opacity:1" fill="#f69911" d="M 195.5,131.5 C 195.714,129.856 195.38,128.356 194.5,127C 189.5,126.333 184.5,126.333 179.5,127C 177.845,128.444 177.178,130.278 177.5,132.5C 174.833,132.5 172.167,132.5 169.5,132.5C 173.215,121.402 177.215,110.402 181.5,99.5C 184.728,98.5863 188.061,98.2529 191.5,98.5C 195.697,109.758 199.697,121.091 203.5,132.5C 200.721,132.721 198.054,132.388 195.5,131.5 Z"/></g>
<g><path style="opacity:1" fill="#f79715" d="M 367.5,122.5 C 367.167,125.167 366.833,127.833 366.5,130.5C 369.518,130.2 371.518,128.533 372.5,125.5C 377.456,124.506 382.456,124.173 387.5,124.5C 387.5,123.5 387.5,122.5 387.5,121.5C 383.298,121.817 379.298,121.483 375.5,120.5C 378.833,120.5 382.167,120.5 385.5,120.5C 385.5,119.167 385.5,117.833 385.5,116.5C 387.898,119.461 389.564,119.128 390.5,115.5C 388.009,111.147 386.176,106.48 385,101.5C 382.281,100.556 379.448,100.223 376.5,100.5C 376.192,102.924 376.526,105.257 377.5,107.5C 378.183,107.137 378.85,106.804 379.5,106.5C 378.681,110.775 377.347,114.775 375.5,118.5C 375.664,115.813 375.497,113.146 375,110.5C 372.296,113.241 370.629,116.575 370,120.5C 369.329,121.252 368.496,121.586 367.5,121.5C 370.232,114.14 373.065,106.807 376,99.5C 379.125,98.2126 382.291,98.2126 385.5,99.5C 390.303,110.247 394.303,121.247 397.5,132.5C 392.631,133.447 389.631,131.613 388.5,127C 383.5,126.333 378.5,126.333 373.5,127C 372.139,128.584 371.472,130.418 371.5,132.5C 368.753,132.813 366.086,132.48 363.5,131.5C 364.609,128.292 365.942,125.292 367.5,122.5 Z"/></g>
<g><path style="opacity:1" fill="#f89418" d="M 273.5,98.5 C 276.059,106.461 279.059,114.128 282.5,121.5C 283.359,125.274 284.359,128.941 285.5,132.5C 280.631,133.447 277.631,131.613 276.5,127C 271.5,126.333 266.5,126.333 261.5,127C 260.139,128.584 259.472,130.418 259.5,132.5C 256.753,132.813 254.086,132.48 251.5,131.5C 254.135,123.906 257.135,116.572 260.5,109.5C 260.996,105.684 262.329,102.184 264.5,99C 267.482,98.502 270.482,98.3354 273.5,98.5 Z"/></g>
<g><path style="opacity:1" fill="#f0a005" d="M 375.5,118.5 C 375.5,119.167 375.5,119.833 375.5,120.5C 379.298,121.483 383.298,121.817 387.5,121.5C 387.5,122.5 387.5,123.5 387.5,124.5C 382.456,124.173 377.456,124.506 372.5,125.5C 371.518,128.533 369.518,130.2 366.5,130.5C 366.833,127.833 367.167,125.167 367.5,122.5C 367.5,122.167 367.5,121.833 367.5,121.5C 368.496,121.586 369.329,121.252 370,120.5C 370.629,116.575 372.296,113.241 375,110.5C 375.497,113.146 375.664,115.813 375.5,118.5 Z"/></g>
<g><path style="opacity:1" fill="#f79715" d="M 339.5,129.5 C 340.5,129.5 341.5,129.5 342.5,129.5C 342.955,127.633 343.622,125.8 344.5,124C 344.065,120.937 343.232,120.77 342,123.5C 338.903,122.711 338.736,121.544 341.5,120C 339.081,118.491 338.081,116.325 338.5,113.5C 339.141,115.042 340.141,116.376 341.5,117.5C 342.298,117.043 342.631,116.376 342.5,115.5C 344.82,110.321 347.153,104.988 349.5,99.5C 352.768,98.513 356.102,98.1796 359.5,98.5C 359.5,109.833 359.5,121.167 359.5,132.5C 357.167,132.5 354.833,132.5 352.5,132.5C 352.666,124.826 352.5,117.159 352,109.5C 348.567,117.016 345.734,124.682 343.5,132.5C 342.167,132.5 340.833,132.5 339.5,132.5C 339.5,131.5 339.5,130.5 339.5,129.5 Z"/></g>
<g><path style="opacity:1" fill="#f19f06" d="M 273.5,116.5 C 271.857,112.97 270.357,109.304 269,105.5C 266.609,110.284 264.776,115.284 263.5,120.5C 267.298,121.483 271.298,121.817 275.5,121.5C 275.5,122.5 275.5,123.5 275.5,124.5C 270.456,124.173 265.456,124.506 260.5,125.5C 259.248,127.001 258.248,128.668 257.5,130.5C 256.311,131.429 254.978,131.762 253.5,131.5C 255.117,125.604 257.283,119.937 260,114.5C 260.494,112.866 260.66,111.199 260.5,109.5C 262.097,108.263 263.263,106.596 264,104.5C 264.49,103.207 264.657,101.873 264.5,100.5C 267.448,100.223 270.281,100.556 273,101.5C 274.176,106.48 276.009,111.147 278.5,115.5C 277.564,119.128 275.898,119.461 273.5,116.5 Z"/></g>
<g><path style="opacity:1" fill="#e52918" d="M 220.5,113.5 C 220.216,116.254 219.549,118.92 218.5,121.5C 216.346,114.24 214.513,106.907 213,99.5C 210.619,98.565 208.119,98.2317 205.5,98.5C 208.165,109.828 210.832,121.162 213.5,132.5C 216.448,132.777 219.281,132.444 222,131.5C 222.881,127.291 224.047,123.291 225.5,119.5C 225.522,124.245 224.522,128.745 222.5,133C 218.623,133.729 214.789,133.562 211,132.5C 208.739,132.887 207.406,134.221 207,136.5C 206.167,135.5 205.333,134.5 204.5,133.5C 201.579,134.407 198.579,134.74 195.5,134.5C 195.5,133.5 195.5,132.5 195.5,131.5C 198.054,132.388 200.721,132.721 203.5,132.5C 199.697,121.091 195.697,109.758 191.5,98.5C 188.061,98.2529 184.728,98.5863 181.5,99.5C 184.608,97.829 188.108,96.829 192,96.5C 191.791,100.459 193.625,102.126 197.5,101.5C 196.948,107.775 197.948,113.775 200.5,119.5C 201.325,120.386 202.325,120.719 203.5,120.5C 203.337,125.578 204.504,126.245 207,122.5C 207.333,123.167 207.667,123.833 208,124.5C 208.263,119.43 207.763,114.43 206.5,109.5C 205.5,109.5 204.5,109.5 203.5,109.5C 203.762,110.978 203.429,112.311 202.5,113.5C 202.167,112.5 201.833,111.5 201.5,110.5C 202.255,107.579 203.255,104.746 204.5,102C 203.847,99.7141 203.847,97.5474 204.5,95.5C 207.812,96.6182 211.145,96.6182 214.5,95.5C 215.412,102.526 216.579,109.526 218,116.5C 218.852,115.429 219.685,114.429 220.5,113.5 Z"/></g>
<g><path style="opacity:1" fill="#f39f09" d="M 338.5,113.5 C 338.081,116.325 339.081,118.491 341.5,120C 338.736,121.544 338.903,122.711 342,123.5C 343.232,120.77 344.065,120.937 344.5,124C 343.622,125.8 342.955,127.633 342.5,129.5C 341.5,129.5 340.5,129.5 339.5,129.5C 338.313,127.928 337.313,126.261 336.5,124.5C 334.832,119.828 333.165,115.162 331.5,110.5C 331.44,109.957 331.107,109.624 330.5,109.5C 329.503,116.803 329.169,124.137 329.5,131.5C 327.5,131.5 325.5,131.5 323.5,131.5C 323.5,120.833 323.5,110.167 323.5,99.5C 326.909,99.2493 330.242,99.5827 333.5,100.5C 335.02,104.935 336.687,109.268 338.5,113.5 Z"/></g>
<g><path style="opacity:1" fill="#f6751a" d="M 290.5,98.5 C 296.69,98.1771 302.69,98.5104 308.5,99.5C 302.5,99.5 296.5,99.5 290.5,99.5C 290.5,110.167 290.5,120.833 290.5,131.5C 292.5,131.5 294.5,131.5 296.5,131.5C 296.185,127.629 296.518,123.962 297.5,120.5C 297.5,124.167 297.5,127.833 297.5,131.5C 297.5,131.833 297.5,132.167 297.5,132.5C 294.833,132.5 292.167,132.5 289.5,132.5C 289.5,121.5 289.5,110.5 289.5,99.5C 289.5,98.8333 289.833,98.5 290.5,98.5 Z"/></g>
<g><path style="opacity:1" fill="#e62a1a" d="M 119.5,98.5 C 113.474,97.6757 108.307,99.3424 104,103.5C 102.506,108.526 103.673,112.692 107.5,116C 112.278,117.361 116.944,119.028 121.5,121C 122.517,122.049 122.684,123.216 122,124.5C 116.51,127.232 111.177,126.899 106,123.5C 103.862,124.43 102.695,126.097 102.5,128.5C 101.876,128.083 101.543,127.416 101.5,126.5C 101.939,124.896 102.606,123.396 103.5,122C 103.05,120.715 102.383,119.548 101.5,118.5C 102.415,117.672 103.081,116.672 103.5,115.5C 100.726,112.018 100.393,108.518 102.5,105C 101.904,102.345 102.737,99.8446 105,97.5C 109.919,97.5528 114.752,97.8861 119.5,98.5 Z"/></g>
<g><path style="opacity:1" fill="#e42917" d="M 385.5,116.5 C 385.5,117.833 385.5,119.167 385.5,120.5C 382.167,120.5 378.833,120.5 375.5,120.5C 375.5,119.833 375.5,119.167 375.5,118.5C 377.347,114.775 378.681,110.775 379.5,106.5C 380.117,106.389 380.617,106.056 381,105.5C 382.357,109.304 383.857,112.97 385.5,116.5 Z"/></g>
<g><path style="opacity:1" fill="#fd7c25" d="M 331.5,110.5 C 330.508,117.648 330.175,124.981 330.5,132.5C 328.167,132.5 325.833,132.5 323.5,132.5C 323.5,132.167 323.5,131.833 323.5,131.5C 325.5,131.5 327.5,131.5 329.5,131.5C 329.169,124.137 329.503,116.803 330.5,109.5C 331.107,109.624 331.44,109.957 331.5,110.5 Z"/></g>
<g><path style="opacity:1" fill="#e42917" d="M 273.5,116.5 C 273.5,117.833 273.5,119.167 273.5,120.5C 270.167,120.5 266.833,120.5 263.5,120.5C 264.776,115.284 266.609,110.284 269,105.5C 270.357,109.304 271.857,112.97 273.5,116.5 Z"/></g>
<g><path style="opacity:1" fill="#f49c0d" d="M 308.5,99.5 C 311.614,100.091 314.114,101.758 316,104.5C 318.075,111.511 315.908,116.677 309.5,120C 311.959,123.75 314.292,127.583 316.5,131.5C 313.833,132.833 311.167,132.833 308.5,131.5C 306.879,127.756 304.879,124.256 302.5,121C 300.866,120.506 299.199,120.34 297.5,120.5C 296.518,123.962 296.185,127.629 296.5,131.5C 294.5,131.5 292.5,131.5 290.5,131.5C 290.5,120.833 290.5,110.167 290.5,99.5C 296.5,99.5 302.5,99.5 308.5,99.5 Z"/></g>
<g><path style="opacity:1" fill="#e52b17" d="M 159.5,98.5 C 161.607,97.5318 163.941,97.1984 166.5,97.5C 166.667,109.505 166.5,121.505 166,133.5C 163.281,134.444 160.448,134.777 157.5,134.5C 157.5,129.5 157.5,124.5 157.5,119.5C 152.833,119.5 148.167,119.5 143.5,119.5C 143.827,124.214 143.493,128.88 142.5,133.5C 139.262,135.095 136.262,134.762 133.5,132.5C 133.471,115.202 132.137,115.202 129.5,132.5C 125.076,134.36 120.41,135.694 115.5,136.5C 116.729,137.281 118.062,137.781 119.5,138C 119.167,138.333 118.833,138.667 118.5,139C 116.064,139.124 113.731,138.624 111.5,137.5C 111.5,136.5 111.5,135.5 111.5,134.5C 109.193,134.014 107.027,134.014 105,134.5C 102.984,133.045 102.151,131.045 102.5,128.5C 109.323,132.811 116.656,133.644 124.5,131C 130.714,125.973 131.047,120.64 125.5,115C 120.514,113.386 115.68,111.553 111,109.5C 110.28,107.888 110.446,106.388 111.5,105C 116.196,103.962 120.529,104.795 124.5,107.5C 127.329,106.175 127.996,104.175 126.5,101.5C 124.855,100.304 123.189,99.3037 121.5,98.5C 124.785,99.4025 128.119,100.402 131.5,101.5C 132.849,101.154 134.183,100.821 135.5,100.5C 135.5,111.167 135.5,121.833 135.5,132.5C 137.833,132.5 140.167,132.5 142.5,132.5C 142.5,127.833 142.5,123.167 142.5,118.5C 147.833,118.5 153.167,118.5 158.5,118.5C 158.5,123.167 158.5,127.833 158.5,132.5C 160.833,132.5 163.167,132.5 165.5,132.5C 165.5,121.167 165.5,109.833 165.5,98.5C 163.5,98.5 161.5,98.5 159.5,98.5 Z"/></g>
<g><path style="opacity:1" fill="#fd901b" d="M 142.5,111.5 C 140.586,108.316 139.92,104.649 140.5,100.5C 139.167,100.5 137.833,100.5 136.5,100.5C 136.5,110.5 136.5,120.5 136.5,130.5C 137.5,130.5 138.5,130.5 139.5,130.5C 140.08,126.858 140.58,123.191 141,119.5C 141.383,118.944 141.883,118.611 142.5,118.5C 142.5,123.167 142.5,127.833 142.5,132.5C 140.167,132.5 137.833,132.5 135.5,132.5C 135.5,121.833 135.5,111.167 135.5,100.5C 137.279,98.6565 139.612,97.9898 142.5,98.5C 142.5,102.833 142.5,107.167 142.5,111.5 Z"/></g>
<g><path style="opacity:1" fill="#f1a006" d="M 385.5,116.5 C 383.857,112.97 382.357,109.304 381,105.5C 380.617,106.056 380.117,106.389 379.5,106.5C 378.85,106.804 378.183,107.137 377.5,107.5C 376.526,105.257 376.192,102.924 376.5,100.5C 379.448,100.223 382.281,100.556 385,101.5C 386.176,106.48 388.009,111.147 390.5,115.5C 389.564,119.128 387.898,119.461 385.5,116.5 Z"/></g>
<g><path style="opacity:1" fill="#e42518" d="M 305.5,105.5 C 308.243,105.077 309.576,106.244 309.5,109C 309.478,111.183 308.478,112.683 306.5,113.5C 303.5,113.5 300.5,113.5 297.5,113.5C 297.5,110.833 297.5,108.167 297.5,105.5C 300.167,105.5 302.833,105.5 305.5,105.5 Z"/></g>
<g><path style="opacity:0.999" fill="#e22e15" d="M 185.5,105.5 C 188.812,109.817 190.812,114.817 191.5,120.5C 188.167,120.5 184.833,120.5 181.5,120.5C 182.833,115.5 184.167,110.5 185.5,105.5 Z"/></g>
<g><path style="opacity:1" fill="#f1a006" d="M 142.5,111.5 C 147.833,112.833 153.167,112.833 158.5,111.5C 159.482,108.038 159.815,104.371 159.5,100.5C 161.167,100.5 162.833,100.5 164.5,100.5C 164.5,110.833 164.5,121.167 164.5,131.5C 163.167,131.5 161.833,131.5 160.5,131.5C 160.5,126.833 160.5,122.167 160.5,117.5C 154.31,117.177 148.31,117.51 142.5,118.5C 141.883,118.611 141.383,118.944 141,119.5C 140.58,123.191 140.08,126.858 139.5,130.5C 138.5,130.5 137.5,130.5 136.5,130.5C 136.5,120.5 136.5,110.5 136.5,100.5C 137.833,100.5 139.167,100.5 140.5,100.5C 139.92,104.649 140.586,108.316 142.5,111.5 Z"/></g>
<g><path style="opacity:1" fill="#e9600a" d="M 158.5,99.5 C 158.5,103.5 158.5,107.5 158.5,111.5C 153.167,112.833 147.833,112.833 142.5,111.5C 147.5,111.5 152.5,111.5 157.5,111.5C 157.183,107.298 157.517,103.298 158.5,99.5 Z"/></g>
<g><path style="opacity:1" fill="#f59b0f" d="M 119.5,98.5 C 120.167,98.5 120.833,98.5 121.5,98.5C 123.189,99.3037 124.855,100.304 126.5,101.5C 127.996,104.175 127.329,106.175 124.5,107.5C 120.529,104.795 116.196,103.962 111.5,105C 110.446,106.388 110.28,107.888 111,109.5C 115.68,111.553 120.514,113.386 125.5,115C 131.047,120.64 130.714,125.973 124.5,131C 116.656,133.644 109.323,132.811 102.5,128.5C 102.695,126.097 103.862,124.43 106,123.5C 111.177,126.899 116.51,127.232 122,124.5C 122.684,123.216 122.517,122.049 121.5,121C 116.944,119.028 112.278,117.361 107.5,116C 103.673,112.692 102.506,108.526 104,103.5C 108.307,99.3424 113.474,97.6757 119.5,98.5 Z"/></g>
<g><path style="opacity:1" fill="#e95f0c" d="M 305.5,105.5 C 302.833,105.5 300.167,105.5 297.5,105.5C 297.5,108.167 297.5,110.833 297.5,113.5C 300.5,113.5 303.5,113.5 306.5,113.5C 303.375,114.479 300.042,114.813 296.5,114.5C 296.5,111.167 296.5,107.833 296.5,104.5C 299.713,104.19 302.713,104.523 305.5,105.5 Z"/></g>
<g><path style="opacity:1" fill="#f59a0f" d="M 220.5,113.5 C 222.783,108.862 224.116,103.862 224.5,98.5C 226.792,98.2436 228.959,98.5769 231,99.5C 232.686,106.909 234.686,114.242 237,121.5C 238.614,116.071 240.114,110.737 241.5,105.5C 242.479,104.235 243.479,102.901 244.5,101.5C 245.689,100.571 247.022,100.238 248.5,100.5C 248.037,103.482 247.704,106.482 247.5,109.5C 246.85,111.435 246.517,113.435 246.5,115.5C 244.259,120.9 242.592,126.567 241.5,132.5C 238.833,132.5 236.167,132.5 233.5,132.5C 231.97,125.08 230.137,117.746 228,110.5C 226.269,112.862 225.435,115.529 225.5,118.5C 225.5,118.833 225.5,119.167 225.5,119.5C 224.047,123.291 222.881,127.291 222,131.5C 219.281,132.444 216.448,132.777 213.5,132.5C 210.832,121.162 208.165,109.828 205.5,98.5C 208.119,98.2317 210.619,98.565 213,99.5C 214.513,106.907 216.346,114.24 218.5,121.5C 219.549,118.92 220.216,116.254 220.5,113.5 Z"/></g>
<g><path style="opacity:1" fill="#fd901e" d="M 159.5,98.5 C 161.5,98.5 163.5,98.5 165.5,98.5C 165.5,109.833 165.5,121.167 165.5,132.5C 163.167,132.5 160.833,132.5 158.5,132.5C 158.5,127.833 158.5,123.167 158.5,118.5C 153.167,118.5 147.833,118.5 142.5,118.5C 148.31,117.51 154.31,117.177 160.5,117.5C 160.5,122.167 160.5,126.833 160.5,131.5C 161.833,131.5 163.167,131.5 164.5,131.5C 164.5,121.167 164.5,110.833 164.5,100.5C 162.833,100.5 161.167,100.5 159.5,100.5C 159.815,104.371 159.482,108.038 158.5,111.5C 158.5,107.5 158.5,103.5 158.5,99.5C 158.5,98.8333 158.833,98.5 159.5,98.5 Z"/></g>
<g><path style="opacity:1" fill="#f1a104" d="M 353.5,99.5 C 355.167,99.5 356.833,99.5 358.5,99.5C 358.808,109.553 358.475,119.553 357.5,129.5C 356.672,130.415 355.672,131.081 354.5,131.5C 353.502,123.528 353.169,115.528 353.5,107.5C 351.857,107.48 350.524,108.147 349.5,109.5C 347.581,104.782 348.914,101.448 353.5,99.5 Z"/></g>
<g><path style="opacity:1" fill="#fa8c1a" d="M 247.5,109.5 C 247.704,106.482 248.037,103.482 248.5,100.5C 247.022,100.238 245.689,100.571 244.5,101.5C 243.479,102.901 242.479,104.235 241.5,105.5C 241.674,103.139 242.007,100.806 242.5,98.5C 245.167,98.5 247.833,98.5 250.5,98.5C 249.945,102.397 248.945,106.063 247.5,109.5 Z"/></g>
<g><path style="opacity:1" fill="#a11d25" d="M 104.5,81.5 C 98.7772,88.2249 92.4439,94.2249 85.5,99.5C 91.2228,92.7751 97.5561,86.7751 104.5,81.5 Z"/></g>
<g><path style="opacity:1" fill="#d91f27" d="M 398.5,84.5 C 406.601,91.2625 413.601,98.9291 419.5,107.5C 415.494,103.827 411.494,100.16 407.5,96.5C 406.05,97.6554 405.05,99.1554 404.5,101C 403.552,101.483 402.552,101.649 401.5,101.5C 401.328,99.5082 401.995,97.8415 403.5,96.5C 402.24,95.6184 401.074,94.6184 400,93.5C 399.784,95.3839 399.117,97.0506 398,98.5C 398.95,95.6969 398.116,93.3636 395.5,91.5C 397.082,89.4229 398.082,87.0896 398.5,84.5 Z"/></g>
<g><path style="opacity:1" fill="#a62026" d="M 115.5,72.5 C 112.393,76.2153 108.727,79.2153 104.5,81.5C 107.607,77.7847 111.273,74.7847 115.5,72.5 Z"/></g>
<g><path style="opacity:1" fill="#d1202a" d="M 356.5,55.5 C 366.816,59.9901 376.149,65.9901 384.5,73.5C 379.808,70.6454 374.808,68.4787 369.5,67C 368.359,66.2588 368.359,65.4255 369.5,64.5C 368.975,63.8076 368.308,63.3076 367.5,63C 365.345,62.884 363.345,63.2173 361.5,64C 362.022,63.4387 362.355,62.772 362.5,62C 360.968,59.3047 358.968,57.138 356.5,55.5 Z"/></g>
<g><path style="opacity:1" fill="#c6212a" d="M 341.5,47.5 C 346.984,49.4068 351.984,52.0734 356.5,55.5C 351.194,54.3982 346.194,52.7315 341.5,50.5C 341.5,49.5 341.5,48.5 341.5,47.5 Z"/></g>
<g><path style="opacity:1" fill="#be2229" d="M 171.5,41.5 C 169.747,43.2225 167.747,44.7225 165.5,46C 158.956,48.0373 152.956,51.0373 147.5,55C 142.278,57.3743 136.945,59.541 131.5,61.5C 143.647,52.7596 156.981,46.0929 171.5,41.5 Z"/></g>
<g><path style="opacity:1" fill="#b52227" d="M 190.5,35.5 C 184.91,39.3248 178.576,41.3248 171.5,41.5C 177.4,38.436 183.733,36.436 190.5,35.5 Z"/></g>
<g><path style="opacity:1" fill="#b9232a" d="M 303.5,34.5 C 308.208,35.2419 312.875,36.2419 317.5,37.5C 318.713,37.7472 319.38,38.4138 319.5,39.5C 313.714,38.5674 308.381,36.9008 303.5,34.5 Z"/></g>
<g><path style="opacity:1" fill="#b8212a" d="M 214.5,29.5 C 213.942,30.7899 212.942,31.6232 211.5,32C 204.922,33.6778 198.255,34.8445 191.5,35.5C 198.778,32.4292 206.445,30.4292 214.5,29.5 Z"/></g>
<g><path style="opacity:1" fill="#c8242b" d="M 271.5,28.5 C 282.003,29.195 292.336,30.8617 302.5,33.5C 303.167,33.5 303.5,33.8333 303.5,34.5C 296.243,33.2979 288.91,32.2979 281.5,31.5C 277.737,31.1038 274.403,30.1038 271.5,28.5 Z"/></g>
<g><path style="opacity:1" fill="#230200" d="M 302.5,33.5 C 292.336,30.8617 282.003,29.195 271.5,28.5C 255.672,27.3386 239.672,27.1719 223.5,28C 222.584,28.2784 221.918,28.7784 221.5,29.5C 220.167,29.5 218.833,29.5 217.5,29.5C 218.808,28.7677 220.142,27.9344 221.5,27C 244.899,25.8986 268.232,26.5652 291.5,29C 295.262,30.4166 298.928,31.9166 302.5,33.5 Z"/></g>
<g><path style="opacity:1" fill="#ad2126" d="M 271.5,28.5 C 254.816,28.2941 238.15,28.6274 221.5,29.5C 221.918,28.7784 222.584,28.2784 223.5,28C 239.672,27.1719 255.672,27.3386 271.5,28.5 Z"/></g>
<g><path style="opacity:1" fill="#ac2027" d="M 53.5,144.5 C 51.4076,151.358 48.7409,158.025 45.5,164.5C 45.0431,165.298 44.3764,165.631 43.5,165.5C 46.0778,158.078 49.4112,151.078 53.5,144.5 Z"/></g>
<g><path style="opacity:1" fill="#9c1a25" d="M 451.5,157.5 C 454.257,161.416 456.257,165.75 457.5,170.5C 456.1,169.9 455.1,168.9 454.5,167.5C 452.92,164.341 451.92,161.007 451.5,157.5 Z"/></g>
<g><path style="opacity:1" fill="#fdd4d2" d="M 430.5,166.5 C 431.167,167.833 432.167,168.833 433.5,169.5C 433.5,169.833 433.5,170.167 433.5,170.5C 431.391,169.609 429.391,168.442 427.5,167C 423.179,166.501 418.846,166.334 414.5,166.5C 419.695,163.967 425.028,163.967 430.5,166.5 Z"/></g>
<g><path style="opacity:1" fill="#b3242d" d="M 430.5,166.5 C 432.921,167.891 435.588,168.725 438.5,169C 439.252,169.671 439.586,170.504 439.5,171.5C 437.5,170.833 435.5,170.167 433.5,169.5C 432.167,168.833 431.167,167.833 430.5,166.5 Z"/></g>
<g><path style="opacity:1" fill="#100505" d="M 433.5,169.5 C 435.5,170.167 437.5,170.833 439.5,171.5C 440.167,172.5 440.833,173.5 441.5,174.5C 443.953,178.084 445.286,182.084 445.5,186.5C 444.978,191.73 443.645,196.73 441.5,201.5C 439.355,204.433 437.188,207.433 435,210.5C 431.977,212.698 429.144,215.031 426.5,217.5C 423.793,217.848 421.793,219.181 420.5,221.5C 421.205,225.001 422.205,228.335 423.5,231.5C 420.215,231.731 417.715,230.397 416,227.5C 413.758,223.655 412.924,219.655 413.5,215.5C 416.22,214.14 418.886,212.807 421.5,211.5C 425.167,209.833 427.833,207.167 429.5,203.5C 437.02,193.187 438.353,182.187 433.5,170.5C 433.5,170.167 433.5,169.833 433.5,169.5 Z"/></g>
<g><path style="opacity:1" fill="#f0ecec" d="M 309.5,171.5 C 310.306,172.728 311.306,173.728 312.5,174.5C 316.862,180.814 316.195,186.647 310.5,192C 308.091,193.707 305.425,194.54 302.5,194.5C 292.618,191.739 289.284,185.406 292.5,175.5C 297.138,170.453 302.805,169.119 309.5,171.5 Z"/></g>
<g><path style="opacity:1" fill="#efecec" d="M 414.5,166.5 C 418.846,166.334 423.179,166.501 427.5,167C 429.391,168.442 431.391,169.609 433.5,170.5C 438.353,182.187 437.02,193.187 429.5,203.5C 426.5,205.833 423.833,208.5 421.5,211.5C 418.886,212.807 416.22,214.14 413.5,215.5C 412.924,219.655 413.758,223.655 416,227.5C 417.715,230.397 420.215,231.731 423.5,231.5C 428.069,230.983 432.069,229.317 435.5,226.5C 441.784,221.541 446.117,215.208 448.5,207.5C 449.93,207.579 451.264,207.246 452.5,206.5C 452.833,207 453.167,207.5 453.5,208C 451.931,212.115 450.598,216.282 449.5,220.5C 447.25,223.999 445.25,227.665 443.5,231.5C 434.739,242.213 423.406,247.546 409.5,247.5C 403.009,246.156 398.176,242.489 395,236.5C 390.619,226.3 388.785,215.633 389.5,204.5C 389.271,199.99 389.938,195.657 391.5,191.5C 392.698,188.574 393.698,185.574 394.5,182.5C 399.09,174.577 405.757,169.244 414.5,166.5 Z"/></g>
<g><path style="opacity:1" fill="#0a0506" d="M 423.5,177.5 C 421.162,182.528 419.828,187.861 419.5,193.5C 418.523,196.287 418.19,199.287 418.5,202.5C 411.784,211.62 409.117,210.453 410.5,199C 410.274,191.577 411.441,184.41 414,177.5C 415.711,174.42 418.211,173.254 421.5,174C 422.823,174.816 423.489,175.983 423.5,177.5 Z"/></g>
<g><path style="opacity:1" fill="#b52327" d="M 43.5,166.5 C 42.3378,173.987 40.0045,180.987 36.5,187.5C 37.453,182.741 38.6196,178.074 40,173.5C 41.2126,171.075 42.3793,168.741 43.5,166.5 Z"/></g>
<g><path style="opacity:1" fill="#a52126" d="M 457.5,171.5 C 459.205,175.331 460.538,179.331 461.5,183.5C 458.958,180.039 457.625,176.039 457.5,171.5 Z"/></g>
<g><path style="opacity:1" fill="#c7232a" d="M 309.5,171.5 C 312.787,172.161 316.12,172.661 319.5,173C 318.833,173.333 318.167,173.667 317.5,174C 319.754,175.377 321.92,176.877 324,178.5C 324.667,182.833 324.667,187.167 324,191.5C 321.617,194.932 319.784,198.599 318.5,202.5C 320.92,202.292 323.253,202.626 325.5,203.5C 326.497,210.134 326.83,216.8 326.5,223.5C 325.457,217.35 324.79,211.016 324.5,204.5C 322.139,204.674 319.806,205.007 317.5,205.5C 316.662,205.158 316.328,204.492 316.5,203.5C 316.843,201.517 316.176,200.183 314.5,199.5C 316.076,198.857 317.41,197.857 318.5,196.5C 326.657,186.447 324.657,179.114 312.5,174.5C 311.306,173.728 310.306,172.728 309.5,171.5 Z"/></g>
<g><path style="opacity:1" fill="#130504" d="M 312.5,174.5 C 324.657,179.114 326.657,186.447 318.5,196.5C 315.598,197.578 312.598,198.244 309.5,198.5C 306.669,197.921 304.336,196.588 302.5,194.5C 305.425,194.54 308.091,193.707 310.5,192C 316.195,186.647 316.862,180.814 312.5,174.5 Z"/></g>
<g><path style="opacity:1" fill="#0f0706" d="M 381.5,185.5 C 383.685,185.704 385.685,186.37 387.5,187.5C 388.5,189.167 389.833,190.5 391.5,191.5C 389.938,195.657 389.271,199.99 389.5,204.5C 388.151,205.953 386.485,206.953 384.5,207.5C 381.188,207.851 378.855,206.518 377.5,203.5C 384.836,198.82 386.169,192.82 381.5,185.5 Z"/></g>
<g><path style="opacity:1" fill="#b72d33" d="M 394.5,182.5 C 393.698,185.574 392.698,188.574 391.5,191.5C 389.833,190.5 388.5,189.167 387.5,187.5C 388.583,187.539 389.583,187.873 390.5,188.5C 391.66,186.289 392.993,184.289 394.5,182.5 Z"/></g>
<g><path style="opacity:1" fill="#f9d8d8" d="M 376.5,182.5 C 372.954,182.559 369.621,183.392 366.5,185C 362.623,188.708 358.957,192.542 355.5,196.5C 354.281,192.619 351.614,190.619 347.5,190.5C 343.57,192.147 339.57,193.48 335.5,194.5C 337.627,213.12 339.127,231.787 340,250.5C 339.051,252.093 337.885,253.426 336.5,254.5C 337.783,251.31 338.45,247.976 338.5,244.5C 338.036,237.328 337.369,230.328 336.5,223.5C 336.303,216.974 335.636,210.641 334.5,204.5C 333.363,200.618 333.363,196.784 334.5,193C 340.418,190.873 346.418,189.039 352.5,187.5C 353.442,187.608 354.275,187.941 355,188.5C 355.202,190.256 355.702,191.922 356.5,193.5C 359.992,189.175 363.992,185.342 368.5,182C 371.367,181.199 374.034,181.366 376.5,182.5 Z"/></g>
<g><path style="opacity:1" fill="#c73c3f" d="M 423.5,177.5 C 426.528,185.564 425.528,193.23 420.5,200.5C 419.532,198.393 419.198,196.059 419.5,193.5C 419.828,187.861 421.162,182.528 423.5,177.5 Z"/></g>
<g><path style="opacity:1" fill="#e22029" d="M 422.5,183.5 C 423.586,183.62 424.253,184.287 424.5,185.5C 423.499,188.839 422.499,192.173 421.5,195.5C 420.323,191.397 420.656,187.397 422.5,183.5 Z"/></g>
<g><path style="opacity:1" fill="#b92128" d="M 36.5,187.5 C 35.8647,193.581 34.698,199.581 33,205.5C 32.6174,206.056 32.1174,206.389 31.5,206.5C 32.0987,199.766 33.7654,193.432 36.5,187.5 Z"/></g>
<g><path style="opacity:1" fill="#e12429" d="M 292.5,175.5 C 289.284,185.406 292.618,191.739 302.5,194.5C 304.336,196.588 306.669,197.921 309.5,198.5C 309.218,199.778 308.551,200.778 307.5,201.5C 303.784,203.405 299.784,204.739 295.5,205.5C 295.5,209.5 295.5,213.5 295.5,217.5C 295.356,221.375 295.69,225.208 296.5,229C 296.333,229.833 296.167,230.667 296,231.5C 295.583,230.244 294.75,229.577 293.5,229.5C 291.087,224.752 287.42,221.419 282.5,219.5C 281.5,219.167 280.833,218.5 280.5,217.5C 284.794,218.352 289.127,219.018 293.5,219.5C 294.937,219.671 295.103,216.671 294,210.5C 293.02,208.941 292.187,207.274 291.5,205.5C 289.786,206.609 289.119,205.942 289.5,203.5C 291.861,203.674 294.194,204.007 296.5,204.5C 296.08,202.326 296.08,200.326 296.5,198.5C 293.441,196.377 290.108,194.877 286.5,194C 287.5,193.5 288.5,193 289.5,192.5C 291.098,193.485 292.765,193.651 294.5,193C 293,192.167 291.833,191 291,189.5C 290.333,185.167 290.333,180.833 291,176.5C 291.383,175.944 291.883,175.611 292.5,175.5 Z"/></g>
<g><path style="opacity:1" fill="#af3539" d="M 318.5,196.5 C 317.41,197.857 316.076,198.857 314.5,199.5C 312.299,200.566 309.965,201.233 307.5,201.5C 308.551,200.778 309.218,199.778 309.5,198.5C 312.598,198.244 315.598,197.578 318.5,196.5 Z"/></g>
<g><path style="opacity:1" fill="#0d0303" d="M 363.5,197.5 C 363.369,198.376 363.702,199.043 364.5,199.5C 365.265,198.388 366.265,197.721 367.5,197.5C 368.167,198.833 368.833,200.167 369.5,201.5C 368.969,203.544 367.802,205.211 366,206.5C 365.182,212.349 365.348,218.015 366.5,223.5C 367.276,230.137 367.609,236.804 367.5,243.5C 367.646,247.387 368.313,251.054 369.5,254.5C 369.216,256.415 369.549,258.081 370.5,259.5C 370.817,262.572 370.484,265.572 369.5,268.5C 367.22,269.136 365.22,270.136 363.5,271.5C 360.37,271.7 357.37,272.366 354.5,273.5C 353.167,273.5 351.833,273.5 350.5,273.5C 350.737,272.209 350.404,271.209 349.5,270.5C 349.5,269.833 349.5,269.167 349.5,268.5C 353.475,267.184 357.475,265.851 361.5,264.5C 360.907,245.316 359.241,226.149 356.5,207C 357.517,202.775 359.85,199.608 363.5,197.5 Z"/></g>
<g><path style="opacity:1" fill="#802f2e" d="M 419.5,193.5 C 419.198,196.059 419.532,198.393 420.5,200.5C 420.167,201.5 419.5,202.167 418.5,202.5C 418.19,199.287 418.523,196.287 419.5,193.5 Z"/></g>
<g><path style="opacity:1" fill="#a61d24" d="M 464.5,194.5 C 466.258,197.854 467.258,201.521 467.5,205.5C 464.807,202.461 463.807,198.794 464.5,194.5 Z"/></g>
<g><path style="opacity:1" fill="#f9d0d2" d="M 314.5,199.5 C 316.176,200.183 316.843,201.517 316.5,203.5C 315.844,202.722 315.011,202.056 314,201.5C 308.294,203.738 302.461,205.405 296.5,206.5C 298.196,218.998 299.196,231.665 299.5,244.5C 298.343,241.727 297.676,238.727 297.5,235.5C 297.816,229.25 297.15,223.25 295.5,217.5C 295.5,213.5 295.5,209.5 295.5,205.5C 299.784,204.739 303.784,203.405 307.5,201.5C 309.965,201.233 312.299,200.566 314.5,199.5 Z"/></g>
<g><path style="opacity:1" fill="#ae2a2f" d="M 369.5,201.5 C 371.82,203.226 374.487,203.893 377.5,203.5C 378.855,206.518 381.188,207.851 384.5,207.5C 381.259,209.139 378.592,208.305 376.5,205C 373.961,204.204 371.628,204.371 369.5,205.5C 368.542,205.953 367.708,206.619 367,207.5C 366.501,212.823 366.334,218.156 366.5,223.5C 365.348,218.015 365.182,212.349 366,206.5C 367.802,205.211 368.969,203.544 369.5,201.5 Z"/></g>
<g><path style="opacity:1" fill="#eeecec" d="M 376.5,182.5 C 378.411,183.075 380.078,184.075 381.5,185.5C 386.169,192.82 384.836,198.82 377.5,203.5C 374.487,203.893 371.82,203.226 369.5,201.5C 368.833,200.167 368.167,198.833 367.5,197.5C 366.167,196.167 364.833,196.167 363.5,197.5C 359.85,199.608 357.517,202.775 356.5,207C 359.241,226.149 360.907,245.316 361.5,264.5C 357.475,265.851 353.475,267.184 349.5,268.5C 348.209,268.263 347.209,268.596 346.5,269.5C 344.883,270.038 343.216,270.371 341.5,270.5C 341.628,268.345 341.128,266.345 340,264.5C 334.76,272.871 327.26,277.871 317.5,279.5C 312.669,279.084 308.669,277.084 305.5,273.5C 304.492,271.456 303.492,269.456 302.5,267.5C 302.073,264.99 301.407,262.657 300.5,260.5C 300.167,255.167 299.833,249.833 299.5,244.5C 299.196,231.665 298.196,218.998 296.5,206.5C 302.461,205.405 308.294,203.738 314,201.5C 315.011,202.056 315.844,202.722 316.5,203.5C 316.328,204.492 316.662,205.158 317.5,205.5C 318.603,221.861 320.103,238.194 322,254.5C 322.273,259.273 324.773,261.273 329.5,260.5C 332.447,259.219 334.781,257.219 336.5,254.5C 337.885,253.426 339.051,252.093 340,250.5C 339.127,231.787 337.627,213.12 335.5,194.5C 339.57,193.48 343.57,192.147 347.5,190.5C 351.614,190.619 354.281,192.619 355.5,196.5C 358.957,192.542 362.623,188.708 366.5,185C 369.621,183.392 372.954,182.559 376.5,182.5 Z"/></g>
<g><path style="opacity:1" fill="#91424a" d="M 367.5,197.5 C 366.265,197.721 365.265,198.388 364.5,199.5C 363.702,199.043 363.369,198.376 363.5,197.5C 364.833,196.167 366.167,196.167 367.5,197.5 Z"/></g>
<g><path style="opacity:1" fill="#0c0202" d="M 326.5,223.5 C 326.849,234.372 327.849,245.039 329.5,255.5C 329.5,257.167 329.5,258.833 329.5,260.5C 324.773,261.273 322.273,259.273 322,254.5C 320.103,238.194 318.603,221.861 317.5,205.5C 319.806,205.007 322.139,204.674 324.5,204.5C 324.79,211.016 325.457,217.35 326.5,223.5 Z"/></g>
<g><path style="opacity:1" fill="#99454a" d="M 429.5,203.5 C 427.833,207.167 425.167,209.833 421.5,211.5C 423.833,208.5 426.5,205.833 429.5,203.5 Z"/></g>
<g><path style="opacity:1" fill="#b62128" d="M 441.5,201.5 C 439.444,207.767 435.778,212.933 430.5,217C 429.207,217.49 427.873,217.657 426.5,217.5C 429.144,215.031 431.977,212.698 435,210.5C 437.188,207.433 439.355,204.433 441.5,201.5 Z"/></g>
<g><path style="opacity:1" fill="#d13337" d="M 273.5,214.5 C 265.465,213.921 258.465,216.254 252.5,221.5C 251.167,221.5 249.833,221.5 248.5,221.5C 247.659,219.621 247.325,217.621 247.5,215.5C 249.048,215.821 249.715,216.821 249.5,218.5C 251.527,218.662 253.527,218.495 255.5,218C 260.993,213.758 266.993,212.591 273.5,214.5 Z"/></g>
<g><path style="opacity:1" fill="#d7474a" d="M 334.5,204.5 C 335.636,210.641 336.303,216.974 336.5,223.5C 334.544,217.588 333.877,211.255 334.5,204.5 Z"/></g>
<g><path style="opacity:1" fill="#eeeded" d="M 273.5,214.5 C 275.649,215.736 277.982,216.736 280.5,217.5C 280.833,218.5 281.5,219.167 282.5,219.5C 291.963,236.002 294.797,253.669 291,272.5C 285.467,290.08 273.8,297.413 256,294.5C 256.928,306.279 258.094,318.112 259.5,330C 259.167,330.833 258.833,331.667 258.5,332.5C 254.525,334.499 250.859,336.832 247.5,339.5C 245.326,339.75 243.659,340.75 242.5,342.5C 241.417,342.539 240.417,342.873 239.5,343.5C 238.723,338.825 238.056,334.158 237.5,329.5C 237.473,323.949 236.806,318.616 235.5,313.5C 235.5,312.833 235.5,312.167 235.5,311.5C 235.001,307.51 234.501,303.51 234,299.5C 228.592,308.123 220.758,312.456 210.5,312.5C 203.035,310.037 198.368,305.037 196.5,297.5C 196.5,296.833 196.5,296.167 196.5,295.5C 195.778,286.168 194.944,276.834 194,267.5C 193.721,264.543 192.887,261.877 191.5,259.5C 190.517,256.013 188.183,254.68 184.5,255.5C 182.5,256.833 180.833,258.5 179.5,260.5C 178.678,264.126 178.011,267.793 177.5,271.5C 179.973,288.427 181.64,305.427 182.5,322.5C 178.031,323.435 173.697,324.768 169.5,326.5C 167.196,327.163 164.863,327.83 162.5,328.5C 161.893,328.376 161.56,328.043 161.5,327.5C 160.535,308.578 158.535,289.912 155.5,271.5C 154.046,266.514 151.046,265.347 146.5,268C 144.898,269.935 143.731,272.101 143,274.5C 143.934,294.171 144.934,313.837 146,333.5C 142.272,335.131 138.439,336.465 134.5,337.5C 131.63,338.634 128.63,339.3 125.5,339.5C 125.5,336.5 125.5,333.5 125.5,330.5C 125.785,328.712 125.452,327.045 124.5,325.5C 122.568,328.366 120.901,331.366 119.5,334.5C 109.591,348.622 95.9247,355.622 78.5,355.5C 73.9913,354.446 69.9913,352.446 66.5,349.5C 63.9855,346.47 61.9855,343.137 60.5,339.5C 60.5196,334.154 59.8529,328.987 58.5,324C 59.3075,317.311 60.8075,310.811 63,304.5C 64.1095,302.757 65.6095,301.424 67.5,300.5C 67.2907,299.914 66.9574,299.414 66.5,299C 69.2193,296.618 71.5526,293.951 73.5,291C 71.0962,287.294 67.7629,284.794 63.5,283.5C 62.3263,282.486 61.6596,281.153 61.5,279.5C 60.3158,275.773 59.6492,271.94 59.5,268C 60.5792,262.182 61.5792,256.349 62.5,250.5C 66.2301,243.103 71.8967,237.77 79.5,234.5C 88.2247,232.137 96.2247,233.47 103.5,238.5C 110.051,247.264 110.051,255.931 103.5,264.5C 100.022,264.816 96.6883,264.316 93.5,263C 94.056,262.617 94.3893,262.117 94.5,261.5C 96.7275,257.084 97.0608,252.417 95.5,247.5C 93.2755,242.891 89.6088,241.391 84.5,243C 77.1939,247.905 74.3606,254.739 76,263.5C 77.3855,271.978 81.8855,277.978 89.5,281.5C 91.9479,282.473 94.6146,282.806 97.5,282.5C 97.1667,283.167 96.8333,283.833 96.5,284.5C 95.5084,284.328 94.8417,284.662 94.5,285.5C 80.8584,298.75 78.025,314.084 86,331.5C 88.0287,334.596 90.862,336.262 94.5,336.5C 101.241,336.625 106.908,334.292 111.5,329.5C 115.867,327.455 118.867,324.122 120.5,319.5C 121.558,318.4 122.392,317.066 123,315.5C 123.498,312.183 123.665,308.85 123.5,305.5C 122.868,291.441 121.868,277.441 120.5,263.5C 123.496,262.73 126.163,261.396 128.5,259.5C 129.167,259.5 129.5,259.167 129.5,258.5C 132.789,257.626 136.123,256.959 139.5,256.5C 139.215,258.288 139.548,259.955 140.5,261.5C 142.493,259.172 144.493,256.839 146.5,254.5C 152.801,249.7 159.801,248.367 167.5,250.5C 169.142,251.803 170.809,253.136 172.5,254.5C 173.596,258.289 174.263,258.289 174.5,254.5C 177.592,246.407 183.259,241.074 191.5,238.5C 198.121,237.374 203.787,239.041 208.5,243.5C 210.683,247.211 212.183,251.211 213,255.5C 214.441,266.121 215.441,276.788 216,287.5C 216.628,292.635 219.461,294.968 224.5,294.5C 226.582,294.528 228.416,293.861 230,292.5C 231.867,288.463 233.367,284.297 234.5,280C 234,278.5 233.5,277 233,275.5C 230.94,257.989 229.44,240.322 228.5,222.5C 232.102,222.308 235.102,220.974 237.5,218.5C 240.699,217.101 244.032,216.101 247.5,215.5C 247.325,217.621 247.659,219.621 248.5,221.5C 248.34,223.199 248.506,224.866 249,226.5C 249.997,224.677 251.164,223.01 252.5,221.5C 258.465,216.254 265.465,213.921 273.5,214.5 Z"/></g>
<g><path style="opacity:1" fill="#1f1010" d="M 248.5,221.5 C 249.833,221.5 251.167,221.5 252.5,221.5C 251.164,223.01 249.997,224.677 249,226.5C 248.506,224.866 248.34,223.199 248.5,221.5 Z"/></g>
<g><path style="opacity:1" fill="#df252b" d="M 369.5,205.5 C 371.628,204.371 373.961,204.204 376.5,205C 378.592,208.305 381.259,209.139 384.5,207.5C 386.485,206.953 388.151,205.953 389.5,204.5C 388.785,215.633 390.619,226.3 395,236.5C 398.176,242.489 403.009,246.156 409.5,247.5C 410.749,249.136 412.416,250.303 414.5,251C 420.983,251.835 427.316,251.168 433.5,249C 438.389,246.395 443.055,243.562 447.5,240.5C 446.188,242.479 444.521,244.145 442.5,245.5C 441.833,247.5 441.167,249.5 440.5,251.5C 438.568,250.48 436.568,250.313 434.5,251C 430.51,252.024 426.677,253.524 423,255.5C 419.62,253.65 416.454,253.65 413.5,255.5C 412.833,255.167 412.167,254.833 411.5,254.5C 412.506,253.604 412.506,252.938 411.5,252.5C 409.167,253.167 406.833,253.833 404.5,254.5C 402.833,253.167 401.167,251.833 399.5,250.5C 400,250.167 400.5,249.833 401,249.5C 402.879,251.013 405.046,251.679 407.5,251.5C 407.5,250.5 407.5,249.5 407.5,248.5C 403.677,246.929 399.677,245.929 395.5,245.5C 396.397,240.728 394.397,238.395 389.5,238.5C 387.955,236.457 386.621,234.29 385.5,232C 385.658,229.851 386.492,228.017 388,226.5C 388.499,220.509 388.666,214.509 388.5,208.5C 386.336,209.478 384.17,210.478 382,211.5C 379.085,209.908 376.252,208.075 373.5,206C 372.207,205.51 370.873,205.343 369.5,205.5 Z"/></g>
<g><path style="opacity:1" fill="#dc262c" d="M 129.5,258.5 C 129.5,259.167 129.167,259.5 128.5,259.5C 125.888,260.371 123.221,261.037 120.5,261.5C 119.5,261.5 118.5,261.5 117.5,261.5C 117.81,258.287 117.477,255.287 116.5,252.5C 114.948,245.28 110.614,240.613 103.5,238.5C 96.2247,233.47 88.2247,232.137 79.5,234.5C 79.6107,233.883 79.944,233.383 80.5,233C 85.4889,232.501 90.4889,232.334 95.5,232.5C 95.5,231.5 95.5,230.5 95.5,229.5C 99.4089,228.737 100.742,230.07 99.5,233.5C 101.407,234.37 103.24,235.37 105,236.5C 106.261,236.241 107.261,235.574 108,234.5C 108.333,235.833 108.667,237.167 109,238.5C 110.973,239.64 112.807,240.973 114.5,242.5C 117.518,248.067 119.018,254.067 119,260.5C 121.101,258.063 122.934,255.396 124.5,252.5C 125.76,254.353 125.76,256.186 124.5,258C 126.134,258.494 127.801,258.66 129.5,258.5 Z"/></g>
<g><path style="opacity:1" fill="#c1343b" d="M 295.5,217.5 C 297.15,223.25 297.816,229.25 297.5,235.5C 295.684,233.882 294.351,231.882 293.5,229.5C 294.75,229.577 295.583,230.244 296,231.5C 296.167,230.667 296.333,229.833 296.5,229C 295.69,225.208 295.356,221.375 295.5,217.5 Z"/></g>
<g><path style="opacity:1" fill="#0c0505" d="M 265.5,232.5 C 262.861,234.309 260.694,236.642 259,239.5C 259.169,254.19 260.002,268.856 261.5,283.5C 260.508,283.328 259.842,283.662 259.5,284.5C 257.278,284.822 255.444,284.155 254,282.5C 252.533,266.84 251.533,251.174 251,235.5C 252.841,231.658 255.841,229.324 260,228.5C 262.505,228.994 264.339,230.328 265.5,232.5 Z"/></g>
<g><path style="opacity:1" fill="#ec1b24" d="M 454.5,167.5 C 455.1,168.9 456.1,169.9 457.5,170.5C 457.5,170.833 457.5,171.167 457.5,171.5C 457.625,176.039 458.958,180.039 461.5,183.5C 463.106,186.986 464.106,190.653 464.5,194.5C 463.807,198.794 464.807,202.461 467.5,205.5C 467.5,206.167 467.5,206.833 467.5,207.5C 470.207,227.078 471.04,246.745 470,266.5C 468.876,272.103 468.21,277.769 468,283.5C 465.04,295.529 462.207,307.529 459.5,319.5C 459.5,320.5 459.5,321.5 459.5,322.5C 455.032,327.654 452.365,333.654 451.5,340.5C 451.5,340.833 451.5,341.167 451.5,341.5C 449.742,343.141 448.242,345.141 447,347.5C 446.51,348.793 446.343,350.127 446.5,351.5C 443.772,354.081 441.438,357.081 439.5,360.5C 438.604,364.347 436.937,367.68 434.5,370.5C 433.5,370.5 432.5,370.5 431.5,370.5C 431.5,372.167 431.5,373.833 431.5,375.5C 427.486,376.543 425.82,379.209 426.5,383.5C 424.073,383.523 421.74,384.023 419.5,385C 420.308,385.308 420.975,385.808 421.5,386.5C 417.786,387.314 416.119,389.981 416.5,394.5C 414.833,394.5 413.167,394.5 411.5,394.5C 411.5,396.167 411.5,397.833 411.5,399.5C 409.833,399.5 408.167,399.5 406.5,399.5C 406.662,401.527 406.495,403.527 406,405.5C 404.519,406.471 403.685,407.804 403.5,409.5C 394.322,418.694 384.322,426.694 373.5,433.5C 368.616,436.214 363.616,438.714 358.5,441C 357.216,441.684 356.049,441.517 355,440.5C 353.923,442.578 352.757,444.578 351.5,446.5C 351.158,447.338 350.492,447.672 349.5,447.5C 346.213,448.161 342.88,448.661 339.5,449C 339.833,449.333 340.167,449.667 340.5,450C 338.654,451.03 336.987,452.196 335.5,453.5C 331.111,454.403 327.111,456.069 323.5,458.5C 314.593,462.29 305.26,464.956 295.5,466.5C 287.148,466.538 279.148,467.872 271.5,470.5C 258.163,470.667 244.829,470.5 231.5,470C 223.579,468.583 215.579,467.749 207.5,467.5C 202.808,467.575 198.474,466.575 194.5,464.5C 192.981,463.59 191.315,462.757 189.5,462C 192.906,461.397 193.239,460.231 190.5,458.5C 186.343,460.758 182.009,461.091 177.5,459.5C 172.312,456.925 166.978,454.425 161.5,452C 160.207,451.51 158.873,451.343 157.5,451.5C 154.088,450.958 151.088,449.625 148.5,447.5C 148.489,445.983 147.823,444.816 146.5,444C 142.6,442.435 138.934,440.435 135.5,438C 134.207,437.51 132.873,437.343 131.5,437.5C 129.555,433.884 126.555,431.884 122.5,431.5C 121.415,429.413 119.749,428.08 117.5,427.5C 115.745,426.928 114.078,426.094 112.5,425C 108.969,421.967 105.635,418.8 102.5,415.5C 100.1,412.097 97.1002,409.43 93.5,407.5C 83.654,398.132 74.9874,387.799 67.5,376.5C 65.5034,372.318 63.8367,367.985 62.5,363.5C 60.6776,363.169 59.0109,362.502 57.5,361.5C 57.4431,360.391 57.1098,359.391 56.5,358.5C 54.61,352.176 51.61,346.509 47.5,341.5C 46.5075,338.177 45.5075,334.844 44.5,331.5C 46.6191,330.014 48.1191,328.014 49,325.5C 49.3333,328.833 49.6667,332.167 50,335.5C 52.6629,330.015 54.1629,324.348 54.5,318.5C 53.78,326.44 55.1133,333.94 58.5,341C 57.3297,343.068 57.4963,344.901 59,346.5C 59.3333,345.5 59.6667,344.5 60,343.5C 60.7542,347.089 62.9209,349.089 66.5,349.5C 69.9913,352.446 73.9913,354.446 78.5,355.5C 80.612,357.206 82.9453,358.539 85.5,359.5C 92.876,361.033 100.209,360.367 107.5,357.5C 107.863,356.817 108.196,356.15 108.5,355.5C 110.854,355.162 113.187,354.662 115.5,354C 119.016,350.917 122.016,347.417 124.5,343.5C 126.933,340.853 129.767,340.186 133,341.5C 133.49,342.793 133.657,344.127 133.5,345.5C 139.086,345.194 144.086,343.527 148.5,340.5C 150.861,340.326 153.194,339.993 155.5,339.5C 155.666,333.824 155.499,328.157 155,322.5C 154.768,321.263 154.268,320.263 153.5,319.5C 152.833,305.833 152.167,292.167 151.5,278.5C 151.5,278.167 151.5,277.833 151.5,277.5C 152.708,276.766 154.041,276.433 155.5,276.5C 157.583,291.71 158.749,307.044 159,322.5C 159.985,324.175 160.819,325.842 161.5,327.5C 161.56,328.043 161.893,328.376 162.5,328.5C 164.863,327.83 167.196,327.163 169.5,326.5C 168.599,330.241 169.932,332.241 173.5,332.5C 178.845,331.872 184.012,330.539 189,328.5C 190.03,328.164 190.53,327.497 190.5,326.5C 191.161,324.866 191.494,323.033 191.5,321C 190.883,313.508 190.383,306.008 190,298.5C 189.367,294.653 188.533,290.986 187.5,287.5C 186.729,280.468 186.729,273.468 187.5,266.5C 187.5,266.167 187.5,265.833 187.5,265.5C 188.789,263.752 190.289,263.419 192,264.5C 192.333,269.5 192.667,274.5 193,279.5C 193.77,285.061 194.937,290.394 196.5,295.5C 196.5,296.167 196.5,296.833 196.5,297.5C 196.547,300.568 197.047,303.568 198,306.5C 200.491,308.29 202.658,310.457 204.5,313C 208.683,313.866 212.683,315.199 216.5,317C 219.696,317.805 222.696,317.638 225.5,316.5C 228.877,316.041 232.211,315.374 235.5,314.5C 235.444,319.731 236.111,324.731 237.5,329.5C 238.056,334.158 238.723,338.825 239.5,343.5C 240.417,342.873 241.417,342.539 242.5,342.5C 243.5,342.5 244.5,342.5 245.5,342.5C 245.34,344.199 245.506,345.866 246,347.5C 246.893,348.081 247.893,348.415 249,348.5C 252.685,347.477 255.518,345.477 257.5,342.5C 259.199,342.66 260.866,342.494 262.5,342C 265.116,341.104 267.45,339.77 269.5,338C 268.965,331.626 267.965,325.459 266.5,319.5C 266.5,313.833 266.5,308.167 266.5,302.5C 269.551,302.364 272.551,302.698 275.5,303.5C 277.732,301.355 280.399,299.855 283.5,299C 285.063,298.241 286.063,297.074 286.5,295.5C 289.5,293.167 292.167,290.5 294.5,287.5C 298.524,283.492 300.857,278.492 301.5,272.5C 301.833,272.167 302.167,271.833 302.5,271.5C 303.518,272.193 304.518,272.859 305.5,273.5C 308.669,277.084 312.669,279.084 317.5,279.5C 318.167,280.5 318.833,281.5 319.5,282.5C 323.646,283.647 327.98,283.814 332.5,283C 334.76,282.451 336.426,281.284 337.5,279.5C 341.767,278.232 344.767,275.565 346.5,271.5C 348.176,272.183 348.843,273.517 348.5,275.5C 354.134,275.917 359.134,274.583 363.5,271.5C 372.508,271.106 374.841,267.106 370.5,259.5C 369.998,248.481 369.164,237.481 368,226.5C 367.768,225.263 367.268,224.263 366.5,223.5C 366.334,218.156 366.501,212.823 367,207.5C 367.708,206.619 368.542,205.953 369.5,205.5C 370.873,205.343 372.207,205.51 373.5,206C 376.252,208.075 379.085,209.908 382,211.5C 384.17,210.478 386.336,209.478 388.5,208.5C 388.666,214.509 388.499,220.509 388,226.5C 386.492,228.017 385.658,229.851 385.5,232C 386.621,234.29 387.955,236.457 389.5,238.5C 394.397,238.395 396.397,240.728 395.5,245.5C 399.677,245.929 403.677,246.929 407.5,248.5C 407.5,249.5 407.5,250.5 407.5,251.5C 405.046,251.679 402.879,251.013 401,249.5C 400.5,249.833 400,250.167 399.5,250.5C 401.167,251.833 402.833,253.167 404.5,254.5C 406.833,253.833 409.167,253.167 411.5,252.5C 412.506,252.938 412.506,253.604 411.5,254.5C 412.167,254.833 412.833,255.167 413.5,255.5C 416.454,253.65 419.62,253.65 423,255.5C 426.677,253.524 430.51,252.024 434.5,251C 436.568,250.313 438.568,250.48 440.5,251.5C 441.167,249.5 441.833,247.5 442.5,245.5C 444.521,244.145 446.188,242.479 447.5,240.5C 449.482,237.19 451.815,234.19 454.5,231.5C 455.794,230.71 456.961,229.71 458,228.5C 458.401,225.301 459.234,222.301 460.5,219.5C 461.5,219.5 462.5,219.5 463.5,219.5C 463.469,216.041 462.802,212.708 461.5,209.5C 459.159,208.288 456.993,208.622 455,210.5C 454.28,208.888 454.446,207.388 455.5,206C 452.675,204.074 450.341,204.574 448.5,207.5C 446.117,215.208 441.784,221.541 435.5,226.5C 431.952,227.702 428.285,228.369 424.5,228.5C 422.612,224.279 423.279,220.612 426.5,217.5C 427.873,217.657 429.207,217.49 430.5,217C 435.778,212.933 439.444,207.767 441.5,201.5C 443.645,196.73 444.978,191.73 445.5,186.5C 445.286,182.084 443.953,178.084 441.5,174.5C 442.5,174.5 443.5,174.5 444.5,174.5C 446.005,181.376 446.838,188.376 447,195.5C 448.298,194.44 449.465,193.274 450.5,192C 449.438,188.211 449.271,184.377 450,180.5C 451.128,182.345 451.628,184.345 451.5,186.5C 452.5,186.5 453.5,186.5 454.5,186.5C 454.041,182.927 455.041,179.927 457.5,177.5C 455.226,176.032 453.226,174.198 451.5,172C 452.448,171.517 453.448,171.351 454.5,171.5C 454.5,170.167 454.5,168.833 454.5,167.5 Z"/></g>
<g><path style="opacity:1" fill="#110606" d="M 454.5,231.5 C 451.815,234.19 449.482,237.19 447.5,240.5C 443.055,243.562 438.389,246.395 433.5,249C 427.316,251.168 420.983,251.835 414.5,251C 412.416,250.303 410.749,249.136 409.5,247.5C 423.406,247.546 434.739,242.213 443.5,231.5C 447.311,229.564 449.978,226.564 451.5,222.5C 453.929,219.979 455.596,216.979 456.5,213.5C 457.85,212.05 459.516,211.383 461.5,211.5C 459.554,218.339 457.221,225.005 454.5,231.5 Z"/></g>
<g><path style="opacity:1" fill="#cb2c34" d="M 426.5,217.5 C 423.279,220.612 422.612,224.279 424.5,228.5C 428.285,228.369 431.952,227.702 435.5,226.5C 432.069,229.317 428.069,230.983 423.5,231.5C 422.205,228.335 421.205,225.001 420.5,221.5C 421.793,219.181 423.793,217.848 426.5,217.5 Z"/></g>
<g><path style="opacity:1" fill="#bb363e" d="M 449.5,220.5 C 449.5,221.833 450.167,222.5 451.5,222.5C 449.978,226.564 447.311,229.564 443.5,231.5C 445.25,227.665 447.25,223.999 449.5,220.5 Z"/></g>
<g><path style="opacity:1" fill="#cf262b" d="M 454.5,231.5 C 457.221,225.005 459.554,218.339 461.5,211.5C 459.516,211.383 457.85,212.05 456.5,213.5C 455.596,216.979 453.929,219.979 451.5,222.5C 450.167,222.5 449.5,221.833 449.5,220.5C 450.598,216.282 451.931,212.115 453.5,208C 453.167,207.5 452.833,207 452.5,206.5C 451.264,207.246 449.93,207.579 448.5,207.5C 450.341,204.574 452.675,204.074 455.5,206C 454.446,207.388 454.28,208.888 455,210.5C 456.993,208.622 459.159,208.288 461.5,209.5C 462.802,212.708 463.469,216.041 463.5,219.5C 462.5,219.5 461.5,219.5 460.5,219.5C 459.234,222.301 458.401,225.301 458,228.5C 456.961,229.71 455.794,230.71 454.5,231.5 Z"/></g>
<g><path style="opacity:1" fill="#220000" d="M 469.5,216.5 C 471.059,219.868 471.892,223.535 472,227.5C 472.667,243.167 472.667,258.833 472,274.5C 471.617,275.056 471.117,275.389 470.5,275.5C 472.042,255.797 471.708,236.131 469.5,216.5 Z"/></g>
<g><path style="opacity:1" fill="#d23136" d="M 191.5,238.5 C 195.311,237.355 199.311,237.188 203.5,238C 205.455,238.953 207.122,240.287 208.5,242C 216.106,243.114 220.106,247.614 220.5,255.5C 218.83,249.164 214.83,245.164 208.5,243.5C 203.787,239.041 198.121,237.374 191.5,238.5 Z"/></g>
<g><path style="opacity:1" fill="#991b23" d="M 326.5,223.5 C 327.575,229.059 328.575,234.726 329.5,240.5C 329.5,245.5 329.5,250.5 329.5,255.5C 327.849,245.039 326.849,234.372 326.5,223.5 Z"/></g>
<g><path style="opacity:1" fill="#110b0b" d="M 95.5,247.5 C 90.1997,247.616 86.6997,250.283 85,255.5C 84.1826,261.016 84.3493,266.35 85.5,271.5C 85.9795,275.292 87.6462,278.459 90.5,281C 90.2716,281.399 89.9382,281.565 89.5,281.5C 81.8855,277.978 77.3855,271.978 76,263.5C 74.3606,254.739 77.1939,247.905 84.5,243C 89.6088,241.391 93.2755,242.891 95.5,247.5 Z"/></g>
<g><path style="opacity:1" fill="#bf282f" d="M 265.5,232.5 C 267.794,235.37 269.128,238.703 269.5,242.5C 269.5,242.833 269.5,243.167 269.5,243.5C 268.088,241.396 267.088,239.063 266.5,236.5C 265.167,236.5 263.833,236.5 262.5,236.5C 260.81,240.104 259.81,243.937 259.5,248C 261.681,257.024 262.848,266.191 263,275.5C 264.134,280.797 264.968,280.797 265.5,275.5C 266.5,275.5 267.5,275.5 268.5,275.5C 268.157,273.517 268.824,272.183 270.5,271.5C 269.43,276.983 266.43,280.983 261.5,283.5C 260.002,268.856 259.169,254.19 259,239.5C 260.694,236.642 262.861,234.309 265.5,232.5 Z"/></g>
<g><path style="opacity:1" fill="#110303" d="M 103.5,238.5 C 110.614,240.613 114.948,245.28 116.5,252.5C 117.592,258.652 115.925,263.818 111.5,268C 109.527,268.495 107.527,268.662 105.5,268.5C 102.519,268.206 101.852,266.872 103.5,264.5C 110.051,255.931 110.051,247.264 103.5,238.5 Z"/></g>
<g><path style="opacity:1" fill="#b42129" d="M 467.5,207.5 C 468.913,210.219 469.58,213.219 469.5,216.5C 471.708,236.131 472.042,255.797 470.5,275.5C 468.671,290.818 465.004,305.484 459.5,319.5C 462.207,307.529 465.04,295.529 468,283.5C 468.21,277.769 468.876,272.103 470,266.5C 471.04,246.745 470.207,227.078 467.5,207.5 Z"/></g>
<g><path style="opacity:1" fill="#da2a2f" d="M 336.5,223.5 C 337.369,230.328 338.036,237.328 338.5,244.5C 338.45,247.976 337.783,251.31 336.5,254.5C 334.781,257.219 332.447,259.219 329.5,260.5C 329.5,258.833 329.5,257.167 329.5,255.5C 329.5,250.5 329.5,245.5 329.5,240.5C 330.167,245.681 330.833,251.015 331.5,256.5C 331.594,254.761 331.761,252.761 332,250.5C 333.299,250.034 334.799,250.034 336.5,250.5C 336.5,241.5 336.5,232.5 336.5,223.5 Z"/></g>
<g><path style="opacity:1" fill="#db3337" d="M 167.5,250.5 C 159.801,248.367 152.801,249.7 146.5,254.5C 146.5,252.833 146.5,251.167 146.5,249.5C 150.988,249.101 155.488,248.767 160,248.5C 162.929,248.525 165.429,249.191 167.5,250.5 Z"/></g>
<g><path style="opacity:1" fill="#0f0303" d="M 208.5,243.5 C 214.83,245.164 218.83,249.164 220.5,255.5C 221.64,267.659 222.973,279.659 224.5,291.5C 224.5,292.167 224.5,292.833 224.5,293.5C 224.5,293.833 224.5,294.167 224.5,294.5C 219.461,294.968 216.628,292.635 216,287.5C 215.441,276.788 214.441,266.121 213,255.5C 212.183,251.211 210.683,247.211 208.5,243.5 Z"/></g>
<g><path style="opacity:1" fill="#5a0c12" d="M 367.5,243.5 C 369.082,246.876 369.749,250.542 369.5,254.5C 368.313,251.054 367.646,247.387 367.5,243.5 Z"/></g>
<g><path style="opacity:1" fill="#c0242d" d="M 366.5,223.5 C 367.268,224.263 367.768,225.263 368,226.5C 369.164,237.481 369.998,248.481 370.5,259.5C 369.549,258.081 369.216,256.415 369.5,254.5C 369.749,250.542 369.082,246.876 367.5,243.5C 367.609,236.804 367.276,230.137 366.5,223.5 Z"/></g>
<g><path style="opacity:1" fill="#341e1f" d="M 172.5,254.5 C 173.167,254.5 173.833,254.5 174.5,254.5C 174.263,258.289 173.596,258.289 172.5,254.5 Z"/></g>
<g><path style="opacity:1" fill="#0f0606" d="M 184.5,255.5 C 188.183,254.68 190.517,256.013 191.5,259.5C 189.674,261.147 188.34,263.147 187.5,265.5C 187.5,265.833 187.5,266.167 187.5,266.5C 186.048,268.848 185.382,271.514 185.5,274.5C 185.771,279.036 186.438,283.369 187.5,287.5C 188.79,300.475 189.79,313.475 190.5,326.5C 184.456,327.735 178.789,329.735 173.5,332.5C 169.932,332.241 168.599,330.241 169.5,326.5C 173.697,324.768 178.031,323.435 182.5,322.5C 181.64,305.427 179.973,288.427 177.5,271.5C 178.011,267.793 178.678,264.126 179.5,260.5C 180.496,260.414 181.329,260.748 182,261.5C 183.319,259.713 184.152,257.713 184.5,255.5 Z"/></g>
<g><path style="opacity:1" fill="#a0343d" d="M 184.5,255.5 C 184.152,257.713 183.319,259.713 182,261.5C 181.329,260.748 180.496,260.414 179.5,260.5C 180.833,258.5 182.5,256.833 184.5,255.5 Z"/></g>
<g><path style="opacity:1" fill="#d3393b" d="M 269.5,244.5 C 270.268,245.263 270.768,246.263 271,247.5C 271.823,255.677 271.656,263.677 270.5,271.5C 270.552,262.482 270.218,253.482 269.5,244.5 Z"/></g>
<g><path style="opacity:1" fill="#240300" d="M 27.5,230.5 C 26.6436,252.34 27.9769,274.007 31.5,295.5C 30.8423,294.602 30.1757,293.602 29.5,292.5C 26.4393,271.774 25.7726,251.107 27.5,230.5 Z"/></g>
<g><path style="opacity:1" fill="#b22e32" d="M 116.5,252.5 C 117.477,255.287 117.81,258.287 117.5,261.5C 118.5,261.5 119.5,261.5 120.5,261.5C 119.47,262.552 118.803,263.886 118.5,265.5C 119.274,269.465 119.607,273.465 119.5,277.5C 118.262,273.381 117.429,269.047 117,264.5C 114.16,269.238 110.327,270.572 105.5,268.5C 107.527,268.662 109.527,268.495 111.5,268C 115.925,263.818 117.592,258.652 116.5,252.5 Z"/></g>
<g><path style="opacity:1" fill="#b4282e" d="M 95.5,247.5 C 97.0608,252.417 96.7275,257.084 94.5,261.5C 94.6657,257.154 94.499,252.821 94,248.5C 92.5587,249.87 90.892,250.87 89,251.5C 88.3448,253.628 87.5114,255.628 86.5,257.5C 85.5139,261.97 85.1805,266.637 85.5,271.5C 84.3493,266.35 84.1826,261.016 85,255.5C 86.6997,250.283 90.1997,247.616 95.5,247.5 Z"/></g>
<g><path style="opacity:1" fill="#fcd9d9" d="M 62.5,250.5 C 61.5792,256.349 60.5792,262.182 59.5,268C 59.6492,271.94 60.3158,275.773 61.5,279.5C 55.9691,269.659 56.3024,259.992 62.5,250.5 Z"/></g>
<g><path style="opacity:1" fill="#cc272b" d="M 86.5,257.5 C 85.5425,265.585 87.2092,272.918 91.5,279.5C 93.9749,279.964 95.9749,280.964 97.5,282.5C 94.6146,282.806 91.9479,282.473 89.5,281.5C 89.9382,281.565 90.2716,281.399 90.5,281C 87.6462,278.459 85.9795,275.292 85.5,271.5C 85.1805,266.637 85.5139,261.97 86.5,257.5 Z"/></g>
<g><path style="opacity:1" fill="#fdd7d8" d="M 237.5,218.5 C 235.102,220.974 232.102,222.308 228.5,222.5C 229.44,240.322 230.94,257.989 233,275.5C 233.5,277 234,278.5 234.5,280C 233.367,284.297 231.867,288.463 230,292.5C 228.416,293.861 226.582,294.528 224.5,294.5C 224.5,294.167 224.5,293.833 224.5,293.5C 228.796,292.69 230.796,290.024 230.5,285.5C 231.655,278.345 231.822,271.012 231,263.5C 229.005,249.541 227.505,235.541 226.5,221.5C 227.791,221.737 228.791,221.404 229.5,220.5C 232.221,220.037 234.888,219.371 237.5,218.5 Z"/></g>
<g><path style="opacity:1" fill="#0d0405" d="M 155.5,271.5 C 153.674,273.147 152.34,275.147 151.5,277.5C 151.5,277.833 151.5,278.167 151.5,278.5C 150.003,280.29 149.336,282.456 149.5,285C 150.681,296.667 152.014,308.167 153.5,319.5C 154.014,325.822 154.347,332.155 154.5,338.5C 152.214,338.595 150.214,339.262 148.5,340.5C 143.833,341.5 139.167,342.5 134.5,343.5C 134.5,341.5 134.5,339.5 134.5,337.5C 138.439,336.465 142.272,335.131 146,333.5C 144.934,313.837 143.934,294.171 143,274.5C 143.731,272.101 144.898,269.935 146.5,268C 151.046,265.347 154.046,266.514 155.5,271.5 Z"/></g>
<g><path style="opacity:1" fill="#d63235" d="M 229.5,220.5 C 228.791,221.404 227.791,221.737 226.5,221.5C 227.505,235.541 229.005,249.541 231,263.5C 231.822,271.012 231.655,278.345 230.5,285.5C 229.421,264.394 227.421,242.727 224.5,220.5C 226.167,220.5 227.833,220.5 229.5,220.5 Z"/></g>
<g><path style="opacity:1" fill="#783736" d="M 300.5,260.5 C 301.407,262.657 302.073,264.99 302.5,267.5C 301.833,268.167 301.167,268.833 300.5,269.5C 300.5,266.5 300.5,263.5 300.5,260.5 Z"/></g>
<g><path style="opacity:1" fill="#ac2329" d="M 220.5,255.5 C 221.222,255.918 221.722,256.584 222,257.5C 223.386,268.796 224.219,280.13 224.5,291.5C 222.973,279.659 221.64,267.659 220.5,255.5 Z"/></g>
<g><path style="opacity:1" fill="#eb1c23" d="M 269.5,243.5 C 269.5,243.833 269.5,244.167 269.5,244.5C 270.218,253.482 270.552,262.482 270.5,271.5C 268.824,272.183 268.157,273.517 268.5,275.5C 267.5,275.5 266.5,275.5 265.5,275.5C 264.968,280.797 264.134,280.797 263,275.5C 262.848,266.191 261.681,257.024 259.5,248C 259.81,243.937 260.81,240.104 262.5,236.5C 263.833,236.5 265.167,236.5 266.5,236.5C 267.088,239.063 268.088,241.396 269.5,243.5 Z"/></g>
<g><path style="opacity:1" fill="#110708" d="M 346.5,269.5 C 347.506,269.938 347.506,270.604 346.5,271.5C 343.474,274.195 340.474,276.862 337.5,279.5C 331.8,282.051 325.8,283.051 319.5,282.5C 318.833,281.5 318.167,280.5 317.5,279.5C 327.26,277.871 334.76,272.871 340,264.5C 341.128,266.345 341.628,268.345 341.5,270.5C 343.216,270.371 344.883,270.038 346.5,269.5 Z"/></g>
<g><path style="opacity:1" fill="#be232d" d="M 370.5,259.5 C 374.841,267.106 372.508,271.106 363.5,271.5C 365.22,270.136 367.22,269.136 369.5,268.5C 370.484,265.572 370.817,262.572 370.5,259.5 Z"/></g>
<g><path style="opacity:1" fill="#7d1114" d="M 187.5,266.5 C 186.729,273.468 186.729,280.468 187.5,287.5C 186.438,283.369 185.771,279.036 185.5,274.5C 185.382,271.514 186.048,268.848 187.5,266.5 Z"/></g>
<g><path style="opacity:1" fill="#520204" d="M 349.5,270.5 C 350.404,271.209 350.737,272.209 350.5,273.5C 351.833,273.5 353.167,273.5 354.5,273.5C 353.081,274.451 351.415,274.784 349.5,274.5C 349.5,273.167 349.5,271.833 349.5,270.5 Z"/></g>
<g><path style="opacity:1" fill="#c32934" d="M 346.5,269.5 C 347.209,268.596 348.209,268.263 349.5,268.5C 349.5,269.167 349.5,269.833 349.5,270.5C 349.5,271.833 349.5,273.167 349.5,274.5C 351.415,274.784 353.081,274.451 354.5,273.5C 357.37,272.366 360.37,271.7 363.5,271.5C 359.134,274.583 354.134,275.917 348.5,275.5C 348.843,273.517 348.176,272.183 346.5,271.5C 347.506,270.604 347.506,269.938 346.5,269.5 Z"/></g>
<g><path style="opacity:1" fill="#f9d7d6" d="M 269.5,242.5 C 271.045,243.23 271.878,244.563 272,246.5C 272.879,257.55 272.546,268.55 271,279.5C 267.754,282.556 263.921,284.223 259.5,284.5C 259.842,283.662 260.508,283.328 261.5,283.5C 266.43,280.983 269.43,276.983 270.5,271.5C 271.656,263.677 271.823,255.677 271,247.5C 270.768,246.263 270.268,245.263 269.5,244.5C 269.5,244.167 269.5,243.833 269.5,243.5C 269.5,243.167 269.5,242.833 269.5,242.5 Z"/></g>
<g><path style="opacity:1" fill="#b4232a" d="M 346.5,271.5 C 344.767,275.565 341.767,278.232 337.5,279.5C 340.474,276.862 343.474,274.195 346.5,271.5 Z"/></g>
<g><path style="opacity:1" fill="#981b20" d="M 337.5,279.5 C 336.426,281.284 334.76,282.451 332.5,283C 327.98,283.814 323.646,283.647 319.5,282.5C 325.8,283.051 331.8,282.051 337.5,279.5 Z"/></g>
<g><path style="opacity:1" fill="#d03f42" d="M 191.5,259.5 C 192.887,261.877 193.721,264.543 194,267.5C 194.944,276.834 195.778,286.168 196.5,295.5C 194.937,290.394 193.77,285.061 193,279.5C 192.667,274.5 192.333,269.5 192,264.5C 190.289,263.419 188.789,263.752 187.5,265.5C 188.34,263.147 189.674,261.147 191.5,259.5 Z"/></g>
<g><path style="opacity:1" fill="#b1262c" d="M 302.5,267.5 C 303.492,269.456 304.492,271.456 305.5,273.5C 304.518,272.859 303.518,272.193 302.5,271.5C 302.167,271.833 301.833,272.167 301.5,272.5C 300.857,278.492 298.524,283.492 294.5,287.5C 297.418,281.837 299.418,275.837 300.5,269.5C 301.167,268.833 301.833,268.167 302.5,267.5 Z"/></g>
<g><path style="opacity:1" fill="#0f0808" d="M 94.5,285.5 C 97.5682,286.022 100.568,286.855 103.5,288C 100.882,290.106 98.8823,292.606 97.5,295.5C 96.0937,295.973 95.427,296.973 95.5,298.5C 94.8826,298.611 94.3826,298.944 94,299.5C 92.8695,302.445 92.0362,305.445 91.5,308.5C 88.6918,315.954 89.0251,323.287 92.5,330.5C 92.6036,332.703 93.2702,334.703 94.5,336.5C 90.862,336.262 88.0287,334.596 86,331.5C 78.025,314.084 80.8584,298.75 94.5,285.5 Z"/></g>
<g><path style="opacity:1" fill="#fedcde" d="M 128.5,259.5 C 126.163,261.396 123.496,262.73 120.5,263.5C 121.868,277.441 122.868,291.441 123.5,305.5C 122.833,303.5 122.167,301.5 121.5,299.5C 121.5,298.167 121.5,296.833 121.5,295.5C 121.556,290.269 120.889,285.269 119.5,280.5C 119.5,279.5 119.5,278.5 119.5,277.5C 119.607,273.465 119.274,269.465 118.5,265.5C 118.803,263.886 119.47,262.552 120.5,261.5C 123.221,261.037 125.888,260.371 128.5,259.5 Z"/></g>
<g><path style="opacity:1" fill="#9d1c21" d="M 94.5,285.5 C 94.8417,284.662 95.5084,284.328 96.5,284.5C 99.4299,285.299 102.43,285.632 105.5,285.5C 104.005,289.673 101.338,293.006 97.5,295.5C 98.8823,292.606 100.882,290.106 103.5,288C 100.568,286.855 97.5682,286.022 94.5,285.5 Z"/></g>
<g><path style="opacity:1" fill="#d5494c" d="M 119.5,280.5 C 120.889,285.269 121.556,290.269 121.5,295.5C 119.762,290.783 119.096,285.783 119.5,280.5 Z"/></g>
<g><path style="opacity:1" fill="#fddfde" d="M 63.5,283.5 C 67.7629,284.794 71.0962,287.294 73.5,291C 71.5526,293.951 69.2193,296.618 66.5,299C 66.9574,299.414 67.2907,299.914 67.5,300.5C 65.6095,301.424 64.1095,302.757 63,304.5C 60.8075,310.811 59.3075,317.311 58.5,324C 59.8529,328.987 60.5196,334.154 60.5,339.5C 53.1302,320.583 57.1302,304.416 72.5,291C 70.6089,289.558 68.6089,288.391 66.5,287.5C 65.5,286.167 64.5,284.833 63.5,283.5 Z"/></g>
<g><path style="opacity:1" fill="#d43f41" d="M 155.5,271.5 C 158.535,289.912 160.535,308.578 161.5,327.5C 160.819,325.842 159.985,324.175 159,322.5C 158.749,307.044 157.583,291.71 155.5,276.5C 154.041,276.433 152.708,276.766 151.5,277.5C 152.34,275.147 153.674,273.147 155.5,271.5 Z"/></g>
<g><path style="opacity:1" fill="#0c0405" d="M 282.5,219.5 C 287.42,221.419 291.087,224.752 293.5,229.5C 294.351,231.882 295.684,233.882 297.5,235.5C 297.676,238.727 298.343,241.727 299.5,244.5C 299.833,249.833 300.167,255.167 300.5,260.5C 300.5,263.5 300.5,266.5 300.5,269.5C 299.418,275.837 297.418,281.837 294.5,287.5C 292.167,290.5 289.5,293.167 286.5,295.5C 282.367,297.489 278.033,298.989 273.5,300C 270.779,300.602 268.113,300.435 265.5,299.5C 265.44,298.957 265.107,298.624 264.5,298.5C 263.16,304.058 263.493,309.392 265.5,314.5C 265.5,316.167 265.5,317.833 265.5,319.5C 265.76,325.172 266.093,330.839 266.5,336.5C 262.946,337.769 259.946,339.769 257.5,342.5C 254.071,343.381 251.071,345.048 248.5,347.5C 247.52,344.914 247.187,342.247 247.5,339.5C 250.859,336.832 254.525,334.499 258.5,332.5C 258.833,331.667 259.167,330.833 259.5,330C 258.094,318.112 256.928,306.279 256,294.5C 273.8,297.413 285.467,290.08 291,272.5C 294.797,253.669 291.963,236.002 282.5,219.5 Z"/></g>
<g><path style="opacity:1" fill="#eb1c24" d="M 94.5,261.5 C 94.3893,262.117 94.056,262.617 93.5,263C 96.6883,264.316 100.022,264.816 103.5,264.5C 101.852,266.872 102.519,268.206 105.5,268.5C 110.327,270.572 114.16,269.238 117,264.5C 117.429,269.047 118.262,273.381 119.5,277.5C 119.5,278.5 119.5,279.5 119.5,280.5C 119.096,285.783 119.762,290.783 121.5,295.5C 121.5,296.833 121.5,298.167 121.5,299.5C 121.664,306.202 121.331,312.869 120.5,319.5C 118.867,324.122 115.867,327.455 111.5,329.5C 110.178,329.67 109.011,329.337 108,328.5C 105.842,329.826 104.008,331.493 102.5,333.5C 101.311,334.429 99.9778,334.762 98.5,334.5C 98.5792,333.07 98.2458,331.736 97.5,330.5C 96.302,330.06 95.1353,329.727 94,329.5C 91.603,318.97 92.103,308.637 95.5,298.5C 95.427,296.973 96.0937,295.973 97.5,295.5C 101.338,293.006 104.005,289.673 105.5,285.5C 102.43,285.632 99.4299,285.299 96.5,284.5C 96.8333,283.833 97.1667,283.167 97.5,282.5C 95.9749,280.964 93.9749,279.964 91.5,279.5C 87.2092,272.918 85.5425,265.585 86.5,257.5C 87.5114,255.628 88.3448,253.628 89,251.5C 90.892,250.87 92.5587,249.87 94,248.5C 94.499,252.821 94.6657,257.154 94.5,261.5 Z"/></g>
<g><path style="opacity:1" fill="#110a0a" d="M 235.5,311.5 C 231.912,312.798 228.579,314.464 225.5,316.5C 219.86,317.17 214.86,315.836 210.5,312.5C 220.758,312.456 228.592,308.123 234,299.5C 234.501,303.51 235.001,307.51 235.5,311.5 Z"/></g>
<g><path style="opacity:1" fill="#bd232b" d="M 187.5,287.5 C 188.533,290.986 189.367,294.653 190,298.5C 190.383,306.008 190.883,313.508 191.5,321C 191.494,323.033 191.161,324.866 190.5,326.5C 189.79,313.475 188.79,300.475 187.5,287.5 Z"/></g>
<g><path style="opacity:1" fill="#c8242b" d="M 286.5,295.5 C 286.063,297.074 285.063,298.241 283.5,299C 280.399,299.855 277.732,301.355 275.5,303.5C 272.551,302.698 269.551,302.364 266.5,302.5C 266.5,308.167 266.5,313.833 266.5,319.5C 266.167,319.5 265.833,319.5 265.5,319.5C 265.5,317.833 265.5,316.167 265.5,314.5C 264.707,309.327 264.707,304.327 265.5,299.5C 268.113,300.435 270.779,300.602 273.5,300C 278.033,298.989 282.367,297.489 286.5,295.5 Z"/></g>
<g><path style="opacity:1" fill="#e22d31" d="M 66.5,287.5 C 68.6089,288.391 70.6089,289.558 72.5,291C 57.1302,304.416 53.1302,320.583 60.5,339.5C 61.9855,343.137 63.9855,346.47 66.5,349.5C 62.9209,349.089 60.7542,347.089 60,343.5C 59.6667,344.5 59.3333,345.5 59,346.5C 57.4963,344.901 57.3297,343.068 58.5,341C 55.1133,333.94 53.78,326.44 54.5,318.5C 54.6204,316.801 54.9537,315.135 55.5,313.5C 53.8058,310.336 53.3058,307.002 54,303.5C 54.779,304.728 55.779,305.728 57,306.5C 58.9875,304.536 60.4875,302.203 61.5,299.5C 59.2524,298.676 59.0858,297.676 61,296.5C 62.0113,297.337 63.1779,297.67 64.5,297.5C 64.67,296.178 64.3366,295.011 63.5,294C 65.1712,292.157 66.1712,289.991 66.5,287.5 Z"/></g>
<g><path style="opacity:1" fill="#9c1e23" d="M 151.5,278.5 C 152.167,292.167 152.833,305.833 153.5,319.5C 152.014,308.167 150.681,296.667 149.5,285C 149.336,282.456 150.003,280.29 151.5,278.5 Z"/></g>
<g><path style="opacity:1" fill="#46060a" d="M 265.5,299.5 C 264.707,304.327 264.707,309.327 265.5,314.5C 263.493,309.392 263.16,304.058 264.5,298.5C 265.107,298.624 265.44,298.957 265.5,299.5 Z"/></g>
<g><path style="opacity:1" fill="#be2229" d="M 31.5,207.5 C 30.5422,220.665 29.5422,233.831 28.5,247C 29.2669,264.958 31.2669,282.791 34.5,300.5C 37.8268,310.915 40.8268,321.248 43.5,331.5C 41.3161,327.995 39.6494,324.161 38.5,320C 35.9106,311.794 33.5773,303.628 31.5,295.5C 27.9769,274.007 26.6436,252.34 27.5,230.5C 28.7153,222.687 30.0486,215.021 31.5,207.5 Z"/></g>
<g><path style="opacity:1" fill="#9a1f2a" d="M 235.5,311.5 C 235.5,312.167 235.5,312.833 235.5,313.5C 235.5,313.833 235.5,314.167 235.5,314.5C 232.211,315.374 228.877,316.041 225.5,316.5C 228.579,314.464 231.912,312.798 235.5,311.5 Z"/></g>
<g><path style="opacity:1" fill="#cb2931" d="M 196.5,297.5 C 198.368,305.037 203.035,310.037 210.5,312.5C 214.86,315.836 219.86,317.17 225.5,316.5C 222.696,317.638 219.696,317.805 216.5,317C 212.683,315.199 208.683,313.866 204.5,313C 202.658,310.457 200.491,308.29 198,306.5C 197.047,303.568 196.547,300.568 196.5,297.5 Z"/></g>
<g><path style="opacity:1" fill="#d6464a" d="M 121.5,299.5 C 122.167,301.5 122.833,303.5 123.5,305.5C 123.665,308.85 123.498,312.183 123,315.5C 122.392,317.066 121.558,318.4 120.5,319.5C 121.331,312.869 121.664,306.202 121.5,299.5 Z"/></g>
<g><path style="opacity:1" fill="#9f2027" d="M 91.5,308.5 C 91.3646,315.862 91.6979,323.196 92.5,330.5C 89.0251,323.287 88.6918,315.954 91.5,308.5 Z"/></g>
<g><path style="opacity:1" fill="#a61e26" d="M 190.5,326.5 C 190.53,327.497 190.03,328.164 189,328.5C 184.012,330.539 178.845,331.872 173.5,332.5C 178.789,329.735 184.456,327.735 190.5,326.5 Z"/></g>
<g><path style="opacity:1" fill="#dc6062" d="M 235.5,313.5 C 236.806,318.616 237.473,323.949 237.5,329.5C 236.111,324.731 235.444,319.731 235.5,314.5C 235.5,314.167 235.5,313.833 235.5,313.5 Z"/></g>
<g><path style="opacity:1" fill="#b64c4f" d="M 125.5,330.5 C 123.754,332.252 121.754,333.585 119.5,334.5C 120.901,331.366 122.568,328.366 124.5,325.5C 125.452,327.045 125.785,328.712 125.5,330.5 Z"/></g>
<g><path style="opacity:1" fill="#c32429" d="M 459.5,322.5 C 457.361,328.774 454.695,334.774 451.5,340.5C 452.365,333.654 455.032,327.654 459.5,322.5 Z"/></g>
<g><path style="opacity:1" fill="#da232a" d="M 95.5,298.5 C 92.103,308.637 91.603,318.97 94,329.5C 95.1353,329.727 96.302,330.06 97.5,330.5C 98.2458,331.736 98.5792,333.07 98.5,334.5C 99.9778,334.762 101.311,334.429 102.5,333.5C 104.008,331.493 105.842,329.826 108,328.5C 109.011,329.337 110.178,329.67 111.5,329.5C 106.908,334.292 101.241,336.625 94.5,336.5C 93.2702,334.703 92.6036,332.703 92.5,330.5C 91.6979,323.196 91.3646,315.862 91.5,308.5C 92.0362,305.445 92.8695,302.445 94,299.5C 94.3826,298.944 94.8826,298.611 95.5,298.5 Z"/></g>
<g><path style="opacity:1" fill="#4a0608" d="M 265.5,319.5 C 265.833,319.5 266.167,319.5 266.5,319.5C 267.499,325.328 267.499,330.995 266.5,336.5C 266.093,330.839 265.76,325.172 265.5,319.5 Z"/></g>
<g><path style="opacity:1" fill="#941c22" d="M 43.5,331.5 C 43.8333,331.5 44.1667,331.5 44.5,331.5C 45.5075,334.844 46.5075,338.177 47.5,341.5C 45.2057,338.63 43.8723,335.297 43.5,331.5 Z"/></g>
<g><path style="opacity:1" fill="#a11f21" d="M 153.5,319.5 C 154.268,320.263 154.768,321.263 155,322.5C 155.499,328.157 155.666,333.824 155.5,339.5C 153.194,339.993 150.861,340.326 148.5,340.5C 150.214,339.262 152.214,338.595 154.5,338.5C 154.347,332.155 154.014,325.822 153.5,319.5 Z"/></g>
<g><path style="opacity:1" fill="#d0222c" d="M 266.5,319.5 C 267.965,325.459 268.965,331.626 269.5,338C 267.45,339.77 265.116,341.104 262.5,342C 260.866,342.494 259.199,342.66 257.5,342.5C 259.946,339.769 262.946,337.769 266.5,336.5C 267.499,330.995 267.499,325.328 266.5,319.5 Z"/></g>
<g><path style="opacity:1" fill="#b12329" d="M 451.5,341.5 C 450.341,345.151 448.674,348.485 446.5,351.5C 446.343,350.127 446.51,348.793 447,347.5C 448.242,345.141 449.742,343.141 451.5,341.5 Z"/></g>
<g><path style="opacity:1" fill="#ab262b" d="M 134.5,337.5 C 134.5,339.5 134.5,341.5 134.5,343.5C 139.167,342.5 143.833,341.5 148.5,340.5C 144.086,343.527 139.086,345.194 133.5,345.5C 133.657,344.127 133.49,342.793 133,341.5C 129.767,340.186 126.933,340.853 124.5,343.5C 124.833,342.167 125.167,340.833 125.5,339.5C 128.63,339.3 131.63,338.634 134.5,337.5 Z"/></g>
<g><path style="opacity:1" fill="#bd232a" d="M 247.5,339.5 C 247.187,342.247 247.52,344.914 248.5,347.5C 251.071,345.048 254.071,343.381 257.5,342.5C 255.518,345.477 252.685,347.477 249,348.5C 247.893,348.415 246.893,348.081 246,347.5C 245.506,345.866 245.34,344.199 245.5,342.5C 244.5,342.5 243.5,342.5 242.5,342.5C 243.659,340.75 245.326,339.75 247.5,339.5 Z"/></g>
<g><path style="opacity:1" fill="#100606" d="M 125.5,330.5 C 125.5,333.5 125.5,336.5 125.5,339.5C 125.167,340.833 124.833,342.167 124.5,343.5C 119.426,347.916 114.092,351.916 108.5,355.5C 104.793,356.511 101.127,357.677 97.5,359C 93.5138,359.499 89.5138,359.666 85.5,359.5C 82.9453,358.539 80.612,357.206 78.5,355.5C 95.9247,355.622 109.591,348.622 119.5,334.5C 121.754,333.585 123.754,332.252 125.5,330.5 Z"/></g>
<g><path style="opacity:1" fill="#c2252e" d="M 47.5,341.5 C 51.61,346.509 54.61,352.176 56.5,358.5C 52.9475,353.218 49.9475,347.552 47.5,341.5 Z"/></g>
<g><path style="opacity:1" fill="#b7222a" d="M 124.5,343.5 C 122.016,347.417 119.016,350.917 115.5,354C 113.187,354.662 110.854,355.162 108.5,355.5C 114.092,351.916 119.426,347.916 124.5,343.5 Z"/></g>
<g><path style="opacity:1" fill="#a81d28" d="M 108.5,355.5 C 108.196,356.15 107.863,356.817 107.5,357.5C 100.209,360.367 92.876,361.033 85.5,359.5C 89.5138,359.666 93.5138,359.499 97.5,359C 101.127,357.677 104.793,356.511 108.5,355.5 Z"/></g>
<g><path style="opacity:1" fill="#c3222a" d="M 446.5,351.5 C 441.337,363.17 434.671,373.836 426.5,383.5C 425.82,379.209 427.486,376.543 431.5,375.5C 431.5,373.833 431.5,372.167 431.5,370.5C 432.5,370.5 433.5,370.5 434.5,370.5C 436.937,367.68 438.604,364.347 439.5,360.5C 441.438,357.081 443.772,354.081 446.5,351.5 Z"/></g>
<g><path style="opacity:1" fill="#c0212a" d="M 57.5,361.5 C 59.0109,362.502 60.6776,363.169 62.5,363.5C 63.8367,367.985 65.5034,372.318 67.5,376.5C 63.9317,371.709 60.5984,366.709 57.5,361.5 Z"/></g>
<g><path style="opacity:1" fill="#f7e5e6" d="M 255.5,373.5 C 250.895,376.18 250.561,379.514 254.5,383.5C 254.595,385.786 255.262,387.786 256.5,389.5C 257.763,394.126 258.929,398.792 260,403.5C 260.417,404.756 261.25,405.423 262.5,405.5C 261.614,406.776 260.614,406.776 259.5,405.5C 257.746,398.759 255.246,392.426 252,386.5C 250.582,389.001 249.582,388.668 249,385.5C 248.418,388.668 247.418,389.001 246,386.5C 245.105,388.804 244.271,391.138 243.5,393.5C 242.817,393.863 242.15,394.196 241.5,394.5C 243.196,388.578 245.196,382.745 247.5,377C 243.788,374.434 242.622,370.934 244,366.5C 247.308,364.007 250.808,363.841 254.5,366C 255.435,368.381 255.768,370.881 255.5,373.5 Z"/></g>
<g><path style="opacity:1" fill="#d93e41" d="M 211.5,385.5 C 210.624,385.631 209.957,385.298 209.5,384.5C 211.672,379.922 210.338,377.256 205.5,376.5C 200.383,377.301 198.383,380.301 199.5,385.5C 198.188,384.855 197.188,383.855 196.5,382.5C 197.946,380.382 198.613,378.049 198.5,375.5C 208.344,372.376 212.678,375.709 211.5,385.5 Z"/></g>
<g><path style="opacity:1" fill="#d43d3f" d="M 255.5,373.5 C 254.854,375.156 254.187,376.823 253.5,378.5C 254.046,380.135 254.38,381.801 254.5,383.5C 250.561,379.514 250.895,376.18 255.5,373.5 Z"/></g>
<g><path style="opacity:1" fill="#cb3239" d="M 199.5,385.5 C 199.833,385.5 200.167,385.5 200.5,385.5C 202.417,387.745 204.75,388.078 207.5,386.5C 208.386,387.325 208.719,388.325 208.5,389.5C 205.921,388.772 203.254,388.272 200.5,388C 199.748,387.329 199.414,386.496 199.5,385.5 Z"/></g>
<g><path style="opacity:1" fill="#dc2e33" d="M 289.5,377.5 C 288.178,379.802 288.178,382.135 289.5,384.5C 284.744,388.602 279.744,392.269 274.5,395.5C 275.201,393.092 276.201,390.758 277.5,388.5C 279.003,387.948 280.669,387.948 282.5,388.5C 282.45,386.41 283.45,385.077 285.5,384.5C 286.474,382.257 286.808,379.924 286.5,377.5C 287.5,377.5 288.5,377.5 289.5,377.5 Z"/></g>
<g><path style="opacity:1" fill="#cf2127" d="M 426.5,383.5 C 422.832,388.007 419.332,392.673 416,397.5C 411.61,401.295 407.443,405.295 403.5,409.5C 403.685,407.804 404.519,406.471 406,405.5C 406.495,403.527 406.662,401.527 406.5,399.5C 408.167,399.5 409.833,399.5 411.5,399.5C 411.5,397.833 411.5,396.167 411.5,394.5C 413.167,394.5 414.833,394.5 416.5,394.5C 416.119,389.981 417.786,387.314 421.5,386.5C 420.975,385.808 420.308,385.308 419.5,385C 421.74,384.023 424.073,383.523 426.5,383.5 Z"/></g>
<g><path style="opacity:1" fill="#d3454b" d="M 220.5,393.5 C 220.5,393.167 220.5,392.833 220.5,392.5C 224.051,394.111 227.051,396.444 229.5,399.5C 226.357,397.758 223.357,395.758 220.5,393.5 Z"/></g>
<g><path style="opacity:1" fill="#f1eeee" d="M 289.5,392.5 C 286.495,401.182 283.495,409.849 280.5,418.5C 278.876,422.18 277.209,426.014 275.5,430C 273.5,430.667 271.5,430.667 269.5,430C 270.801,428.384 270.801,426.884 269.5,425.5C 263.202,424.17 256.535,423.503 249.5,423.5C 242.833,423.667 236.167,423.833 229.5,424C 228.167,426 228.167,428 229.5,430C 227.866,430.494 226.199,430.66 224.5,430.5C 222.053,426.72 220.053,422.72 218.5,418.5C 218.632,414.781 217.965,411.281 216.5,408C 216.454,406.272 216.954,404.772 218,403.5C 218.333,404.167 218.667,404.833 219,405.5C 219.781,404.271 220.281,402.938 220.5,401.5C 219.493,398.543 218.159,395.876 216.5,393.5C 217.833,393.5 219.167,393.5 220.5,393.5C 223.357,395.758 226.357,397.758 229.5,399.5C 231.677,402.754 234.677,404.754 238.5,405.5C 239.036,401.686 240.036,398.019 241.5,394.5C 242.15,394.196 242.817,393.863 243.5,393.5C 244.271,391.138 245.105,388.804 246,386.5C 247.418,389.001 248.418,388.668 249,385.5C 249.582,388.668 250.582,389.001 252,386.5C 255.246,392.426 257.746,398.759 259.5,405.5C 260.614,406.776 261.614,406.776 262.5,405.5C 266.817,402.514 270.817,399.18 274.5,395.5C 279.744,392.269 284.744,388.602 289.5,384.5C 288.178,382.135 288.178,379.802 289.5,377.5C 297.243,375.411 300.243,378.244 298.5,386C 296.246,387.651 293.912,387.818 291.5,386.5C 289.914,388.173 289.247,390.173 289.5,392.5 Z"/></g>
<g><path style="opacity:1" fill="#f7e7e7" d="M 211.5,385.5 C 213.949,388.556 216.949,390.889 220.5,392.5C 220.5,392.833 220.5,393.167 220.5,393.5C 219.167,393.5 217.833,393.5 216.5,393.5C 218.159,395.876 219.493,398.543 220.5,401.5C 220.281,402.938 219.781,404.271 219,405.5C 218.667,404.833 218.333,404.167 218,403.5C 216.954,404.772 216.454,406.272 216.5,408C 217.965,411.281 218.632,414.781 218.5,418.5C 217.833,417.5 217.167,416.5 216.5,415.5C 214.74,407.562 212.407,399.895 209.5,392.5C 209.737,391.209 209.404,390.209 208.5,389.5C 208.719,388.325 208.386,387.325 207.5,386.5C 204.75,388.078 202.417,387.745 200.5,385.5C 200.167,385.5 199.833,385.5 199.5,385.5C 198.383,380.301 200.383,377.301 205.5,376.5C 210.338,377.256 211.672,379.922 209.5,384.5C 209.957,385.298 210.624,385.631 211.5,385.5 Z"/></g>
<g><path style="opacity:1" fill="#f1f0ef" d="M 200.5,385.5 C 199.958,381.254 201.791,378.921 206,378.5C 207.662,378.388 208.829,379.054 209.5,380.5C 208.691,382.071 208.357,383.738 208.5,385.5C 205.803,386.63 203.137,386.63 200.5,385.5 Z"/></g>
<g><path style="opacity:1" fill="#df2e34" d="M 256.5,389.5 C 258.61,392.517 260.277,395.851 261.5,399.5C 262.328,400.415 263.328,401.081 264.5,401.5C 265.298,399.922 265.798,398.256 266,396.5C 266.934,399.965 268.434,400.298 270.5,397.5C 270.291,396.914 269.957,396.414 269.5,396C 271.134,395.506 272.801,395.34 274.5,395.5C 270.817,399.18 266.817,402.514 262.5,405.5C 261.25,405.423 260.417,404.756 260,403.5C 258.929,398.792 257.763,394.126 256.5,389.5 Z"/></g>
<g><path style="opacity:1" fill="#d54343" d="M 289.5,392.5 C 288.093,399.935 286.26,407.269 284,414.5C 283.576,417.025 282.41,419.025 280.5,420.5C 280.5,419.833 280.5,419.167 280.5,418.5C 283.495,409.849 286.495,401.182 289.5,392.5 Z"/></g>
<g><path style="opacity:1" fill="#d24545" d="M 209.5,392.5 C 212.407,399.895 214.74,407.562 216.5,415.5C 213.225,408.327 210.892,400.66 209.5,392.5 Z"/></g>
<g><path style="opacity:0.004" fill="#fefffe" d="M 476.5,405.5 C 477.833,406.167 477.833,406.167 476.5,405.5 Z"/></g>
<g><path style="opacity:1" fill="#911a20" d="M 93.5,407.5 C 97.1002,409.43 100.1,412.097 102.5,415.5C 98.8998,413.57 95.8998,410.903 93.5,407.5 Z"/></g>
<g><path style="opacity:0.004" fill="#fefffe" d="M 482.5,417.5 C 483.833,418.167 483.833,418.167 482.5,417.5 Z"/></g>
<g><path style="opacity:0.004" fill="#fefffe" d="M 4.5,428.5 C 5.83333,429.167 5.83333,429.167 4.5,428.5 Z"/></g>
<g><path style="opacity:1" fill="#d04846" d="M 216.5,415.5 C 217.167,416.5 217.833,417.5 218.5,418.5C 219.326,422.136 219.992,425.803 220.5,429.5C 218.549,425.126 217.216,420.46 216.5,415.5 Z"/></g>
<g><path style="opacity:0.004" fill="#fefffe" d="M 432.5,428.5 C 433.833,429.167 433.833,429.167 432.5,428.5 Z"/></g>
<g><path style="opacity:1" fill="#971920" d="M 117.5,427.5 C 119.749,428.08 121.415,429.413 122.5,431.5C 120.251,430.92 118.585,429.587 117.5,427.5 Z"/></g>
<g><path style="opacity:1" fill="#ffdbdc" d="M 218.5,418.5 C 220.053,422.72 222.053,426.72 224.5,430.5C 226.199,430.66 227.866,430.494 229.5,430C 228.167,428 228.167,426 229.5,424C 236.167,423.833 242.833,423.667 249.5,423.5C 256.535,423.503 263.202,424.17 269.5,425.5C 270.801,426.884 270.801,428.384 269.5,430C 271.5,430.667 273.5,430.667 275.5,430C 277.209,426.014 278.876,422.18 280.5,418.5C 280.5,419.167 280.5,419.833 280.5,420.5C 279.564,424.309 278.23,427.975 276.5,431.5C 258.497,431.667 240.497,431.5 222.5,431C 221.956,430.283 221.289,429.783 220.5,429.5C 219.992,425.803 219.326,422.136 218.5,418.5 Z"/></g>
<g><path style="opacity:1" fill="#c13437" d="M 269.5,425.5 C 269.5,426.5 269.5,427.5 269.5,428.5C 256.167,428.5 242.833,428.5 229.5,428.5C 229.33,427.178 229.663,426.011 230.5,425C 243.575,424.187 256.575,424.354 269.5,425.5 Z"/></g>
<g><path style="opacity:1" fill="#dc2229" d="M 231.5,425.5 C 243.518,425.168 255.518,425.501 267.5,426.5C 261.5,426.833 255.5,427.167 249.5,427.5C 243.128,427.496 237.128,426.829 231.5,425.5 Z"/></g>
<g><path style="opacity:1" fill="#df575b" d="M 220.5,429.5 C 221.289,429.783 221.956,430.283 222.5,431C 240.497,431.5 258.497,431.667 276.5,431.5C 258.338,432.662 240.005,432.829 221.5,432C 220.748,431.329 220.414,430.496 220.5,429.5 Z"/></g>
<g><path style="opacity:1" fill="#b8202a" d="M 122.5,431.5 C 126.555,431.884 129.555,433.884 131.5,437.5C 127.975,436.241 124.975,434.241 122.5,431.5 Z"/></g>
<g><path style="opacity:0.004" fill="#fefffe" d="M 457.5,436.5 C 458.833,437.167 458.833,437.167 457.5,436.5 Z"/></g>
<g><path style="opacity:1" fill="#bf1f27" d="M 373.5,433.5 C 366.802,438.851 359.468,443.185 351.5,446.5C 352.757,444.578 353.923,442.578 355,440.5C 356.049,441.517 357.216,441.684 358.5,441C 363.616,438.714 368.616,436.214 373.5,433.5 Z"/></g>
<g><path style="opacity:1" fill="#ba2029" d="M 131.5,437.5 C 132.873,437.343 134.207,437.51 135.5,438C 138.934,440.435 142.6,442.435 146.5,444C 147.823,444.816 148.489,445.983 148.5,447.5C 142.332,444.92 136.665,441.586 131.5,437.5 Z"/></g>
<g><path style="opacity:1" fill="#c82329" d="M 349.5,447.5 C 345.343,450.449 340.677,452.449 335.5,453.5C 336.987,452.196 338.654,451.03 340.5,450C 340.167,449.667 339.833,449.333 339.5,449C 342.88,448.661 346.213,448.161 349.5,447.5 Z"/></g>
<g><path style="opacity:1" fill="#991924" d="M 157.5,451.5 C 158.873,451.343 160.207,451.51 161.5,452C 166.978,454.425 172.312,456.925 177.5,459.5C 170.341,457.915 163.674,455.249 157.5,451.5 Z"/></g>
<g><path style="opacity:0.004" fill="#fefffe" d="M 462.5,451.5 C 463.833,452.167 463.833,452.167 462.5,451.5 Z"/></g>
<g><path style="opacity:1" fill="#b8272d" d="M 335.5,453.5 C 331.924,455.922 327.924,457.589 323.5,458.5C 327.111,456.069 331.111,454.403 335.5,453.5 Z"/></g>
<g><path style="opacity:1" fill="#c42126" d="M 194.5,464.5 C 188.502,463.588 182.835,461.922 177.5,459.5C 182.009,461.091 186.343,460.758 190.5,458.5C 193.239,460.231 192.906,461.397 189.5,462C 191.315,462.757 192.981,463.59 194.5,464.5 Z"/></g>
<g><path style="opacity:0.004" fill="#fefffe" d="M 41.5,462.5 C 42.8333,463.167 42.8333,463.167 41.5,462.5 Z"/></g>
<g><path style="opacity:1" fill="#b42329" d="M 295.5,466.5 C 287.782,468.747 279.782,470.08 271.5,470.5C 279.148,467.872 287.148,466.538 295.5,466.5 Z"/></g>
<g><path style="opacity:1" fill="#b52127" d="M 207.5,467.5 C 215.579,467.749 223.579,468.583 231.5,470C 244.829,470.5 258.163,470.667 271.5,470.5C 256.672,471.661 241.672,471.828 226.5,471C 220.003,470.042 213.67,468.875 207.5,467.5 Z"/></g>
<g><path style="opacity:0.004" fill="#fefffe" d="M 451.5,483.5 C 452.833,484.167 452.833,484.167 451.5,483.5 Z"/></g>
<g><path style="opacity:0.004" fill="#fefffe" d="M 115.5,486.5 C 116.833,487.167 116.833,487.167 115.5,486.5 Z"/></g>
<g><path style="opacity:0.004" fill="#fefffe" d="M 71.5,488.5 C 72.8333,489.167 72.8333,489.167 71.5,488.5 Z"/></g>
</svg>
