<?xml version="1.0" encoding="UTF-8"?>
<!DOCTYPE svg PUBLIC "-//W3C//DTD SVG 1.1//EN" "http://www.w3.org/Graphics/SVG/1.1/DTD/svg11.dtd">
<svg xmlns="http://www.w3.org/2000/svg" version="1.1" width="512px" height="512px" style="shape-rendering:geometricPrecision; text-rendering:geometricPrecision; image-rendering:optimizeQuality; fill-rule:evenodd; clip-rule:evenodd" xmlns:xlink="http://www.w3.org/1999/xlink">
<g><path style="opacity:0.978" fill="#F0F0F0" d="M 78.5,185.5 C 98.8471,184.994 112.18,194.327 118.5,213.5C 118.333,214.167 118.167,214.833 118,215.5C 111.855,204.756 102.521,199.423 90,199.5C 63.2366,201.932 50.2366,216.598 51,243.5C 54.2744,259.108 63.7744,268.274 79.5,271C 101.518,273.402 119.685,266.235 134,249.5C 140.417,238.997 147.084,228.663 154,218.5C 170.419,195.794 192.586,186.961 220.5,192C 233.906,193.961 245.573,199.461 255.5,208.5C 272.511,194.002 292.178,188.502 314.5,192C 330.837,193.919 344.004,201.419 354,214.5C 361.915,225.996 369.582,237.662 377,249.5C 396.844,271.663 420.344,276.83 447.5,265C 463.057,249.199 464.557,232.032 452,213.5C 437.249,198.551 420.416,195.717 401.5,205C 398.067,208.042 395.234,211.542 393,215.5C 396.964,196.225 408.964,186.225 429,185.5C 458.8,188.297 477.133,204.297 484,233.5C 490.344,272.986 475.177,300.486 438.5,316C 412.437,324.436 385.77,327.103 358.5,324C 319.121,322.164 284.788,308.33 255.5,282.5C 229.1,306.148 198.1,319.648 162.5,323C 139.441,326.495 116.441,326.162 93.5,322C 69.1405,317.935 49.6405,306.102 35,286.5C 23.8518,265.483 22.5184,243.816 31,221.5C 40.1205,200.535 55.9538,188.535 78.5,185.5 Z"/></g>
</svg>
